%TF.GenerationSoftware,KiCad,Pcbnew,9.0.1*%
%TF.CreationDate,2025-08-08T23:32:52+03:00*%
%TF.ProjectId,vzFilter,767a4669-6c74-4657-922e-6b696361645f,v2*%
%TF.SameCoordinates,Original*%
%TF.FileFunction,Drillmap*%
%TF.FilePolarity,Positive*%
%FSLAX45Y45*%
G04 Gerber Fmt 4.5, Leading zero omitted, Abs format (unit mm)*
G04 Created by KiCad (PCBNEW 9.0.1) date 2025-08-08 23:32:52*
%MOMM*%
%LPD*%
G01*
G04 APERTURE LIST*
%ADD10C,0.050000*%
%ADD11C,0.200000*%
%ADD12C,0.100000*%
%ADD13C,0.140000*%
%ADD14C,0.150000*%
%ADD15C,0.320000*%
G04 APERTURE END LIST*
D10*
X24679772Y-14801700D02*
X24679772Y-6051700D01*
X23179772Y-5201700D02*
X23829772Y-5201700D01*
X22779772Y-15201700D02*
X22779772Y-14701700D01*
X4679772Y-5601700D02*
G75*
G02*
X5079772Y-5201702I399998J0D01*
G01*
X5079772Y-15201700D02*
X5629772Y-15201700D01*
X24279772Y-5201700D02*
X23829772Y-5201700D01*
X23179772Y-5201700D02*
X23179772Y-5701700D01*
X23179772Y-5701700D02*
X22779772Y-5701700D01*
X5079772Y-5201700D02*
X5679772Y-5201700D01*
X24279772Y-5201700D02*
G75*
G02*
X24679770Y-5601700I-2J-400000D01*
G01*
X22579772Y-5201700D02*
X7429772Y-5201700D01*
X24679772Y-14801700D02*
G75*
G02*
X24279772Y-15201702I-400002J0D01*
G01*
X4679772Y-5601700D02*
X4679772Y-14801700D01*
X5679772Y-5801700D02*
X6079772Y-5801700D01*
X5629772Y-14601700D02*
X6029772Y-14601700D01*
X6029772Y-14601700D02*
X6029772Y-15201700D01*
X23179772Y-15201700D02*
X23729772Y-15201700D01*
X22779772Y-5701700D02*
X22779772Y-5201700D01*
X6029772Y-15201700D02*
X22729772Y-15201700D01*
X6079772Y-5801700D02*
X6079772Y-5201700D01*
X22779772Y-5201700D02*
X22579772Y-5201700D01*
X24679772Y-5601700D02*
X24679772Y-6051700D01*
X5679772Y-5201700D02*
X5679772Y-5801700D01*
X22779772Y-14701700D02*
X23179772Y-14701700D01*
X6079772Y-5201700D02*
X7429772Y-5201700D01*
X24279772Y-15201700D02*
X23729772Y-15201700D01*
X22729772Y-15201700D02*
X22779772Y-15201700D01*
X5629772Y-15201700D02*
X5629772Y-14601700D01*
X5079772Y-15201700D02*
G75*
G02*
X4679770Y-14801700I-2J400000D01*
G01*
X23179772Y-14701700D02*
X23179772Y-15201700D01*
D11*
D12*
X4904772Y-8176700D02*
X4954772Y-8226700D01*
X4954772Y-8176700D02*
X4904772Y-8226700D01*
X4904772Y-9176700D02*
X4954772Y-9226700D01*
X4954772Y-9176700D02*
X4904772Y-9226700D01*
X4904772Y-10176700D02*
X4954772Y-10226700D01*
X4954772Y-10176700D02*
X4904772Y-10226700D01*
X4904772Y-11176700D02*
X4954772Y-11226700D01*
X4954772Y-11176700D02*
X4904772Y-11226700D01*
X4904772Y-12176700D02*
X4954772Y-12226700D01*
X4954772Y-12176700D02*
X4904772Y-12226700D01*
X5404772Y-14426700D02*
X5454772Y-14476700D01*
X5454772Y-14426700D02*
X5404772Y-14476700D01*
X5904772Y-6676700D02*
X5954772Y-6726700D01*
X5954772Y-6676700D02*
X5904772Y-6726700D01*
X5904772Y-7426700D02*
X5954772Y-7476700D01*
X5954772Y-7426700D02*
X5904772Y-7476700D01*
X5904772Y-7926700D02*
X5954772Y-7976700D01*
X5954772Y-7926700D02*
X5904772Y-7976700D01*
X5904772Y-8426700D02*
X5954772Y-8476700D01*
X5954772Y-8426700D02*
X5904772Y-8476700D01*
X5904772Y-9926700D02*
X5954772Y-9976700D01*
X5954772Y-9926700D02*
X5904772Y-9976700D01*
X5904772Y-11676700D02*
X5954772Y-11726700D01*
X5954772Y-11676700D02*
X5904772Y-11726700D01*
X5904772Y-12676700D02*
X5954772Y-12726700D01*
X5954772Y-12676700D02*
X5904772Y-12726700D01*
X5904772Y-13176700D02*
X5954772Y-13226700D01*
X5954772Y-13176700D02*
X5904772Y-13226700D01*
X6154772Y-14176700D02*
X6204772Y-14226700D01*
X6204772Y-14176700D02*
X6154772Y-14226700D01*
X6446443Y-10377656D02*
X6496443Y-10427656D01*
X6496443Y-10377656D02*
X6446443Y-10427656D01*
X6454772Y-5676700D02*
X6504772Y-5726700D01*
X6504772Y-5676700D02*
X6454772Y-5726700D01*
X6525272Y-12034793D02*
X6575272Y-12084793D01*
X6575272Y-12034793D02*
X6525272Y-12084793D01*
X6525722Y-13682584D02*
X6575722Y-13732584D01*
X6575722Y-13682584D02*
X6525722Y-13732584D01*
X6534237Y-7133068D02*
X6584237Y-7183068D01*
X6584237Y-7133068D02*
X6534237Y-7183068D01*
X6554772Y-8776700D02*
X6604772Y-8826700D01*
X6604772Y-8776700D02*
X6554772Y-8826700D01*
X7404772Y-9926700D02*
X7454772Y-9976700D01*
X7454772Y-9926700D02*
X7404772Y-9976700D01*
X7404772Y-11676700D02*
X7454772Y-11726700D01*
X7454772Y-11676700D02*
X7404772Y-11726700D01*
X7654772Y-5426700D02*
X7704772Y-5476700D01*
X7704772Y-5426700D02*
X7654772Y-5476700D01*
X7654772Y-6926700D02*
X7704772Y-6976700D01*
X7704772Y-6926700D02*
X7654772Y-6976700D01*
X7654772Y-8426700D02*
X7704772Y-8476700D01*
X7704772Y-8426700D02*
X7654772Y-8476700D01*
X7654772Y-13426700D02*
X7704772Y-13476700D01*
X7704772Y-13426700D02*
X7654772Y-13476700D01*
X8105000Y-10845000D02*
X8155000Y-10895000D01*
X8155000Y-10845000D02*
X8105000Y-10895000D01*
X8106278Y-9246397D02*
X8156278Y-9296397D01*
X8156278Y-9246397D02*
X8106278Y-9296397D01*
X8107272Y-12504793D02*
X8157272Y-12554793D01*
X8157272Y-12504793D02*
X8107272Y-12554793D01*
X8107722Y-14152584D02*
X8157722Y-14202584D01*
X8157722Y-14152584D02*
X8107722Y-14202584D01*
X8114022Y-6069450D02*
X8164022Y-6119450D01*
X8164022Y-6069450D02*
X8114022Y-6119450D01*
X8116237Y-7603068D02*
X8166237Y-7653068D01*
X8166237Y-7603068D02*
X8116237Y-7653068D01*
X8306000Y-10845000D02*
X8356000Y-10895000D01*
X8356000Y-10845000D02*
X8306000Y-10895000D01*
X8307278Y-9246397D02*
X8357278Y-9296397D01*
X8357278Y-9246397D02*
X8307278Y-9296397D01*
X8308272Y-12504793D02*
X8358272Y-12554793D01*
X8358272Y-12504793D02*
X8308272Y-12554793D01*
X8308722Y-14152584D02*
X8358722Y-14202584D01*
X8358722Y-14152584D02*
X8308722Y-14202584D01*
X8315022Y-6069450D02*
X8365022Y-6119450D01*
X8365022Y-6069450D02*
X8315022Y-6119450D01*
X8317237Y-7603068D02*
X8367237Y-7653068D01*
X8367237Y-7603068D02*
X8317237Y-7653068D01*
X9395205Y-9104594D02*
X9445205Y-9154594D01*
X9445205Y-9104594D02*
X9395205Y-9154594D01*
X9398432Y-10701920D02*
X9448432Y-10751920D01*
X9448432Y-10701920D02*
X9398432Y-10751920D01*
X9398432Y-12363785D02*
X9448432Y-12413785D01*
X9448432Y-12363785D02*
X9398432Y-12413785D01*
X9398432Y-14015969D02*
X9448432Y-14065969D01*
X9448432Y-14015969D02*
X9398432Y-14065969D01*
X9404772Y-5926700D02*
X9454772Y-5976700D01*
X9454772Y-5926700D02*
X9404772Y-5976700D01*
X9409467Y-7462542D02*
X9459467Y-7512542D01*
X9459467Y-7462542D02*
X9409467Y-7512542D01*
X10145205Y-9104594D02*
X10195205Y-9154594D01*
X10195205Y-9104594D02*
X10145205Y-9154594D01*
X10148432Y-10701920D02*
X10198432Y-10751920D01*
X10198432Y-10701920D02*
X10148432Y-10751920D01*
X10148432Y-12363785D02*
X10198432Y-12413785D01*
X10198432Y-12363785D02*
X10148432Y-12413785D01*
X10148432Y-14015969D02*
X10198432Y-14065969D01*
X10198432Y-14015969D02*
X10148432Y-14065969D01*
X10154772Y-5926700D02*
X10204772Y-5976700D01*
X10204772Y-5926700D02*
X10154772Y-5976700D01*
X10159467Y-7462542D02*
X10209467Y-7512542D01*
X10209467Y-7462542D02*
X10159467Y-7512542D01*
X11037190Y-9485822D02*
X11087190Y-9535822D01*
X11087190Y-9485822D02*
X11037190Y-9535822D01*
X11040417Y-11083149D02*
X11090417Y-11133149D01*
X11090417Y-11083149D02*
X11040417Y-11133149D01*
X11040417Y-12745013D02*
X11090417Y-12795013D01*
X11090417Y-12745013D02*
X11040417Y-12795013D01*
X11040417Y-14397197D02*
X11090417Y-14447197D01*
X11090417Y-14397197D02*
X11040417Y-14447197D01*
X11046756Y-6307928D02*
X11096756Y-6357928D01*
X11096756Y-6307928D02*
X11046756Y-6357928D01*
X11051452Y-7843770D02*
X11101452Y-7893770D01*
X11101452Y-7843770D02*
X11051452Y-7893770D01*
X11635246Y-9496579D02*
X11685246Y-9546579D01*
X11685246Y-9496579D02*
X11635246Y-9546579D01*
X11638473Y-11093905D02*
X11688473Y-11143905D01*
X11688473Y-11093905D02*
X11638473Y-11143905D01*
X11638473Y-12755770D02*
X11688473Y-12805770D01*
X11688473Y-12755770D02*
X11638473Y-12805770D01*
X11638473Y-14407954D02*
X11688473Y-14457954D01*
X11688473Y-14407954D02*
X11638473Y-14457954D01*
X11644812Y-6318684D02*
X11694812Y-6368684D01*
X11694812Y-6318684D02*
X11644812Y-6368684D01*
X11649508Y-7854526D02*
X11699508Y-7904526D01*
X11699508Y-7854526D02*
X11649508Y-7904526D01*
X12071956Y-9124407D02*
X12121956Y-9174407D01*
X12121956Y-9124407D02*
X12071956Y-9174407D01*
X12075183Y-10721733D02*
X12125183Y-10771733D01*
X12125183Y-10721733D02*
X12075183Y-10771733D01*
X12075183Y-12383598D02*
X12125183Y-12433598D01*
X12125183Y-12383598D02*
X12075183Y-12433598D01*
X12075183Y-14035782D02*
X12125183Y-14085782D01*
X12125183Y-14035782D02*
X12075183Y-14085782D01*
X12081522Y-5946513D02*
X12131522Y-5996513D01*
X12131522Y-5946513D02*
X12081522Y-5996513D01*
X12086218Y-7482355D02*
X12136218Y-7532355D01*
X12136218Y-7482355D02*
X12086218Y-7532355D01*
X12654953Y-9115802D02*
X12704953Y-9165802D01*
X12704953Y-9115802D02*
X12654953Y-9165802D01*
X12658180Y-10713128D02*
X12708180Y-10763128D01*
X12708180Y-10713128D02*
X12658180Y-10763128D01*
X12658180Y-12374993D02*
X12708180Y-12424993D01*
X12708180Y-12374993D02*
X12658180Y-12424993D01*
X12658180Y-14027177D02*
X12708180Y-14077177D01*
X12708180Y-14027177D02*
X12658180Y-14077177D01*
X12664520Y-5937908D02*
X12714520Y-5987908D01*
X12714520Y-5937908D02*
X12664520Y-5987908D01*
X12669215Y-7473750D02*
X12719215Y-7523750D01*
X12719215Y-7473750D02*
X12669215Y-7523750D01*
X12964455Y-9279844D02*
X13014455Y-9329844D01*
X13014455Y-9279844D02*
X12964455Y-9329844D01*
X12967682Y-10877170D02*
X13017682Y-10927170D01*
X13017682Y-10877170D02*
X12967682Y-10927170D01*
X12967682Y-12539035D02*
X13017682Y-12589035D01*
X13017682Y-12539035D02*
X12967682Y-12589035D01*
X12967682Y-14191219D02*
X13017682Y-14241219D01*
X13017682Y-14191219D02*
X12967682Y-14241219D01*
X12974022Y-6101950D02*
X13024022Y-6151950D01*
X13024022Y-6101950D02*
X12974022Y-6151950D01*
X12978717Y-7637792D02*
X13028717Y-7687792D01*
X13028717Y-7637792D02*
X12978717Y-7687792D01*
X13164455Y-9279844D02*
X13214455Y-9329844D01*
X13214455Y-9279844D02*
X13164455Y-9329844D01*
X13167682Y-10877170D02*
X13217682Y-10927170D01*
X13217682Y-10877170D02*
X13167682Y-10927170D01*
X13167682Y-12539035D02*
X13217682Y-12589035D01*
X13217682Y-12539035D02*
X13167682Y-12589035D01*
X13167682Y-14191219D02*
X13217682Y-14241219D01*
X13217682Y-14191219D02*
X13167682Y-14241219D01*
X13174022Y-6101950D02*
X13224022Y-6151950D01*
X13224022Y-6101950D02*
X13174022Y-6151950D01*
X13178717Y-7637792D02*
X13228717Y-7687792D01*
X13228717Y-7637792D02*
X13178717Y-7687792D01*
X14298532Y-9158827D02*
X14348532Y-9208827D01*
X14348532Y-9158827D02*
X14298532Y-9208827D01*
X14301759Y-10756154D02*
X14351759Y-10806154D01*
X14351759Y-10756154D02*
X14301759Y-10806154D01*
X14301759Y-12418018D02*
X14351759Y-12468018D01*
X14351759Y-12418018D02*
X14301759Y-12468018D01*
X14301759Y-14070203D02*
X14351759Y-14120203D01*
X14351759Y-14070203D02*
X14301759Y-14120203D01*
X14308099Y-5980933D02*
X14358099Y-6030933D01*
X14358099Y-5980933D02*
X14308099Y-6030933D01*
X14312794Y-7516775D02*
X14362794Y-7566775D01*
X14362794Y-7516775D02*
X14312794Y-7566775D01*
X15090204Y-9143768D02*
X15140204Y-9193768D01*
X15140204Y-9143768D02*
X15090204Y-9193768D01*
X15093431Y-10741095D02*
X15143431Y-10791095D01*
X15143431Y-10741095D02*
X15093431Y-10791095D01*
X15093431Y-12402960D02*
X15143431Y-12452960D01*
X15143431Y-12402960D02*
X15093431Y-12452960D01*
X15093431Y-14055144D02*
X15143431Y-14105144D01*
X15143431Y-14055144D02*
X15093431Y-14105144D01*
X15099770Y-5965874D02*
X15149770Y-6015874D01*
X15149770Y-5965874D02*
X15099770Y-6015874D01*
X15104466Y-7501716D02*
X15154466Y-7551716D01*
X15154466Y-7501716D02*
X15104466Y-7551716D01*
X16060432Y-9507335D02*
X16110432Y-9557335D01*
X16110432Y-9507335D02*
X16060432Y-9557335D01*
X16063659Y-11104661D02*
X16113659Y-11154661D01*
X16113659Y-11104661D02*
X16063659Y-11154661D01*
X16063659Y-12766526D02*
X16113659Y-12816526D01*
X16113659Y-12766526D02*
X16063659Y-12816526D01*
X16063659Y-14418710D02*
X16113659Y-14468710D01*
X16113659Y-14418710D02*
X16063659Y-14468710D01*
X16069998Y-6329441D02*
X16119998Y-6379441D01*
X16119998Y-6329441D02*
X16069998Y-6379441D01*
X16074693Y-7865283D02*
X16124693Y-7915283D01*
X16124693Y-7865283D02*
X16074693Y-7915283D01*
X16645580Y-9511638D02*
X16695580Y-9561638D01*
X16695580Y-9511638D02*
X16645580Y-9561638D01*
X16648807Y-11108964D02*
X16698807Y-11158964D01*
X16698807Y-11108964D02*
X16648807Y-11158964D01*
X16648807Y-12770829D02*
X16698807Y-12820829D01*
X16698807Y-12770829D02*
X16648807Y-12820829D01*
X16648807Y-14423013D02*
X16698807Y-14473013D01*
X16698807Y-14423013D02*
X16648807Y-14473013D01*
X16655147Y-6333743D02*
X16705147Y-6383743D01*
X16705147Y-6333743D02*
X16655147Y-6383743D01*
X16659842Y-7869585D02*
X16709842Y-7919585D01*
X16709842Y-7869585D02*
X16659842Y-7919585D01*
X16746691Y-9126558D02*
X16796691Y-9176558D01*
X16796691Y-9126558D02*
X16746691Y-9176558D01*
X16749917Y-10723885D02*
X16799918Y-10773885D01*
X16799918Y-10723885D02*
X16749917Y-10773885D01*
X16749917Y-12385749D02*
X16799918Y-12435749D01*
X16799918Y-12385749D02*
X16749917Y-12435749D01*
X16749917Y-14037933D02*
X16799918Y-14087933D01*
X16799918Y-14037933D02*
X16749917Y-14087933D01*
X16756257Y-5948664D02*
X16806257Y-5998664D01*
X16806257Y-5948664D02*
X16756257Y-5998664D01*
X16760952Y-7484506D02*
X16810952Y-7534506D01*
X16810952Y-7484506D02*
X16760952Y-7534506D01*
X17422193Y-9122256D02*
X17472193Y-9172256D01*
X17472193Y-9122256D02*
X17422193Y-9172256D01*
X17425420Y-10719582D02*
X17475420Y-10769582D01*
X17475420Y-10719582D02*
X17425420Y-10769582D01*
X17425420Y-12381447D02*
X17475420Y-12431447D01*
X17475420Y-12381447D02*
X17425420Y-12431447D01*
X17425420Y-14033631D02*
X17475420Y-14083631D01*
X17475420Y-14033631D02*
X17425420Y-14083631D01*
X17431759Y-5944362D02*
X17481759Y-5994362D01*
X17481759Y-5944362D02*
X17431759Y-5994362D01*
X17436455Y-7480203D02*
X17486455Y-7530203D01*
X17486455Y-7480203D02*
X17436455Y-7530203D01*
X17824455Y-9277344D02*
X17874455Y-9327344D01*
X17874455Y-9277344D02*
X17824455Y-9327344D01*
X17827682Y-10874670D02*
X17877682Y-10924670D01*
X17877682Y-10874670D02*
X17827682Y-10924670D01*
X17827682Y-12536535D02*
X17877682Y-12586535D01*
X17877682Y-12536535D02*
X17827682Y-12586535D01*
X17827682Y-14188719D02*
X17877682Y-14238719D01*
X17877682Y-14188719D02*
X17827682Y-14238719D01*
X17834022Y-6099450D02*
X17884022Y-6149450D01*
X17884022Y-6099450D02*
X17834022Y-6149450D01*
X17838717Y-7635292D02*
X17888717Y-7685292D01*
X17888717Y-7635292D02*
X17838717Y-7685292D01*
X18022480Y-9278377D02*
X18072480Y-9328377D01*
X18072480Y-9278377D02*
X18022480Y-9328377D01*
X18025707Y-10875703D02*
X18075707Y-10925703D01*
X18075707Y-10875703D02*
X18025707Y-10925703D01*
X18025707Y-12537568D02*
X18075707Y-12587568D01*
X18075707Y-12537568D02*
X18025707Y-12587568D01*
X18025707Y-14189752D02*
X18075707Y-14239752D01*
X18075707Y-14189752D02*
X18025707Y-14239752D01*
X18032046Y-6100483D02*
X18082046Y-6150483D01*
X18082046Y-6100483D02*
X18032046Y-6150483D01*
X18036741Y-7636325D02*
X18086741Y-7686325D01*
X18086741Y-7636325D02*
X18036741Y-7686325D01*
X19145205Y-9169844D02*
X19195205Y-9219844D01*
X19195205Y-9169844D02*
X19145205Y-9219844D01*
X19148432Y-10767170D02*
X19198432Y-10817170D01*
X19198432Y-10767170D02*
X19148432Y-10817170D01*
X19148432Y-12429035D02*
X19198432Y-12479035D01*
X19198432Y-12429035D02*
X19148432Y-12479035D01*
X19148432Y-14081219D02*
X19198432Y-14131219D01*
X19198432Y-14081219D02*
X19148432Y-14131219D01*
X19154772Y-5991950D02*
X19204772Y-6041950D01*
X19204772Y-5991950D02*
X19154772Y-6041950D01*
X19159467Y-7527792D02*
X19209467Y-7577792D01*
X19209467Y-7527792D02*
X19159467Y-7577792D01*
X19611236Y-9162506D02*
X19661236Y-9212506D01*
X19661236Y-9162506D02*
X19611236Y-9212506D01*
X19614463Y-10759832D02*
X19664463Y-10809832D01*
X19664463Y-10759832D02*
X19614463Y-10809832D01*
X19614463Y-12421697D02*
X19664463Y-12471697D01*
X19664463Y-12421697D02*
X19614463Y-12471697D01*
X19614463Y-14073881D02*
X19664463Y-14123881D01*
X19664463Y-14073881D02*
X19614463Y-14123881D01*
X19620802Y-5984612D02*
X19670802Y-6034612D01*
X19670802Y-5984612D02*
X19620802Y-6034612D01*
X19625498Y-7520453D02*
X19675498Y-7570453D01*
X19675498Y-7520453D02*
X19625498Y-7570453D01*
X20014401Y-9539604D02*
X20064401Y-9589604D01*
X20064401Y-9539604D02*
X20014401Y-9589604D01*
X20017628Y-11136931D02*
X20067628Y-11186930D01*
X20067628Y-11136931D02*
X20017628Y-11186930D01*
X20017628Y-12798795D02*
X20067628Y-12848795D01*
X20067628Y-12798795D02*
X20017628Y-12848795D01*
X20017628Y-14450979D02*
X20067628Y-14500979D01*
X20067628Y-14450979D02*
X20017628Y-14500979D01*
X20023967Y-6361710D02*
X20073967Y-6411710D01*
X20073967Y-6361710D02*
X20023967Y-6411710D01*
X20028663Y-7897552D02*
X20078663Y-7947552D01*
X20078663Y-7897552D02*
X20028663Y-7947552D01*
X20654772Y-5426700D02*
X20704772Y-5476700D01*
X20704772Y-5426700D02*
X20654772Y-5476700D01*
X21654772Y-5426700D02*
X21704772Y-5476700D01*
X21704772Y-5426700D02*
X21654772Y-5476700D01*
X21654772Y-7426700D02*
X21704772Y-7476700D01*
X21704772Y-7426700D02*
X21654772Y-7476700D01*
X21659123Y-6971551D02*
X21709123Y-7021551D01*
X21709123Y-6971551D02*
X21659123Y-7021551D01*
X21816102Y-8401178D02*
X21866102Y-8451178D01*
X21866102Y-8401178D02*
X21816102Y-8451178D01*
X21827315Y-9337443D02*
X21877315Y-9387443D01*
X21877315Y-9337443D02*
X21827315Y-9387443D01*
X21832921Y-8866507D02*
X21882921Y-8916507D01*
X21882921Y-8866507D02*
X21832921Y-8916507D01*
X21904772Y-5926700D02*
X21954772Y-5976700D01*
X21954772Y-5926700D02*
X21904772Y-5976700D01*
X21904772Y-12676700D02*
X21954772Y-12726700D01*
X21954772Y-12676700D02*
X21904772Y-12726700D01*
X21904772Y-13676700D02*
X21954772Y-13726700D01*
X21954772Y-13676700D02*
X21904772Y-13726700D01*
X22006719Y-7044434D02*
X22056719Y-7094434D01*
X22056719Y-7044434D02*
X22006719Y-7094434D01*
X22118846Y-7677955D02*
X22168846Y-7727955D01*
X22168846Y-7677955D02*
X22118846Y-7727955D01*
X22124453Y-6573498D02*
X22174453Y-6623498D01*
X22174453Y-6573498D02*
X22124453Y-6623498D01*
X22329772Y-8676700D02*
X22379772Y-8726700D01*
X22379772Y-8676700D02*
X22329772Y-8726700D01*
X22404772Y-5426700D02*
X22454772Y-5476700D01*
X22454772Y-5426700D02*
X22404772Y-5476700D01*
X22604772Y-11751700D02*
X22654772Y-11801700D01*
X22654772Y-11751700D02*
X22604772Y-11801700D01*
X22704772Y-7501700D02*
X22754772Y-7551700D01*
X22754772Y-7501700D02*
X22704772Y-7551700D01*
X22704772Y-12926700D02*
X22754772Y-12976700D01*
X22754772Y-12926700D02*
X22704772Y-12976700D01*
X22729772Y-6651700D02*
X22779772Y-6701700D01*
X22779772Y-6651700D02*
X22729772Y-6701700D01*
X22754772Y-13726700D02*
X22804772Y-13776700D01*
X22804772Y-13726700D02*
X22754772Y-13776700D01*
X22803210Y-8676700D02*
X22853210Y-8726700D01*
X22853210Y-8676700D02*
X22803210Y-8726700D01*
X22929772Y-10176700D02*
X22979772Y-10226700D01*
X22979772Y-10176700D02*
X22929772Y-10226700D01*
X23079772Y-12751700D02*
X23129772Y-12801700D01*
X23129772Y-12751700D02*
X23079772Y-12801700D01*
X23129772Y-13576700D02*
X23179772Y-13626700D01*
X23179772Y-13576700D02*
X23129772Y-13626700D01*
X23154772Y-8251700D02*
X23204772Y-8301700D01*
X23204772Y-8251700D02*
X23154772Y-8301700D01*
X23179772Y-14371700D02*
X23229772Y-14421700D01*
X23229772Y-14371700D02*
X23179772Y-14421700D01*
X23204772Y-6651700D02*
X23254772Y-6701700D01*
X23254772Y-6651700D02*
X23204772Y-6701700D01*
X23204772Y-7426700D02*
X23254772Y-7476700D01*
X23254772Y-7426700D02*
X23204772Y-7476700D01*
X23354772Y-8426700D02*
X23404772Y-8476700D01*
X23404772Y-8426700D02*
X23354772Y-8476700D01*
X23504772Y-9301700D02*
X23554772Y-9351700D01*
X23554772Y-9301700D02*
X23504772Y-9351700D01*
X23504772Y-12101700D02*
X23554772Y-12151700D01*
X23554772Y-12101700D02*
X23504772Y-12151700D01*
X23529772Y-9776700D02*
X23579772Y-9826700D01*
X23579772Y-9776700D02*
X23529772Y-9826700D01*
X23529772Y-11576700D02*
X23579772Y-11626700D01*
X23579772Y-11576700D02*
X23529772Y-11626700D01*
X23529772Y-12876700D02*
X23579772Y-12926700D01*
X23579772Y-12876700D02*
X23529772Y-12926700D01*
X23529772Y-13726700D02*
X23579772Y-13776700D01*
X23579772Y-13726700D02*
X23529772Y-13776700D01*
X23604772Y-14926700D02*
X23654772Y-14976700D01*
X23654772Y-14926700D02*
X23604772Y-14976700D01*
X23854772Y-11926700D02*
X23904772Y-11976700D01*
X23904772Y-11926700D02*
X23854772Y-11976700D01*
X23854772Y-12476700D02*
X23904772Y-12526700D01*
X23904772Y-12476700D02*
X23854772Y-12526700D01*
X23854772Y-12901700D02*
X23904772Y-12951700D01*
X23904772Y-12901700D02*
X23854772Y-12951700D01*
X23854772Y-13551700D02*
X23904772Y-13601700D01*
X23904772Y-13551700D02*
X23854772Y-13601700D01*
X23854772Y-14076700D02*
X23904772Y-14126700D01*
X23904772Y-14076700D02*
X23854772Y-14126700D01*
X24029772Y-11351700D02*
X24079772Y-11401700D01*
X24079772Y-11351700D02*
X24029772Y-11401700D01*
X24079772Y-9251700D02*
X24129772Y-9301700D01*
X24129772Y-9251700D02*
X24079772Y-9301700D01*
X24254772Y-8701700D02*
X24304772Y-8751700D01*
X24304772Y-8701700D02*
X24254772Y-8751700D01*
X24279772Y-7976700D02*
X24329772Y-8026700D01*
X24329772Y-7976700D02*
X24279772Y-8026700D01*
X24479772Y-11276700D02*
X24529772Y-11326700D01*
X24529772Y-11276700D02*
X24479772Y-11326700D01*
X24479772Y-11801700D02*
X24529772Y-11851700D01*
X24529772Y-11801700D02*
X24479772Y-11851700D01*
X24479772Y-12326700D02*
X24529772Y-12376700D01*
X24529772Y-12326700D02*
X24479772Y-12376700D01*
X4864772Y-5601700D02*
G75*
G02*
X4814772Y-5601700I-25000J0D01*
G01*
X4814772Y-5601700D02*
G75*
G02*
X4864772Y-5601700I25000J0D01*
G01*
X4864772Y-14801700D02*
G75*
G02*
X4814772Y-14801700I-25000J0D01*
G01*
X4814772Y-14801700D02*
G75*
G02*
X4864772Y-14801700I25000J0D01*
G01*
X4935066Y-5431994D02*
G75*
G02*
X4885066Y-5431994I-25000J0D01*
G01*
X4885066Y-5431994D02*
G75*
G02*
X4935066Y-5431994I25000J0D01*
G01*
X4935066Y-5771406D02*
G75*
G02*
X4885066Y-5771406I-25000J0D01*
G01*
X4885066Y-5771406D02*
G75*
G02*
X4935066Y-5771406I25000J0D01*
G01*
X4935066Y-14631994D02*
G75*
G02*
X4885066Y-14631994I-25000J0D01*
G01*
X4885066Y-14631994D02*
G75*
G02*
X4935066Y-14631994I25000J0D01*
G01*
X4935066Y-14971406D02*
G75*
G02*
X4885066Y-14971406I-25000J0D01*
G01*
X4885066Y-14971406D02*
G75*
G02*
X4935066Y-14971406I25000J0D01*
G01*
X5104772Y-5361700D02*
G75*
G02*
X5054772Y-5361700I-25000J0D01*
G01*
X5054772Y-5361700D02*
G75*
G02*
X5104772Y-5361700I25000J0D01*
G01*
X5104772Y-5841700D02*
G75*
G02*
X5054772Y-5841700I-25000J0D01*
G01*
X5054772Y-5841700D02*
G75*
G02*
X5104772Y-5841700I25000J0D01*
G01*
X5104772Y-14561700D02*
G75*
G02*
X5054772Y-14561700I-25000J0D01*
G01*
X5054772Y-14561700D02*
G75*
G02*
X5104772Y-14561700I25000J0D01*
G01*
X5104772Y-15041700D02*
G75*
G02*
X5054772Y-15041700I-25000J0D01*
G01*
X5054772Y-15041700D02*
G75*
G02*
X5104772Y-15041700I25000J0D01*
G01*
X5274477Y-5431994D02*
G75*
G02*
X5224477Y-5431994I-25000J0D01*
G01*
X5224477Y-5431994D02*
G75*
G02*
X5274477Y-5431994I25000J0D01*
G01*
X5274477Y-5771406D02*
G75*
G02*
X5224477Y-5771406I-25000J0D01*
G01*
X5224477Y-5771406D02*
G75*
G02*
X5274477Y-5771406I25000J0D01*
G01*
X5274477Y-14631994D02*
G75*
G02*
X5224477Y-14631994I-25000J0D01*
G01*
X5224477Y-14631994D02*
G75*
G02*
X5274477Y-14631994I25000J0D01*
G01*
X5274477Y-14971406D02*
G75*
G02*
X5224477Y-14971406I-25000J0D01*
G01*
X5224477Y-14971406D02*
G75*
G02*
X5274477Y-14971406I25000J0D01*
G01*
X5344772Y-5601700D02*
G75*
G02*
X5294772Y-5601700I-25000J0D01*
G01*
X5294772Y-5601700D02*
G75*
G02*
X5344772Y-5601700I25000J0D01*
G01*
X5344772Y-14801700D02*
G75*
G02*
X5294772Y-14801700I-25000J0D01*
G01*
X5294772Y-14801700D02*
G75*
G02*
X5344772Y-14801700I25000J0D01*
G01*
X24064772Y-5601700D02*
G75*
G02*
X24014772Y-5601700I-25000J0D01*
G01*
X24014772Y-5601700D02*
G75*
G02*
X24064772Y-5601700I25000J0D01*
G01*
X24064772Y-14801700D02*
G75*
G02*
X24014772Y-14801700I-25000J0D01*
G01*
X24014772Y-14801700D02*
G75*
G02*
X24064772Y-14801700I25000J0D01*
G01*
X24135066Y-5431994D02*
G75*
G02*
X24085066Y-5431994I-25000J0D01*
G01*
X24085066Y-5431994D02*
G75*
G02*
X24135066Y-5431994I25000J0D01*
G01*
X24135066Y-5771406D02*
G75*
G02*
X24085066Y-5771406I-25000J0D01*
G01*
X24085066Y-5771406D02*
G75*
G02*
X24135066Y-5771406I25000J0D01*
G01*
X24135066Y-14631994D02*
G75*
G02*
X24085066Y-14631994I-25000J0D01*
G01*
X24085066Y-14631994D02*
G75*
G02*
X24135066Y-14631994I25000J0D01*
G01*
X24135066Y-14971406D02*
G75*
G02*
X24085066Y-14971406I-25000J0D01*
G01*
X24085066Y-14971406D02*
G75*
G02*
X24135066Y-14971406I25000J0D01*
G01*
X24304772Y-5361700D02*
G75*
G02*
X24254772Y-5361700I-25000J0D01*
G01*
X24254772Y-5361700D02*
G75*
G02*
X24304772Y-5361700I25000J0D01*
G01*
X24304772Y-5841700D02*
G75*
G02*
X24254772Y-5841700I-25000J0D01*
G01*
X24254772Y-5841700D02*
G75*
G02*
X24304772Y-5841700I25000J0D01*
G01*
X24304772Y-14561700D02*
G75*
G02*
X24254772Y-14561700I-25000J0D01*
G01*
X24254772Y-14561700D02*
G75*
G02*
X24304772Y-14561700I25000J0D01*
G01*
X24304772Y-15041700D02*
G75*
G02*
X24254772Y-15041700I-25000J0D01*
G01*
X24254772Y-15041700D02*
G75*
G02*
X24304772Y-15041700I25000J0D01*
G01*
X24474477Y-5431994D02*
G75*
G02*
X24424477Y-5431994I-25000J0D01*
G01*
X24424477Y-5431994D02*
G75*
G02*
X24474477Y-5431994I25000J0D01*
G01*
X24474477Y-5771406D02*
G75*
G02*
X24424477Y-5771406I-25000J0D01*
G01*
X24424477Y-5771406D02*
G75*
G02*
X24474477Y-5771406I25000J0D01*
G01*
X24474477Y-14631994D02*
G75*
G02*
X24424477Y-14631994I-25000J0D01*
G01*
X24424477Y-14631994D02*
G75*
G02*
X24474477Y-14631994I25000J0D01*
G01*
X24474477Y-14971406D02*
G75*
G02*
X24424477Y-14971406I-25000J0D01*
G01*
X24424477Y-14971406D02*
G75*
G02*
X24474477Y-14971406I25000J0D01*
G01*
X24544772Y-5601700D02*
G75*
G02*
X24494772Y-5601700I-25000J0D01*
G01*
X24494772Y-5601700D02*
G75*
G02*
X24544772Y-5601700I25000J0D01*
G01*
X24544772Y-14801700D02*
G75*
G02*
X24494772Y-14801700I-25000J0D01*
G01*
X24494772Y-14801700D02*
G75*
G02*
X24544772Y-14801700I25000J0D01*
G01*
X5079772Y-6251700D02*
X5079772Y-6351700D01*
X5029772Y-6301700D02*
X5129772Y-6301700D01*
X5079772Y-6505700D02*
X5079772Y-6605700D01*
X5029772Y-6555700D02*
X5129772Y-6555700D01*
X5079772Y-6759700D02*
X5079772Y-6859700D01*
X5029772Y-6809700D02*
X5129772Y-6809700D01*
X5079772Y-7013700D02*
X5079772Y-7113700D01*
X5029772Y-7063700D02*
X5129772Y-7063700D01*
X5079772Y-7267700D02*
X5079772Y-7367700D01*
X5029772Y-7317700D02*
X5129772Y-7317700D01*
X5079772Y-7521700D02*
X5079772Y-7621700D01*
X5029772Y-7571700D02*
X5129772Y-7571700D01*
X5079772Y-12781700D02*
X5079772Y-12881700D01*
X5029772Y-12831700D02*
X5129772Y-12831700D01*
X5079772Y-13035700D02*
X5079772Y-13135700D01*
X5029772Y-13085700D02*
X5129772Y-13085700D01*
X5079772Y-13289700D02*
X5079772Y-13389700D01*
X5029772Y-13339700D02*
X5129772Y-13339700D01*
X5079772Y-13543700D02*
X5079772Y-13643700D01*
X5029772Y-13593700D02*
X5129772Y-13593700D01*
X5079772Y-13797700D02*
X5079772Y-13897700D01*
X5029772Y-13847700D02*
X5129772Y-13847700D01*
X5079772Y-14051700D02*
X5079772Y-14151700D01*
X5029772Y-14101700D02*
X5129772Y-14101700D01*
X6854750Y-10646500D02*
X6854750Y-10746500D01*
X6804750Y-10696500D02*
X6904750Y-10696500D01*
X6854750Y-11154500D02*
X6854750Y-11254500D01*
X6804750Y-11204500D02*
X6904750Y-11204500D01*
X6856028Y-9047897D02*
X6856028Y-9147897D01*
X6806028Y-9097897D02*
X6906028Y-9097897D01*
X6856028Y-9555897D02*
X6856028Y-9655897D01*
X6806028Y-9605897D02*
X6906028Y-9605897D01*
X6857022Y-12306293D02*
X6857022Y-12406293D01*
X6807022Y-12356293D02*
X6907022Y-12356293D01*
X6857022Y-12814293D02*
X6857022Y-12914293D01*
X6807022Y-12864293D02*
X6907022Y-12864293D01*
X6857472Y-13954085D02*
X6857472Y-14054085D01*
X6807472Y-14004085D02*
X6907472Y-14004085D01*
X6857472Y-14462085D02*
X6857472Y-14562085D01*
X6807472Y-14512085D02*
X6907472Y-14512085D01*
X6863772Y-5870950D02*
X6863772Y-5970950D01*
X6813772Y-5920950D02*
X6913772Y-5920950D01*
X6863772Y-6378950D02*
X6863772Y-6478950D01*
X6813772Y-6428950D02*
X6913772Y-6428950D01*
X6865987Y-7404568D02*
X6865987Y-7504568D01*
X6815987Y-7454568D02*
X6915987Y-7454568D01*
X6865987Y-7912568D02*
X6865987Y-8012568D01*
X6815987Y-7962568D02*
X6915987Y-7962568D01*
X7108750Y-10646500D02*
X7108750Y-10746500D01*
X7058750Y-10696500D02*
X7158750Y-10696500D01*
X7108750Y-11154500D02*
X7108750Y-11254500D01*
X7058750Y-11204500D02*
X7158750Y-11204500D01*
X7110028Y-9047897D02*
X7110028Y-9147897D01*
X7060028Y-9097897D02*
X7160028Y-9097897D01*
X7110028Y-9555897D02*
X7110028Y-9655897D01*
X7060028Y-9605897D02*
X7160028Y-9605897D01*
X7111022Y-12306293D02*
X7111022Y-12406293D01*
X7061022Y-12356293D02*
X7161022Y-12356293D01*
X7111022Y-12814293D02*
X7111022Y-12914293D01*
X7061022Y-12864293D02*
X7161022Y-12864293D01*
X7111472Y-13954085D02*
X7111472Y-14054085D01*
X7061472Y-14004085D02*
X7161472Y-14004085D01*
X7111472Y-14462085D02*
X7111472Y-14562085D01*
X7061472Y-14512085D02*
X7161472Y-14512085D01*
X7117772Y-5870950D02*
X7117772Y-5970950D01*
X7067772Y-5920950D02*
X7167772Y-5920950D01*
X7117772Y-6378950D02*
X7117772Y-6478950D01*
X7067772Y-6428950D02*
X7167772Y-6428950D01*
X7119987Y-7404568D02*
X7119987Y-7504568D01*
X7069987Y-7454568D02*
X7169987Y-7454568D01*
X7119987Y-7912568D02*
X7119987Y-8012568D01*
X7069987Y-7962568D02*
X7169987Y-7962568D01*
X7362750Y-10646500D02*
X7362750Y-10746500D01*
X7312750Y-10696500D02*
X7412750Y-10696500D01*
X7362750Y-11154500D02*
X7362750Y-11254500D01*
X7312750Y-11204500D02*
X7412750Y-11204500D01*
X7364028Y-9047897D02*
X7364028Y-9147897D01*
X7314028Y-9097897D02*
X7414028Y-9097897D01*
X7364028Y-9555897D02*
X7364028Y-9655897D01*
X7314028Y-9605897D02*
X7414028Y-9605897D01*
X7365022Y-12306293D02*
X7365022Y-12406293D01*
X7315022Y-12356293D02*
X7415022Y-12356293D01*
X7365022Y-12814293D02*
X7365022Y-12914293D01*
X7315022Y-12864293D02*
X7415022Y-12864293D01*
X7365472Y-13954085D02*
X7365472Y-14054085D01*
X7315472Y-14004085D02*
X7415472Y-14004085D01*
X7365472Y-14462085D02*
X7365472Y-14562085D01*
X7315472Y-14512085D02*
X7415472Y-14512085D01*
X7371772Y-5870950D02*
X7371772Y-5970950D01*
X7321772Y-5920950D02*
X7421772Y-5920950D01*
X7371772Y-6378950D02*
X7371772Y-6478950D01*
X7321772Y-6428950D02*
X7421772Y-6428950D01*
X7373987Y-7404568D02*
X7373987Y-7504568D01*
X7323987Y-7454568D02*
X7423987Y-7454568D01*
X7373987Y-7912568D02*
X7373987Y-8012568D01*
X7323987Y-7962568D02*
X7423987Y-7962568D01*
X7870750Y-10646500D02*
X7870750Y-10746500D01*
X7820750Y-10696500D02*
X7920750Y-10696500D01*
X7870750Y-11154500D02*
X7870750Y-11254500D01*
X7820750Y-11204500D02*
X7920750Y-11204500D01*
X7872028Y-9047897D02*
X7872028Y-9147897D01*
X7822028Y-9097897D02*
X7922028Y-9097897D01*
X7872028Y-9555897D02*
X7872028Y-9655897D01*
X7822028Y-9605897D02*
X7922028Y-9605897D01*
X7873022Y-12306293D02*
X7873022Y-12406293D01*
X7823022Y-12356293D02*
X7923022Y-12356293D01*
X7873022Y-12814293D02*
X7873022Y-12914293D01*
X7823022Y-12864293D02*
X7923022Y-12864293D01*
X7873472Y-13954085D02*
X7873472Y-14054085D01*
X7823472Y-14004085D02*
X7923472Y-14004085D01*
X7873472Y-14462085D02*
X7873472Y-14562085D01*
X7823472Y-14512085D02*
X7923472Y-14512085D01*
X7879772Y-5870950D02*
X7879772Y-5970950D01*
X7829772Y-5920950D02*
X7929772Y-5920950D01*
X7879772Y-6378950D02*
X7879772Y-6478950D01*
X7829772Y-6428950D02*
X7929772Y-6428950D01*
X7881987Y-7404568D02*
X7881987Y-7504568D01*
X7831987Y-7454568D02*
X7931987Y-7454568D01*
X7881987Y-7912568D02*
X7881987Y-8012568D01*
X7831987Y-7962568D02*
X7931987Y-7962568D01*
X20350000Y-10632000D02*
X20350000Y-10732000D01*
X20300000Y-10682000D02*
X20400000Y-10682000D01*
X20350000Y-11140000D02*
X20350000Y-11240000D01*
X20300000Y-11190000D02*
X20400000Y-11190000D01*
X20351278Y-9033397D02*
X20351278Y-9133397D01*
X20301278Y-9083397D02*
X20401278Y-9083397D01*
X20351278Y-9541397D02*
X20351278Y-9641397D01*
X20301278Y-9591397D02*
X20401278Y-9591397D01*
X20352272Y-12291792D02*
X20352272Y-12391792D01*
X20302272Y-12341792D02*
X20402272Y-12341792D01*
X20352272Y-12799792D02*
X20352272Y-12899792D01*
X20302272Y-12849792D02*
X20402272Y-12849792D01*
X20352722Y-13939584D02*
X20352722Y-14039584D01*
X20302722Y-13989584D02*
X20402722Y-13989584D01*
X20352722Y-14447584D02*
X20352722Y-14547584D01*
X20302722Y-14497584D02*
X20402722Y-14497584D01*
X20359022Y-5856450D02*
X20359022Y-5956450D01*
X20309022Y-5906450D02*
X20409022Y-5906450D01*
X20359022Y-6364450D02*
X20359022Y-6464450D01*
X20309022Y-6414450D02*
X20409022Y-6414450D01*
X20361237Y-7390068D02*
X20361237Y-7490068D01*
X20311237Y-7440068D02*
X20411237Y-7440068D01*
X20361237Y-7898068D02*
X20361237Y-7998068D01*
X20311237Y-7948068D02*
X20411237Y-7948068D01*
X20858000Y-10632000D02*
X20858000Y-10732000D01*
X20808000Y-10682000D02*
X20908000Y-10682000D01*
X20858000Y-11140000D02*
X20858000Y-11240000D01*
X20808000Y-11190000D02*
X20908000Y-11190000D01*
X20859278Y-9033397D02*
X20859278Y-9133397D01*
X20809278Y-9083397D02*
X20909278Y-9083397D01*
X20859278Y-9541397D02*
X20859278Y-9641397D01*
X20809278Y-9591397D02*
X20909278Y-9591397D01*
X20860272Y-12291792D02*
X20860272Y-12391792D01*
X20810272Y-12341792D02*
X20910272Y-12341792D01*
X20860272Y-12799792D02*
X20860272Y-12899792D01*
X20810272Y-12849792D02*
X20910272Y-12849792D01*
X20860722Y-13939584D02*
X20860722Y-14039584D01*
X20810722Y-13989584D02*
X20910722Y-13989584D01*
X20860722Y-14447584D02*
X20860722Y-14547584D01*
X20810722Y-14497584D02*
X20910722Y-14497584D01*
X20867022Y-5856450D02*
X20867022Y-5956450D01*
X20817022Y-5906450D02*
X20917022Y-5906450D01*
X20867022Y-6364450D02*
X20867022Y-6464450D01*
X20817022Y-6414450D02*
X20917022Y-6414450D01*
X20869237Y-7390068D02*
X20869237Y-7490068D01*
X20819237Y-7440068D02*
X20919237Y-7440068D01*
X20869237Y-7898068D02*
X20869237Y-7998068D01*
X20819237Y-7948068D02*
X20919237Y-7948068D01*
X21112000Y-10632000D02*
X21112000Y-10732000D01*
X21062000Y-10682000D02*
X21162000Y-10682000D01*
X21112000Y-11140000D02*
X21112000Y-11240000D01*
X21062000Y-11190000D02*
X21162000Y-11190000D01*
X21113278Y-9033397D02*
X21113278Y-9133397D01*
X21063278Y-9083397D02*
X21163278Y-9083397D01*
X21113278Y-9541397D02*
X21113278Y-9641397D01*
X21063278Y-9591397D02*
X21163278Y-9591397D01*
X21114272Y-12291792D02*
X21114272Y-12391792D01*
X21064272Y-12341792D02*
X21164272Y-12341792D01*
X21114272Y-12799792D02*
X21114272Y-12899792D01*
X21064272Y-12849792D02*
X21164272Y-12849792D01*
X21114722Y-13939584D02*
X21114722Y-14039584D01*
X21064722Y-13989584D02*
X21164722Y-13989584D01*
X21114722Y-14447584D02*
X21114722Y-14547584D01*
X21064722Y-14497584D02*
X21164722Y-14497584D01*
X21121022Y-5856450D02*
X21121022Y-5956450D01*
X21071022Y-5906450D02*
X21171022Y-5906450D01*
X21121022Y-6364450D02*
X21121022Y-6464450D01*
X21071022Y-6414450D02*
X21171022Y-6414450D01*
X21123237Y-7390068D02*
X21123237Y-7490068D01*
X21073237Y-7440068D02*
X21173237Y-7440068D01*
X21123237Y-7898068D02*
X21123237Y-7998068D01*
X21073237Y-7948068D02*
X21173237Y-7948068D01*
X21366000Y-10632000D02*
X21366000Y-10732000D01*
X21316000Y-10682000D02*
X21416000Y-10682000D01*
X21366000Y-11140000D02*
X21366000Y-11240000D01*
X21316000Y-11190000D02*
X21416000Y-11190000D01*
X21367278Y-9033397D02*
X21367278Y-9133397D01*
X21317278Y-9083397D02*
X21417278Y-9083397D01*
X21367278Y-9541397D02*
X21367278Y-9641397D01*
X21317278Y-9591397D02*
X21417278Y-9591397D01*
X21368272Y-12291792D02*
X21368272Y-12391792D01*
X21318272Y-12341792D02*
X21418272Y-12341792D01*
X21368272Y-12799792D02*
X21368272Y-12899792D01*
X21318272Y-12849792D02*
X21418272Y-12849792D01*
X21368722Y-13939584D02*
X21368722Y-14039584D01*
X21318722Y-13989584D02*
X21418722Y-13989584D01*
X21368722Y-14447584D02*
X21368722Y-14547584D01*
X21318722Y-14497584D02*
X21418722Y-14497584D01*
X21375022Y-5856450D02*
X21375022Y-5956450D01*
X21325022Y-5906450D02*
X21425022Y-5906450D01*
X21375022Y-6364450D02*
X21375022Y-6464450D01*
X21325022Y-6414450D02*
X21425022Y-6414450D01*
X21377237Y-7390068D02*
X21377237Y-7490068D01*
X21327237Y-7440068D02*
X21427237Y-7440068D01*
X21377237Y-7898068D02*
X21377237Y-7998068D01*
X21327237Y-7948068D02*
X21427237Y-7948068D01*
X24279772Y-6251700D02*
X24279772Y-6351700D01*
X24229772Y-6301700D02*
X24329772Y-6301700D01*
X24279772Y-6505700D02*
X24279772Y-6605700D01*
X24229772Y-6555700D02*
X24329772Y-6555700D01*
X24279772Y-6759700D02*
X24279772Y-6859700D01*
X24229772Y-6809700D02*
X24329772Y-6809700D01*
X24279772Y-7013700D02*
X24279772Y-7113700D01*
X24229772Y-7063700D02*
X24329772Y-7063700D01*
X24279772Y-7267700D02*
X24279772Y-7367700D01*
X24229772Y-7317700D02*
X24329772Y-7317700D01*
X24279772Y-7521700D02*
X24279772Y-7621700D01*
X24229772Y-7571700D02*
X24329772Y-7571700D01*
X24279772Y-12781700D02*
X24279772Y-12881700D01*
X24229772Y-12831700D02*
X24329772Y-12831700D01*
X24279772Y-13035700D02*
X24279772Y-13135700D01*
X24229772Y-13085700D02*
X24329772Y-13085700D01*
X24279772Y-13289700D02*
X24279772Y-13389700D01*
X24229772Y-13339700D02*
X24329772Y-13339700D01*
X24279772Y-13543700D02*
X24279772Y-13643700D01*
X24229772Y-13593700D02*
X24329772Y-13593700D01*
X24279772Y-13797700D02*
X24279772Y-13897700D01*
X24229772Y-13847700D02*
X24329772Y-13847700D01*
X24279772Y-14051700D02*
X24279772Y-14151700D01*
X24229772Y-14101700D02*
X24329772Y-14101700D01*
D13*
X5718778Y-9194038D02*
X5718778Y-9095042D01*
X5619782Y-9095042D01*
X5619782Y-9194038D01*
X5718778Y-9194038D01*
X5718778Y-9704038D02*
X5718778Y-9605042D01*
X5619782Y-9605042D01*
X5619782Y-9704038D01*
X5718778Y-9704038D01*
X5719269Y-10741198D02*
X5719269Y-10642202D01*
X5620274Y-10642202D01*
X5620274Y-10741198D01*
X5719269Y-10741198D01*
X5719269Y-11251198D02*
X5719269Y-11152202D01*
X5620274Y-11152202D01*
X5620274Y-11251198D01*
X5719269Y-11251198D01*
X5973778Y-9449038D02*
X5973778Y-9350042D01*
X5874782Y-9350042D01*
X5874782Y-9449038D01*
X5973778Y-9449038D01*
X5974269Y-10996198D02*
X5974269Y-10897202D01*
X5875274Y-10897202D01*
X5875274Y-10996198D01*
X5974269Y-10996198D01*
X6228778Y-9194038D02*
X6228778Y-9095042D01*
X6129782Y-9095042D01*
X6129782Y-9194038D01*
X6228778Y-9194038D01*
X6228778Y-9704038D02*
X6228778Y-9605042D01*
X6129782Y-9605042D01*
X6129782Y-9704038D01*
X6228778Y-9704038D01*
X6229269Y-10741198D02*
X6229269Y-10642202D01*
X6130274Y-10642202D01*
X6130274Y-10741198D01*
X6229269Y-10741198D01*
X6229269Y-11251198D02*
X6229269Y-11152202D01*
X6130274Y-11152202D01*
X6130274Y-11251198D01*
X6229269Y-11251198D01*
X22399269Y-9251198D02*
X22399269Y-9152202D01*
X22300274Y-9152202D01*
X22300274Y-9251198D01*
X22399269Y-9251198D01*
X22399269Y-9761198D02*
X22399269Y-9662202D01*
X22300274Y-9662202D01*
X22300274Y-9761198D01*
X22399269Y-9761198D01*
X22401055Y-10853698D02*
X22401055Y-10754702D01*
X22302059Y-10754702D01*
X22302059Y-10853698D01*
X22401055Y-10853698D01*
X22401055Y-11363698D02*
X22401055Y-11264702D01*
X22302059Y-11264702D01*
X22302059Y-11363698D01*
X22401055Y-11363698D01*
X22654269Y-9506198D02*
X22654269Y-9407202D01*
X22555274Y-9407202D01*
X22555274Y-9506198D01*
X22654269Y-9506198D01*
X22656055Y-11108698D02*
X22656055Y-11009702D01*
X22557059Y-11009702D01*
X22557059Y-11108698D01*
X22656055Y-11108698D01*
X22909269Y-9251198D02*
X22909269Y-9152202D01*
X22810274Y-9152202D01*
X22810274Y-9251198D01*
X22909269Y-9251198D01*
X22909269Y-9761198D02*
X22909269Y-9662202D01*
X22810274Y-9662202D01*
X22810274Y-9761198D01*
X22909269Y-9761198D01*
X22911055Y-10853698D02*
X22911055Y-10754702D01*
X22812059Y-10754702D01*
X22812059Y-10853698D01*
X22911055Y-10853698D01*
X22911055Y-11363698D02*
X22911055Y-11264702D01*
X22812059Y-11264702D01*
X22812059Y-11363698D01*
X22911055Y-11363698D01*
D14*
X8940000Y-10835000D02*
X9015000Y-10760000D01*
X8940000Y-10685000D01*
X8865000Y-10760000D01*
X8940000Y-10835000D01*
X8941278Y-9236397D02*
X9016278Y-9161397D01*
X8941278Y-9086397D01*
X8866278Y-9161397D01*
X8941278Y-9236397D01*
X8942272Y-12494793D02*
X9017272Y-12419793D01*
X8942272Y-12344793D01*
X8867272Y-12419793D01*
X8942272Y-12494793D01*
X8942722Y-14142584D02*
X9017722Y-14067584D01*
X8942722Y-13992584D01*
X8867722Y-14067584D01*
X8942722Y-14142584D01*
X8949022Y-6059450D02*
X9024022Y-5984450D01*
X8949022Y-5909450D01*
X8874022Y-5984450D01*
X8949022Y-6059450D01*
X8951237Y-7593068D02*
X9026237Y-7518068D01*
X8951237Y-7443068D01*
X8876237Y-7518068D01*
X8951237Y-7593068D01*
X9940000Y-11185000D02*
X10015000Y-11110000D01*
X9940000Y-11035000D01*
X9865000Y-11110000D01*
X9940000Y-11185000D01*
X9941278Y-9586397D02*
X10016278Y-9511397D01*
X9941278Y-9436397D01*
X9866278Y-9511397D01*
X9941278Y-9586397D01*
X9942272Y-12844793D02*
X10017272Y-12769793D01*
X9942272Y-12694793D01*
X9867272Y-12769793D01*
X9942272Y-12844793D01*
X9942722Y-14492584D02*
X10017722Y-14417584D01*
X9942722Y-14342584D01*
X9867722Y-14417584D01*
X9942722Y-14492584D01*
X9949022Y-6409450D02*
X10024022Y-6334450D01*
X9949022Y-6259450D01*
X9874022Y-6334450D01*
X9949022Y-6409450D01*
X9951237Y-7943068D02*
X10026237Y-7868068D01*
X9951237Y-7793068D01*
X9876237Y-7868068D01*
X9951237Y-7943068D01*
X11370000Y-10835000D02*
X11445000Y-10760000D01*
X11370000Y-10685000D01*
X11295000Y-10760000D01*
X11370000Y-10835000D01*
X11371278Y-9236397D02*
X11446278Y-9161397D01*
X11371278Y-9086397D01*
X11296278Y-9161397D01*
X11371278Y-9236397D01*
X11372272Y-12494793D02*
X11447272Y-12419793D01*
X11372272Y-12344793D01*
X11297272Y-12419793D01*
X11372272Y-12494793D01*
X11372722Y-14142584D02*
X11447722Y-14067584D01*
X11372722Y-13992584D01*
X11297722Y-14067584D01*
X11372722Y-14142584D01*
X11379022Y-6059450D02*
X11454022Y-5984450D01*
X11379022Y-5909450D01*
X11304022Y-5984450D01*
X11379022Y-6059450D01*
X11381237Y-7593068D02*
X11456237Y-7518068D01*
X11381237Y-7443068D01*
X11306237Y-7518068D01*
X11381237Y-7593068D01*
X12370000Y-11185000D02*
X12445000Y-11110000D01*
X12370000Y-11035000D01*
X12295000Y-11110000D01*
X12370000Y-11185000D01*
X12371278Y-9586397D02*
X12446278Y-9511397D01*
X12371278Y-9436397D01*
X12296278Y-9511397D01*
X12371278Y-9586397D01*
X12372272Y-12844793D02*
X12447272Y-12769793D01*
X12372272Y-12694793D01*
X12297272Y-12769793D01*
X12372272Y-12844793D01*
X12372722Y-14492584D02*
X12447722Y-14417584D01*
X12372722Y-14342584D01*
X12297722Y-14417584D01*
X12372722Y-14492584D01*
X12379022Y-6409450D02*
X12454022Y-6334450D01*
X12379022Y-6259450D01*
X12304022Y-6334450D01*
X12379022Y-6409450D01*
X12381237Y-7943068D02*
X12456237Y-7868068D01*
X12381237Y-7793068D01*
X12306237Y-7868068D01*
X12381237Y-7943068D01*
X13810000Y-10830000D02*
X13885000Y-10755000D01*
X13810000Y-10680000D01*
X13735000Y-10755000D01*
X13810000Y-10830000D01*
X13811278Y-9231397D02*
X13886278Y-9156397D01*
X13811278Y-9081397D01*
X13736278Y-9156397D01*
X13811278Y-9231397D01*
X13812272Y-12489793D02*
X13887272Y-12414793D01*
X13812272Y-12339793D01*
X13737272Y-12414793D01*
X13812272Y-12489793D01*
X13812722Y-14137584D02*
X13887722Y-14062584D01*
X13812722Y-13987584D01*
X13737722Y-14062584D01*
X13812722Y-14137584D01*
X13819022Y-6054450D02*
X13894022Y-5979450D01*
X13819022Y-5904450D01*
X13744022Y-5979450D01*
X13819022Y-6054450D01*
X13821237Y-7588068D02*
X13896237Y-7513068D01*
X13821237Y-7438068D01*
X13746237Y-7513068D01*
X13821237Y-7588068D01*
X14810000Y-11180000D02*
X14885000Y-11105000D01*
X14810000Y-11030000D01*
X14735000Y-11105000D01*
X14810000Y-11180000D01*
X14811278Y-9581397D02*
X14886278Y-9506397D01*
X14811278Y-9431397D01*
X14736278Y-9506397D01*
X14811278Y-9581397D01*
X14812272Y-12839793D02*
X14887272Y-12764793D01*
X14812272Y-12689793D01*
X14737272Y-12764793D01*
X14812272Y-12839793D01*
X14812722Y-14487584D02*
X14887722Y-14412584D01*
X14812722Y-14337584D01*
X14737722Y-14412584D01*
X14812722Y-14487584D01*
X14819022Y-6404450D02*
X14894022Y-6329450D01*
X14819022Y-6254450D01*
X14744022Y-6329450D01*
X14819022Y-6404450D01*
X14821237Y-7938068D02*
X14896237Y-7863068D01*
X14821237Y-7788068D01*
X14746237Y-7863068D01*
X14821237Y-7938068D01*
X16230000Y-10830000D02*
X16305000Y-10755000D01*
X16230000Y-10680000D01*
X16155000Y-10755000D01*
X16230000Y-10830000D01*
X16231278Y-9231397D02*
X16306278Y-9156397D01*
X16231278Y-9081397D01*
X16156278Y-9156397D01*
X16231278Y-9231397D01*
X16232272Y-12489793D02*
X16307272Y-12414793D01*
X16232272Y-12339793D01*
X16157272Y-12414793D01*
X16232272Y-12489793D01*
X16232722Y-14137584D02*
X16307722Y-14062584D01*
X16232722Y-13987584D01*
X16157722Y-14062584D01*
X16232722Y-14137584D01*
X16239022Y-6054450D02*
X16314022Y-5979450D01*
X16239022Y-5904450D01*
X16164022Y-5979450D01*
X16239022Y-6054450D01*
X16241237Y-7588068D02*
X16316237Y-7513068D01*
X16241237Y-7438068D01*
X16166237Y-7513068D01*
X16241237Y-7588068D01*
X17230000Y-11180000D02*
X17305000Y-11105000D01*
X17230000Y-11030000D01*
X17155000Y-11105000D01*
X17230000Y-11180000D01*
X17231278Y-9581397D02*
X17306278Y-9506397D01*
X17231278Y-9431397D01*
X17156278Y-9506397D01*
X17231278Y-9581397D01*
X17232272Y-12839793D02*
X17307272Y-12764793D01*
X17232272Y-12689793D01*
X17157272Y-12764793D01*
X17232272Y-12839793D01*
X17232722Y-14487584D02*
X17307722Y-14412584D01*
X17232722Y-14337584D01*
X17157722Y-14412584D01*
X17232722Y-14487584D01*
X17239022Y-6404450D02*
X17314022Y-6329450D01*
X17239022Y-6254450D01*
X17164022Y-6329450D01*
X17239022Y-6404450D01*
X17241237Y-7938068D02*
X17316237Y-7863068D01*
X17241237Y-7788068D01*
X17166237Y-7863068D01*
X17241237Y-7938068D01*
X18660000Y-10840000D02*
X18735000Y-10765000D01*
X18660000Y-10690000D01*
X18585000Y-10765000D01*
X18660000Y-10840000D01*
X18661278Y-9241397D02*
X18736278Y-9166397D01*
X18661278Y-9091397D01*
X18586278Y-9166397D01*
X18661278Y-9241397D01*
X18662272Y-12499792D02*
X18737272Y-12424792D01*
X18662272Y-12349792D01*
X18587272Y-12424792D01*
X18662272Y-12499792D01*
X18662722Y-14147584D02*
X18737722Y-14072584D01*
X18662722Y-13997584D01*
X18587722Y-14072584D01*
X18662722Y-14147584D01*
X18669022Y-6064450D02*
X18744022Y-5989450D01*
X18669022Y-5914450D01*
X18594022Y-5989450D01*
X18669022Y-6064450D01*
X18671237Y-7598068D02*
X18746237Y-7523068D01*
X18671237Y-7448068D01*
X18596237Y-7523068D01*
X18671237Y-7598068D01*
X19660000Y-11190000D02*
X19735000Y-11115000D01*
X19660000Y-11040000D01*
X19585000Y-11115000D01*
X19660000Y-11190000D01*
X19661278Y-9591397D02*
X19736278Y-9516397D01*
X19661278Y-9441397D01*
X19586278Y-9516397D01*
X19661278Y-9591397D01*
X19662272Y-12849792D02*
X19737272Y-12774792D01*
X19662272Y-12699792D01*
X19587272Y-12774792D01*
X19662272Y-12849792D01*
X19662722Y-14497584D02*
X19737722Y-14422584D01*
X19662722Y-14347584D01*
X19587722Y-14422584D01*
X19662722Y-14497584D01*
X19669022Y-6414450D02*
X19744022Y-6339450D01*
X19669022Y-6264450D01*
X19594022Y-6339450D01*
X19669022Y-6414450D01*
X19671237Y-7948068D02*
X19746237Y-7873068D01*
X19671237Y-7798068D01*
X19596237Y-7873068D01*
X19671237Y-7948068D01*
D15*
X4919772Y-5441700D02*
X5239772Y-5761700D01*
X5239772Y-5441700D02*
X4919772Y-5761700D01*
X5239772Y-5601700D02*
G75*
G02*
X4919772Y-5601700I-160000J0D01*
G01*
X4919772Y-5601700D02*
G75*
G02*
X5239772Y-5601700I160000J0D01*
G01*
X4919772Y-14641700D02*
X5239772Y-14961700D01*
X5239772Y-14641700D02*
X4919772Y-14961700D01*
X5239772Y-14801700D02*
G75*
G02*
X4919772Y-14801700I-160000J0D01*
G01*
X4919772Y-14801700D02*
G75*
G02*
X5239772Y-14801700I160000J0D01*
G01*
X24119772Y-5441700D02*
X24439772Y-5761700D01*
X24439772Y-5441700D02*
X24119772Y-5761700D01*
X24439772Y-5601700D02*
G75*
G02*
X24119772Y-5601700I-160000J0D01*
G01*
X24119772Y-5601700D02*
G75*
G02*
X24439772Y-5601700I160000J0D01*
G01*
X24119772Y-14641700D02*
X24439772Y-14961700D01*
X24439772Y-14641700D02*
X24119772Y-14961700D01*
X24439772Y-14801700D02*
G75*
G02*
X24119772Y-14801700I-160000J0D01*
G01*
X24119772Y-14801700D02*
G75*
G02*
X24439772Y-14801700I160000J0D01*
G01*
D11*
X4938048Y-15515684D02*
X4938048Y-15315684D01*
X4938048Y-15315684D02*
X4985667Y-15315684D01*
X4985667Y-15315684D02*
X5014239Y-15325208D01*
X5014239Y-15325208D02*
X5033287Y-15344255D01*
X5033287Y-15344255D02*
X5042810Y-15363303D01*
X5042810Y-15363303D02*
X5052334Y-15401398D01*
X5052334Y-15401398D02*
X5052334Y-15429969D01*
X5052334Y-15429969D02*
X5042810Y-15468065D01*
X5042810Y-15468065D02*
X5033287Y-15487112D01*
X5033287Y-15487112D02*
X5014239Y-15506160D01*
X5014239Y-15506160D02*
X4985667Y-15515684D01*
X4985667Y-15515684D02*
X4938048Y-15515684D01*
X5138048Y-15515684D02*
X5138048Y-15382350D01*
X5138048Y-15420446D02*
X5147572Y-15401398D01*
X5147572Y-15401398D02*
X5157096Y-15391874D01*
X5157096Y-15391874D02*
X5176144Y-15382350D01*
X5176144Y-15382350D02*
X5195191Y-15382350D01*
X5261858Y-15515684D02*
X5261858Y-15382350D01*
X5261858Y-15315684D02*
X5252334Y-15325208D01*
X5252334Y-15325208D02*
X5261858Y-15334731D01*
X5261858Y-15334731D02*
X5271382Y-15325208D01*
X5271382Y-15325208D02*
X5261858Y-15315684D01*
X5261858Y-15315684D02*
X5261858Y-15334731D01*
X5385667Y-15515684D02*
X5366620Y-15506160D01*
X5366620Y-15506160D02*
X5357096Y-15487112D01*
X5357096Y-15487112D02*
X5357096Y-15315684D01*
X5490429Y-15515684D02*
X5471382Y-15506160D01*
X5471382Y-15506160D02*
X5461858Y-15487112D01*
X5461858Y-15487112D02*
X5461858Y-15315684D01*
X5719001Y-15515684D02*
X5719001Y-15315684D01*
X5719001Y-15315684D02*
X5785667Y-15458541D01*
X5785667Y-15458541D02*
X5852334Y-15315684D01*
X5852334Y-15315684D02*
X5852334Y-15515684D01*
X6033286Y-15515684D02*
X6033286Y-15410922D01*
X6033286Y-15410922D02*
X6023763Y-15391874D01*
X6023763Y-15391874D02*
X6004715Y-15382350D01*
X6004715Y-15382350D02*
X5966620Y-15382350D01*
X5966620Y-15382350D02*
X5947572Y-15391874D01*
X6033286Y-15506160D02*
X6014239Y-15515684D01*
X6014239Y-15515684D02*
X5966620Y-15515684D01*
X5966620Y-15515684D02*
X5947572Y-15506160D01*
X5947572Y-15506160D02*
X5938048Y-15487112D01*
X5938048Y-15487112D02*
X5938048Y-15468065D01*
X5938048Y-15468065D02*
X5947572Y-15449017D01*
X5947572Y-15449017D02*
X5966620Y-15439493D01*
X5966620Y-15439493D02*
X6014239Y-15439493D01*
X6014239Y-15439493D02*
X6033286Y-15429969D01*
X6128525Y-15382350D02*
X6128525Y-15582350D01*
X6128525Y-15391874D02*
X6147572Y-15382350D01*
X6147572Y-15382350D02*
X6185667Y-15382350D01*
X6185667Y-15382350D02*
X6204715Y-15391874D01*
X6204715Y-15391874D02*
X6214239Y-15401398D01*
X6214239Y-15401398D02*
X6223763Y-15420446D01*
X6223763Y-15420446D02*
X6223763Y-15477588D01*
X6223763Y-15477588D02*
X6214239Y-15496636D01*
X6214239Y-15496636D02*
X6204715Y-15506160D01*
X6204715Y-15506160D02*
X6185667Y-15515684D01*
X6185667Y-15515684D02*
X6147572Y-15515684D01*
X6147572Y-15515684D02*
X6128525Y-15506160D01*
X6309477Y-15496636D02*
X6319001Y-15506160D01*
X6319001Y-15506160D02*
X6309477Y-15515684D01*
X6309477Y-15515684D02*
X6299953Y-15506160D01*
X6299953Y-15506160D02*
X6309477Y-15496636D01*
X6309477Y-15496636D02*
X6309477Y-15515684D01*
X6309477Y-15391874D02*
X6319001Y-15401398D01*
X6319001Y-15401398D02*
X6309477Y-15410922D01*
X6309477Y-15410922D02*
X6299953Y-15401398D01*
X6299953Y-15401398D02*
X6309477Y-15391874D01*
X6309477Y-15391874D02*
X6309477Y-15410922D01*
D12*
X4627272Y-15819200D02*
X4677272Y-15869200D01*
X4677272Y-15819200D02*
X4627272Y-15869200D01*
D11*
X4976144Y-15735684D02*
X4995191Y-15735684D01*
X4995191Y-15735684D02*
X5014239Y-15745208D01*
X5014239Y-15745208D02*
X5023763Y-15754731D01*
X5023763Y-15754731D02*
X5033287Y-15773779D01*
X5033287Y-15773779D02*
X5042810Y-15811874D01*
X5042810Y-15811874D02*
X5042810Y-15859493D01*
X5042810Y-15859493D02*
X5033287Y-15897588D01*
X5033287Y-15897588D02*
X5023763Y-15916636D01*
X5023763Y-15916636D02*
X5014239Y-15926160D01*
X5014239Y-15926160D02*
X4995191Y-15935684D01*
X4995191Y-15935684D02*
X4976144Y-15935684D01*
X4976144Y-15935684D02*
X4957096Y-15926160D01*
X4957096Y-15926160D02*
X4947572Y-15916636D01*
X4947572Y-15916636D02*
X4938048Y-15897588D01*
X4938048Y-15897588D02*
X4928525Y-15859493D01*
X4928525Y-15859493D02*
X4928525Y-15811874D01*
X4928525Y-15811874D02*
X4938048Y-15773779D01*
X4938048Y-15773779D02*
X4947572Y-15754731D01*
X4947572Y-15754731D02*
X4957096Y-15745208D01*
X4957096Y-15745208D02*
X4976144Y-15735684D01*
X5128525Y-15916636D02*
X5138048Y-15926160D01*
X5138048Y-15926160D02*
X5128525Y-15935684D01*
X5128525Y-15935684D02*
X5119001Y-15926160D01*
X5119001Y-15926160D02*
X5128525Y-15916636D01*
X5128525Y-15916636D02*
X5128525Y-15935684D01*
X5319001Y-15735684D02*
X5223763Y-15735684D01*
X5223763Y-15735684D02*
X5214239Y-15830922D01*
X5214239Y-15830922D02*
X5223763Y-15821398D01*
X5223763Y-15821398D02*
X5242810Y-15811874D01*
X5242810Y-15811874D02*
X5290429Y-15811874D01*
X5290429Y-15811874D02*
X5309477Y-15821398D01*
X5309477Y-15821398D02*
X5319001Y-15830922D01*
X5319001Y-15830922D02*
X5328525Y-15849969D01*
X5328525Y-15849969D02*
X5328525Y-15897588D01*
X5328525Y-15897588D02*
X5319001Y-15916636D01*
X5319001Y-15916636D02*
X5309477Y-15926160D01*
X5309477Y-15926160D02*
X5290429Y-15935684D01*
X5290429Y-15935684D02*
X5242810Y-15935684D01*
X5242810Y-15935684D02*
X5223763Y-15926160D01*
X5223763Y-15926160D02*
X5214239Y-15916636D01*
X5452334Y-15735684D02*
X5471382Y-15735684D01*
X5471382Y-15735684D02*
X5490429Y-15745208D01*
X5490429Y-15745208D02*
X5499953Y-15754731D01*
X5499953Y-15754731D02*
X5509477Y-15773779D01*
X5509477Y-15773779D02*
X5519001Y-15811874D01*
X5519001Y-15811874D02*
X5519001Y-15859493D01*
X5519001Y-15859493D02*
X5509477Y-15897588D01*
X5509477Y-15897588D02*
X5499953Y-15916636D01*
X5499953Y-15916636D02*
X5490429Y-15926160D01*
X5490429Y-15926160D02*
X5471382Y-15935684D01*
X5471382Y-15935684D02*
X5452334Y-15935684D01*
X5452334Y-15935684D02*
X5433287Y-15926160D01*
X5433287Y-15926160D02*
X5423763Y-15916636D01*
X5423763Y-15916636D02*
X5414239Y-15897588D01*
X5414239Y-15897588D02*
X5404715Y-15859493D01*
X5404715Y-15859493D02*
X5404715Y-15811874D01*
X5404715Y-15811874D02*
X5414239Y-15773779D01*
X5414239Y-15773779D02*
X5423763Y-15754731D01*
X5423763Y-15754731D02*
X5433287Y-15745208D01*
X5433287Y-15745208D02*
X5452334Y-15735684D01*
X5642810Y-15735684D02*
X5661858Y-15735684D01*
X5661858Y-15735684D02*
X5680906Y-15745208D01*
X5680906Y-15745208D02*
X5690429Y-15754731D01*
X5690429Y-15754731D02*
X5699953Y-15773779D01*
X5699953Y-15773779D02*
X5709477Y-15811874D01*
X5709477Y-15811874D02*
X5709477Y-15859493D01*
X5709477Y-15859493D02*
X5699953Y-15897588D01*
X5699953Y-15897588D02*
X5690429Y-15916636D01*
X5690429Y-15916636D02*
X5680906Y-15926160D01*
X5680906Y-15926160D02*
X5661858Y-15935684D01*
X5661858Y-15935684D02*
X5642810Y-15935684D01*
X5642810Y-15935684D02*
X5623763Y-15926160D01*
X5623763Y-15926160D02*
X5614239Y-15916636D01*
X5614239Y-15916636D02*
X5604715Y-15897588D01*
X5604715Y-15897588D02*
X5595191Y-15859493D01*
X5595191Y-15859493D02*
X5595191Y-15811874D01*
X5595191Y-15811874D02*
X5604715Y-15773779D01*
X5604715Y-15773779D02*
X5614239Y-15754731D01*
X5614239Y-15754731D02*
X5623763Y-15745208D01*
X5623763Y-15745208D02*
X5642810Y-15735684D01*
X5795191Y-15935684D02*
X5795191Y-15802350D01*
X5795191Y-15821398D02*
X5804715Y-15811874D01*
X5804715Y-15811874D02*
X5823763Y-15802350D01*
X5823763Y-15802350D02*
X5852334Y-15802350D01*
X5852334Y-15802350D02*
X5871382Y-15811874D01*
X5871382Y-15811874D02*
X5880906Y-15830922D01*
X5880906Y-15830922D02*
X5880906Y-15935684D01*
X5880906Y-15830922D02*
X5890429Y-15811874D01*
X5890429Y-15811874D02*
X5909477Y-15802350D01*
X5909477Y-15802350D02*
X5938048Y-15802350D01*
X5938048Y-15802350D02*
X5957096Y-15811874D01*
X5957096Y-15811874D02*
X5966620Y-15830922D01*
X5966620Y-15830922D02*
X5966620Y-15935684D01*
X6061858Y-15935684D02*
X6061858Y-15802350D01*
X6061858Y-15821398D02*
X6071382Y-15811874D01*
X6071382Y-15811874D02*
X6090429Y-15802350D01*
X6090429Y-15802350D02*
X6119001Y-15802350D01*
X6119001Y-15802350D02*
X6138048Y-15811874D01*
X6138048Y-15811874D02*
X6147572Y-15830922D01*
X6147572Y-15830922D02*
X6147572Y-15935684D01*
X6147572Y-15830922D02*
X6157096Y-15811874D01*
X6157096Y-15811874D02*
X6176144Y-15802350D01*
X6176144Y-15802350D02*
X6204715Y-15802350D01*
X6204715Y-15802350D02*
X6223763Y-15811874D01*
X6223763Y-15811874D02*
X6233287Y-15830922D01*
X6233287Y-15830922D02*
X6233287Y-15935684D01*
X6623763Y-15726160D02*
X6452334Y-15983303D01*
X6880906Y-15735684D02*
X6899953Y-15735684D01*
X6899953Y-15735684D02*
X6919001Y-15745208D01*
X6919001Y-15745208D02*
X6928525Y-15754731D01*
X6928525Y-15754731D02*
X6938049Y-15773779D01*
X6938049Y-15773779D02*
X6947572Y-15811874D01*
X6947572Y-15811874D02*
X6947572Y-15859493D01*
X6947572Y-15859493D02*
X6938049Y-15897588D01*
X6938049Y-15897588D02*
X6928525Y-15916636D01*
X6928525Y-15916636D02*
X6919001Y-15926160D01*
X6919001Y-15926160D02*
X6899953Y-15935684D01*
X6899953Y-15935684D02*
X6880906Y-15935684D01*
X6880906Y-15935684D02*
X6861858Y-15926160D01*
X6861858Y-15926160D02*
X6852334Y-15916636D01*
X6852334Y-15916636D02*
X6842810Y-15897588D01*
X6842810Y-15897588D02*
X6833287Y-15859493D01*
X6833287Y-15859493D02*
X6833287Y-15811874D01*
X6833287Y-15811874D02*
X6842810Y-15773779D01*
X6842810Y-15773779D02*
X6852334Y-15754731D01*
X6852334Y-15754731D02*
X6861858Y-15745208D01*
X6861858Y-15745208D02*
X6880906Y-15735684D01*
X7033287Y-15916636D02*
X7042810Y-15926160D01*
X7042810Y-15926160D02*
X7033287Y-15935684D01*
X7033287Y-15935684D02*
X7023763Y-15926160D01*
X7023763Y-15926160D02*
X7033287Y-15916636D01*
X7033287Y-15916636D02*
X7033287Y-15935684D01*
X7166620Y-15735684D02*
X7185668Y-15735684D01*
X7185668Y-15735684D02*
X7204715Y-15745208D01*
X7204715Y-15745208D02*
X7214239Y-15754731D01*
X7214239Y-15754731D02*
X7223763Y-15773779D01*
X7223763Y-15773779D02*
X7233287Y-15811874D01*
X7233287Y-15811874D02*
X7233287Y-15859493D01*
X7233287Y-15859493D02*
X7223763Y-15897588D01*
X7223763Y-15897588D02*
X7214239Y-15916636D01*
X7214239Y-15916636D02*
X7204715Y-15926160D01*
X7204715Y-15926160D02*
X7185668Y-15935684D01*
X7185668Y-15935684D02*
X7166620Y-15935684D01*
X7166620Y-15935684D02*
X7147572Y-15926160D01*
X7147572Y-15926160D02*
X7138049Y-15916636D01*
X7138049Y-15916636D02*
X7128525Y-15897588D01*
X7128525Y-15897588D02*
X7119001Y-15859493D01*
X7119001Y-15859493D02*
X7119001Y-15811874D01*
X7119001Y-15811874D02*
X7128525Y-15773779D01*
X7128525Y-15773779D02*
X7138049Y-15754731D01*
X7138049Y-15754731D02*
X7147572Y-15745208D01*
X7147572Y-15745208D02*
X7166620Y-15735684D01*
X7423763Y-15935684D02*
X7309477Y-15935684D01*
X7366620Y-15935684D02*
X7366620Y-15735684D01*
X7366620Y-15735684D02*
X7347572Y-15764255D01*
X7347572Y-15764255D02*
X7328525Y-15783303D01*
X7328525Y-15783303D02*
X7309477Y-15792827D01*
X7519001Y-15935684D02*
X7557096Y-15935684D01*
X7557096Y-15935684D02*
X7576144Y-15926160D01*
X7576144Y-15926160D02*
X7585668Y-15916636D01*
X7585668Y-15916636D02*
X7604715Y-15888065D01*
X7604715Y-15888065D02*
X7614239Y-15849969D01*
X7614239Y-15849969D02*
X7614239Y-15773779D01*
X7614239Y-15773779D02*
X7604715Y-15754731D01*
X7604715Y-15754731D02*
X7595191Y-15745208D01*
X7595191Y-15745208D02*
X7576144Y-15735684D01*
X7576144Y-15735684D02*
X7538049Y-15735684D01*
X7538049Y-15735684D02*
X7519001Y-15745208D01*
X7519001Y-15745208D02*
X7509477Y-15754731D01*
X7509477Y-15754731D02*
X7499953Y-15773779D01*
X7499953Y-15773779D02*
X7499953Y-15821398D01*
X7499953Y-15821398D02*
X7509477Y-15840446D01*
X7509477Y-15840446D02*
X7519001Y-15849969D01*
X7519001Y-15849969D02*
X7538049Y-15859493D01*
X7538049Y-15859493D02*
X7576144Y-15859493D01*
X7576144Y-15859493D02*
X7595191Y-15849969D01*
X7595191Y-15849969D02*
X7604715Y-15840446D01*
X7604715Y-15840446D02*
X7614239Y-15821398D01*
X7680906Y-15735684D02*
X7814239Y-15735684D01*
X7814239Y-15735684D02*
X7728525Y-15935684D01*
X7880906Y-15735684D02*
X7880906Y-15773779D01*
X7957096Y-15735684D02*
X7957096Y-15773779D01*
X8252334Y-16011874D02*
X8242811Y-16002350D01*
X8242811Y-16002350D02*
X8223763Y-15973779D01*
X8223763Y-15973779D02*
X8214239Y-15954731D01*
X8214239Y-15954731D02*
X8204715Y-15926160D01*
X8204715Y-15926160D02*
X8195192Y-15878541D01*
X8195192Y-15878541D02*
X8195192Y-15840446D01*
X8195192Y-15840446D02*
X8204715Y-15792827D01*
X8204715Y-15792827D02*
X8214239Y-15764255D01*
X8214239Y-15764255D02*
X8223763Y-15745208D01*
X8223763Y-15745208D02*
X8242811Y-15716636D01*
X8242811Y-15716636D02*
X8252334Y-15707112D01*
X8319001Y-15754731D02*
X8328525Y-15745208D01*
X8328525Y-15745208D02*
X8347572Y-15735684D01*
X8347572Y-15735684D02*
X8395192Y-15735684D01*
X8395192Y-15735684D02*
X8414239Y-15745208D01*
X8414239Y-15745208D02*
X8423763Y-15754731D01*
X8423763Y-15754731D02*
X8433287Y-15773779D01*
X8433287Y-15773779D02*
X8433287Y-15792827D01*
X8433287Y-15792827D02*
X8423763Y-15821398D01*
X8423763Y-15821398D02*
X8309477Y-15935684D01*
X8309477Y-15935684D02*
X8433287Y-15935684D01*
X8557096Y-15735684D02*
X8576144Y-15735684D01*
X8576144Y-15735684D02*
X8595192Y-15745208D01*
X8595192Y-15745208D02*
X8604715Y-15754731D01*
X8604715Y-15754731D02*
X8614239Y-15773779D01*
X8614239Y-15773779D02*
X8623763Y-15811874D01*
X8623763Y-15811874D02*
X8623763Y-15859493D01*
X8623763Y-15859493D02*
X8614239Y-15897588D01*
X8614239Y-15897588D02*
X8604715Y-15916636D01*
X8604715Y-15916636D02*
X8595192Y-15926160D01*
X8595192Y-15926160D02*
X8576144Y-15935684D01*
X8576144Y-15935684D02*
X8557096Y-15935684D01*
X8557096Y-15935684D02*
X8538049Y-15926160D01*
X8538049Y-15926160D02*
X8528525Y-15916636D01*
X8528525Y-15916636D02*
X8519001Y-15897588D01*
X8519001Y-15897588D02*
X8509477Y-15859493D01*
X8509477Y-15859493D02*
X8509477Y-15811874D01*
X8509477Y-15811874D02*
X8519001Y-15773779D01*
X8519001Y-15773779D02*
X8528525Y-15754731D01*
X8528525Y-15754731D02*
X8538049Y-15745208D01*
X8538049Y-15745208D02*
X8557096Y-15735684D01*
X8814239Y-15935684D02*
X8699954Y-15935684D01*
X8757096Y-15935684D02*
X8757096Y-15735684D01*
X8757096Y-15735684D02*
X8738049Y-15764255D01*
X8738049Y-15764255D02*
X8719001Y-15783303D01*
X8719001Y-15783303D02*
X8699954Y-15792827D01*
X9052335Y-15935684D02*
X9052335Y-15735684D01*
X9138049Y-15935684D02*
X9138049Y-15830922D01*
X9138049Y-15830922D02*
X9128525Y-15811874D01*
X9128525Y-15811874D02*
X9109477Y-15802350D01*
X9109477Y-15802350D02*
X9080906Y-15802350D01*
X9080906Y-15802350D02*
X9061858Y-15811874D01*
X9061858Y-15811874D02*
X9052335Y-15821398D01*
X9261858Y-15935684D02*
X9242811Y-15926160D01*
X9242811Y-15926160D02*
X9233287Y-15916636D01*
X9233287Y-15916636D02*
X9223763Y-15897588D01*
X9223763Y-15897588D02*
X9223763Y-15840446D01*
X9223763Y-15840446D02*
X9233287Y-15821398D01*
X9233287Y-15821398D02*
X9242811Y-15811874D01*
X9242811Y-15811874D02*
X9261858Y-15802350D01*
X9261858Y-15802350D02*
X9290430Y-15802350D01*
X9290430Y-15802350D02*
X9309477Y-15811874D01*
X9309477Y-15811874D02*
X9319001Y-15821398D01*
X9319001Y-15821398D02*
X9328525Y-15840446D01*
X9328525Y-15840446D02*
X9328525Y-15897588D01*
X9328525Y-15897588D02*
X9319001Y-15916636D01*
X9319001Y-15916636D02*
X9309477Y-15926160D01*
X9309477Y-15926160D02*
X9290430Y-15935684D01*
X9290430Y-15935684D02*
X9261858Y-15935684D01*
X9442811Y-15935684D02*
X9423763Y-15926160D01*
X9423763Y-15926160D02*
X9414239Y-15907112D01*
X9414239Y-15907112D02*
X9414239Y-15735684D01*
X9595192Y-15926160D02*
X9576144Y-15935684D01*
X9576144Y-15935684D02*
X9538049Y-15935684D01*
X9538049Y-15935684D02*
X9519001Y-15926160D01*
X9519001Y-15926160D02*
X9509477Y-15907112D01*
X9509477Y-15907112D02*
X9509477Y-15830922D01*
X9509477Y-15830922D02*
X9519001Y-15811874D01*
X9519001Y-15811874D02*
X9538049Y-15802350D01*
X9538049Y-15802350D02*
X9576144Y-15802350D01*
X9576144Y-15802350D02*
X9595192Y-15811874D01*
X9595192Y-15811874D02*
X9604716Y-15830922D01*
X9604716Y-15830922D02*
X9604716Y-15849969D01*
X9604716Y-15849969D02*
X9509477Y-15869017D01*
X9680906Y-15926160D02*
X9699954Y-15935684D01*
X9699954Y-15935684D02*
X9738049Y-15935684D01*
X9738049Y-15935684D02*
X9757097Y-15926160D01*
X9757097Y-15926160D02*
X9766620Y-15907112D01*
X9766620Y-15907112D02*
X9766620Y-15897588D01*
X9766620Y-15897588D02*
X9757097Y-15878541D01*
X9757097Y-15878541D02*
X9738049Y-15869017D01*
X9738049Y-15869017D02*
X9709477Y-15869017D01*
X9709477Y-15869017D02*
X9690430Y-15859493D01*
X9690430Y-15859493D02*
X9680906Y-15840446D01*
X9680906Y-15840446D02*
X9680906Y-15830922D01*
X9680906Y-15830922D02*
X9690430Y-15811874D01*
X9690430Y-15811874D02*
X9709477Y-15802350D01*
X9709477Y-15802350D02*
X9738049Y-15802350D01*
X9738049Y-15802350D02*
X9757097Y-15811874D01*
X9833287Y-16011874D02*
X9842811Y-16002350D01*
X9842811Y-16002350D02*
X9861858Y-15973779D01*
X9861858Y-15973779D02*
X9871382Y-15954731D01*
X9871382Y-15954731D02*
X9880906Y-15926160D01*
X9880906Y-15926160D02*
X9890430Y-15878541D01*
X9890430Y-15878541D02*
X9890430Y-15840446D01*
X9890430Y-15840446D02*
X9880906Y-15792827D01*
X9880906Y-15792827D02*
X9871382Y-15764255D01*
X9871382Y-15764255D02*
X9861858Y-15745208D01*
X9861858Y-15745208D02*
X9842811Y-15716636D01*
X9842811Y-15716636D02*
X9833287Y-15707112D01*
D12*
X4677272Y-16108200D02*
G75*
G02*
X4627272Y-16108200I-25000J0D01*
G01*
X4627272Y-16108200D02*
G75*
G02*
X4677272Y-16108200I25000J0D01*
G01*
D11*
X4976144Y-15999684D02*
X4995191Y-15999684D01*
X4995191Y-15999684D02*
X5014239Y-16009208D01*
X5014239Y-16009208D02*
X5023763Y-16018731D01*
X5023763Y-16018731D02*
X5033287Y-16037779D01*
X5033287Y-16037779D02*
X5042810Y-16075874D01*
X5042810Y-16075874D02*
X5042810Y-16123493D01*
X5042810Y-16123493D02*
X5033287Y-16161588D01*
X5033287Y-16161588D02*
X5023763Y-16180636D01*
X5023763Y-16180636D02*
X5014239Y-16190160D01*
X5014239Y-16190160D02*
X4995191Y-16199684D01*
X4995191Y-16199684D02*
X4976144Y-16199684D01*
X4976144Y-16199684D02*
X4957096Y-16190160D01*
X4957096Y-16190160D02*
X4947572Y-16180636D01*
X4947572Y-16180636D02*
X4938048Y-16161588D01*
X4938048Y-16161588D02*
X4928525Y-16123493D01*
X4928525Y-16123493D02*
X4928525Y-16075874D01*
X4928525Y-16075874D02*
X4938048Y-16037779D01*
X4938048Y-16037779D02*
X4947572Y-16018731D01*
X4947572Y-16018731D02*
X4957096Y-16009208D01*
X4957096Y-16009208D02*
X4976144Y-15999684D01*
X5128525Y-16180636D02*
X5138048Y-16190160D01*
X5138048Y-16190160D02*
X5128525Y-16199684D01*
X5128525Y-16199684D02*
X5119001Y-16190160D01*
X5119001Y-16190160D02*
X5128525Y-16180636D01*
X5128525Y-16180636D02*
X5128525Y-16199684D01*
X5319001Y-15999684D02*
X5223763Y-15999684D01*
X5223763Y-15999684D02*
X5214239Y-16094922D01*
X5214239Y-16094922D02*
X5223763Y-16085398D01*
X5223763Y-16085398D02*
X5242810Y-16075874D01*
X5242810Y-16075874D02*
X5290429Y-16075874D01*
X5290429Y-16075874D02*
X5309477Y-16085398D01*
X5309477Y-16085398D02*
X5319001Y-16094922D01*
X5319001Y-16094922D02*
X5328525Y-16113969D01*
X5328525Y-16113969D02*
X5328525Y-16161588D01*
X5328525Y-16161588D02*
X5319001Y-16180636D01*
X5319001Y-16180636D02*
X5309477Y-16190160D01*
X5309477Y-16190160D02*
X5290429Y-16199684D01*
X5290429Y-16199684D02*
X5242810Y-16199684D01*
X5242810Y-16199684D02*
X5223763Y-16190160D01*
X5223763Y-16190160D02*
X5214239Y-16180636D01*
X5452334Y-15999684D02*
X5471382Y-15999684D01*
X5471382Y-15999684D02*
X5490429Y-16009208D01*
X5490429Y-16009208D02*
X5499953Y-16018731D01*
X5499953Y-16018731D02*
X5509477Y-16037779D01*
X5509477Y-16037779D02*
X5519001Y-16075874D01*
X5519001Y-16075874D02*
X5519001Y-16123493D01*
X5519001Y-16123493D02*
X5509477Y-16161588D01*
X5509477Y-16161588D02*
X5499953Y-16180636D01*
X5499953Y-16180636D02*
X5490429Y-16190160D01*
X5490429Y-16190160D02*
X5471382Y-16199684D01*
X5471382Y-16199684D02*
X5452334Y-16199684D01*
X5452334Y-16199684D02*
X5433287Y-16190160D01*
X5433287Y-16190160D02*
X5423763Y-16180636D01*
X5423763Y-16180636D02*
X5414239Y-16161588D01*
X5414239Y-16161588D02*
X5404715Y-16123493D01*
X5404715Y-16123493D02*
X5404715Y-16075874D01*
X5404715Y-16075874D02*
X5414239Y-16037779D01*
X5414239Y-16037779D02*
X5423763Y-16018731D01*
X5423763Y-16018731D02*
X5433287Y-16009208D01*
X5433287Y-16009208D02*
X5452334Y-15999684D01*
X5642810Y-15999684D02*
X5661858Y-15999684D01*
X5661858Y-15999684D02*
X5680906Y-16009208D01*
X5680906Y-16009208D02*
X5690429Y-16018731D01*
X5690429Y-16018731D02*
X5699953Y-16037779D01*
X5699953Y-16037779D02*
X5709477Y-16075874D01*
X5709477Y-16075874D02*
X5709477Y-16123493D01*
X5709477Y-16123493D02*
X5699953Y-16161588D01*
X5699953Y-16161588D02*
X5690429Y-16180636D01*
X5690429Y-16180636D02*
X5680906Y-16190160D01*
X5680906Y-16190160D02*
X5661858Y-16199684D01*
X5661858Y-16199684D02*
X5642810Y-16199684D01*
X5642810Y-16199684D02*
X5623763Y-16190160D01*
X5623763Y-16190160D02*
X5614239Y-16180636D01*
X5614239Y-16180636D02*
X5604715Y-16161588D01*
X5604715Y-16161588D02*
X5595191Y-16123493D01*
X5595191Y-16123493D02*
X5595191Y-16075874D01*
X5595191Y-16075874D02*
X5604715Y-16037779D01*
X5604715Y-16037779D02*
X5614239Y-16018731D01*
X5614239Y-16018731D02*
X5623763Y-16009208D01*
X5623763Y-16009208D02*
X5642810Y-15999684D01*
X5795191Y-16199684D02*
X5795191Y-16066350D01*
X5795191Y-16085398D02*
X5804715Y-16075874D01*
X5804715Y-16075874D02*
X5823763Y-16066350D01*
X5823763Y-16066350D02*
X5852334Y-16066350D01*
X5852334Y-16066350D02*
X5871382Y-16075874D01*
X5871382Y-16075874D02*
X5880906Y-16094922D01*
X5880906Y-16094922D02*
X5880906Y-16199684D01*
X5880906Y-16094922D02*
X5890429Y-16075874D01*
X5890429Y-16075874D02*
X5909477Y-16066350D01*
X5909477Y-16066350D02*
X5938048Y-16066350D01*
X5938048Y-16066350D02*
X5957096Y-16075874D01*
X5957096Y-16075874D02*
X5966620Y-16094922D01*
X5966620Y-16094922D02*
X5966620Y-16199684D01*
X6061858Y-16199684D02*
X6061858Y-16066350D01*
X6061858Y-16085398D02*
X6071382Y-16075874D01*
X6071382Y-16075874D02*
X6090429Y-16066350D01*
X6090429Y-16066350D02*
X6119001Y-16066350D01*
X6119001Y-16066350D02*
X6138048Y-16075874D01*
X6138048Y-16075874D02*
X6147572Y-16094922D01*
X6147572Y-16094922D02*
X6147572Y-16199684D01*
X6147572Y-16094922D02*
X6157096Y-16075874D01*
X6157096Y-16075874D02*
X6176144Y-16066350D01*
X6176144Y-16066350D02*
X6204715Y-16066350D01*
X6204715Y-16066350D02*
X6223763Y-16075874D01*
X6223763Y-16075874D02*
X6233287Y-16094922D01*
X6233287Y-16094922D02*
X6233287Y-16199684D01*
X6623763Y-15990160D02*
X6452334Y-16247303D01*
X6880906Y-15999684D02*
X6899953Y-15999684D01*
X6899953Y-15999684D02*
X6919001Y-16009208D01*
X6919001Y-16009208D02*
X6928525Y-16018731D01*
X6928525Y-16018731D02*
X6938049Y-16037779D01*
X6938049Y-16037779D02*
X6947572Y-16075874D01*
X6947572Y-16075874D02*
X6947572Y-16123493D01*
X6947572Y-16123493D02*
X6938049Y-16161588D01*
X6938049Y-16161588D02*
X6928525Y-16180636D01*
X6928525Y-16180636D02*
X6919001Y-16190160D01*
X6919001Y-16190160D02*
X6899953Y-16199684D01*
X6899953Y-16199684D02*
X6880906Y-16199684D01*
X6880906Y-16199684D02*
X6861858Y-16190160D01*
X6861858Y-16190160D02*
X6852334Y-16180636D01*
X6852334Y-16180636D02*
X6842810Y-16161588D01*
X6842810Y-16161588D02*
X6833287Y-16123493D01*
X6833287Y-16123493D02*
X6833287Y-16075874D01*
X6833287Y-16075874D02*
X6842810Y-16037779D01*
X6842810Y-16037779D02*
X6852334Y-16018731D01*
X6852334Y-16018731D02*
X6861858Y-16009208D01*
X6861858Y-16009208D02*
X6880906Y-15999684D01*
X7033287Y-16180636D02*
X7042810Y-16190160D01*
X7042810Y-16190160D02*
X7033287Y-16199684D01*
X7033287Y-16199684D02*
X7023763Y-16190160D01*
X7023763Y-16190160D02*
X7033287Y-16180636D01*
X7033287Y-16180636D02*
X7033287Y-16199684D01*
X7166620Y-15999684D02*
X7185668Y-15999684D01*
X7185668Y-15999684D02*
X7204715Y-16009208D01*
X7204715Y-16009208D02*
X7214239Y-16018731D01*
X7214239Y-16018731D02*
X7223763Y-16037779D01*
X7223763Y-16037779D02*
X7233287Y-16075874D01*
X7233287Y-16075874D02*
X7233287Y-16123493D01*
X7233287Y-16123493D02*
X7223763Y-16161588D01*
X7223763Y-16161588D02*
X7214239Y-16180636D01*
X7214239Y-16180636D02*
X7204715Y-16190160D01*
X7204715Y-16190160D02*
X7185668Y-16199684D01*
X7185668Y-16199684D02*
X7166620Y-16199684D01*
X7166620Y-16199684D02*
X7147572Y-16190160D01*
X7147572Y-16190160D02*
X7138049Y-16180636D01*
X7138049Y-16180636D02*
X7128525Y-16161588D01*
X7128525Y-16161588D02*
X7119001Y-16123493D01*
X7119001Y-16123493D02*
X7119001Y-16075874D01*
X7119001Y-16075874D02*
X7128525Y-16037779D01*
X7128525Y-16037779D02*
X7138049Y-16018731D01*
X7138049Y-16018731D02*
X7147572Y-16009208D01*
X7147572Y-16009208D02*
X7166620Y-15999684D01*
X7423763Y-16199684D02*
X7309477Y-16199684D01*
X7366620Y-16199684D02*
X7366620Y-15999684D01*
X7366620Y-15999684D02*
X7347572Y-16028255D01*
X7347572Y-16028255D02*
X7328525Y-16047303D01*
X7328525Y-16047303D02*
X7309477Y-16056827D01*
X7519001Y-16199684D02*
X7557096Y-16199684D01*
X7557096Y-16199684D02*
X7576144Y-16190160D01*
X7576144Y-16190160D02*
X7585668Y-16180636D01*
X7585668Y-16180636D02*
X7604715Y-16152065D01*
X7604715Y-16152065D02*
X7614239Y-16113969D01*
X7614239Y-16113969D02*
X7614239Y-16037779D01*
X7614239Y-16037779D02*
X7604715Y-16018731D01*
X7604715Y-16018731D02*
X7595191Y-16009208D01*
X7595191Y-16009208D02*
X7576144Y-15999684D01*
X7576144Y-15999684D02*
X7538049Y-15999684D01*
X7538049Y-15999684D02*
X7519001Y-16009208D01*
X7519001Y-16009208D02*
X7509477Y-16018731D01*
X7509477Y-16018731D02*
X7499953Y-16037779D01*
X7499953Y-16037779D02*
X7499953Y-16085398D01*
X7499953Y-16085398D02*
X7509477Y-16104446D01*
X7509477Y-16104446D02*
X7519001Y-16113969D01*
X7519001Y-16113969D02*
X7538049Y-16123493D01*
X7538049Y-16123493D02*
X7576144Y-16123493D01*
X7576144Y-16123493D02*
X7595191Y-16113969D01*
X7595191Y-16113969D02*
X7604715Y-16104446D01*
X7604715Y-16104446D02*
X7614239Y-16085398D01*
X7680906Y-15999684D02*
X7814239Y-15999684D01*
X7814239Y-15999684D02*
X7728525Y-16199684D01*
X7880906Y-15999684D02*
X7880906Y-16037779D01*
X7957096Y-15999684D02*
X7957096Y-16037779D01*
X8252334Y-16275874D02*
X8242811Y-16266350D01*
X8242811Y-16266350D02*
X8223763Y-16237779D01*
X8223763Y-16237779D02*
X8214239Y-16218731D01*
X8214239Y-16218731D02*
X8204715Y-16190160D01*
X8204715Y-16190160D02*
X8195192Y-16142541D01*
X8195192Y-16142541D02*
X8195192Y-16104446D01*
X8195192Y-16104446D02*
X8204715Y-16056827D01*
X8204715Y-16056827D02*
X8214239Y-16028255D01*
X8214239Y-16028255D02*
X8223763Y-16009208D01*
X8223763Y-16009208D02*
X8242811Y-15980636D01*
X8242811Y-15980636D02*
X8252334Y-15971112D01*
X8309477Y-15999684D02*
X8433287Y-15999684D01*
X8433287Y-15999684D02*
X8366620Y-16075874D01*
X8366620Y-16075874D02*
X8395192Y-16075874D01*
X8395192Y-16075874D02*
X8414239Y-16085398D01*
X8414239Y-16085398D02*
X8423763Y-16094922D01*
X8423763Y-16094922D02*
X8433287Y-16113969D01*
X8433287Y-16113969D02*
X8433287Y-16161588D01*
X8433287Y-16161588D02*
X8423763Y-16180636D01*
X8423763Y-16180636D02*
X8414239Y-16190160D01*
X8414239Y-16190160D02*
X8395192Y-16199684D01*
X8395192Y-16199684D02*
X8338049Y-16199684D01*
X8338049Y-16199684D02*
X8319001Y-16190160D01*
X8319001Y-16190160D02*
X8309477Y-16180636D01*
X8509477Y-16018731D02*
X8519001Y-16009208D01*
X8519001Y-16009208D02*
X8538049Y-15999684D01*
X8538049Y-15999684D02*
X8585668Y-15999684D01*
X8585668Y-15999684D02*
X8604715Y-16009208D01*
X8604715Y-16009208D02*
X8614239Y-16018731D01*
X8614239Y-16018731D02*
X8623763Y-16037779D01*
X8623763Y-16037779D02*
X8623763Y-16056827D01*
X8623763Y-16056827D02*
X8614239Y-16085398D01*
X8614239Y-16085398D02*
X8499954Y-16199684D01*
X8499954Y-16199684D02*
X8623763Y-16199684D01*
X8861858Y-16199684D02*
X8861858Y-15999684D01*
X8947573Y-16199684D02*
X8947573Y-16094922D01*
X8947573Y-16094922D02*
X8938049Y-16075874D01*
X8938049Y-16075874D02*
X8919001Y-16066350D01*
X8919001Y-16066350D02*
X8890430Y-16066350D01*
X8890430Y-16066350D02*
X8871382Y-16075874D01*
X8871382Y-16075874D02*
X8861858Y-16085398D01*
X9071382Y-16199684D02*
X9052335Y-16190160D01*
X9052335Y-16190160D02*
X9042811Y-16180636D01*
X9042811Y-16180636D02*
X9033287Y-16161588D01*
X9033287Y-16161588D02*
X9033287Y-16104446D01*
X9033287Y-16104446D02*
X9042811Y-16085398D01*
X9042811Y-16085398D02*
X9052335Y-16075874D01*
X9052335Y-16075874D02*
X9071382Y-16066350D01*
X9071382Y-16066350D02*
X9099954Y-16066350D01*
X9099954Y-16066350D02*
X9119001Y-16075874D01*
X9119001Y-16075874D02*
X9128525Y-16085398D01*
X9128525Y-16085398D02*
X9138049Y-16104446D01*
X9138049Y-16104446D02*
X9138049Y-16161588D01*
X9138049Y-16161588D02*
X9128525Y-16180636D01*
X9128525Y-16180636D02*
X9119001Y-16190160D01*
X9119001Y-16190160D02*
X9099954Y-16199684D01*
X9099954Y-16199684D02*
X9071382Y-16199684D01*
X9252335Y-16199684D02*
X9233287Y-16190160D01*
X9233287Y-16190160D02*
X9223763Y-16171112D01*
X9223763Y-16171112D02*
X9223763Y-15999684D01*
X9404716Y-16190160D02*
X9385668Y-16199684D01*
X9385668Y-16199684D02*
X9347573Y-16199684D01*
X9347573Y-16199684D02*
X9328525Y-16190160D01*
X9328525Y-16190160D02*
X9319001Y-16171112D01*
X9319001Y-16171112D02*
X9319001Y-16094922D01*
X9319001Y-16094922D02*
X9328525Y-16075874D01*
X9328525Y-16075874D02*
X9347573Y-16066350D01*
X9347573Y-16066350D02*
X9385668Y-16066350D01*
X9385668Y-16066350D02*
X9404716Y-16075874D01*
X9404716Y-16075874D02*
X9414239Y-16094922D01*
X9414239Y-16094922D02*
X9414239Y-16113969D01*
X9414239Y-16113969D02*
X9319001Y-16133017D01*
X9490430Y-16190160D02*
X9509477Y-16199684D01*
X9509477Y-16199684D02*
X9547573Y-16199684D01*
X9547573Y-16199684D02*
X9566620Y-16190160D01*
X9566620Y-16190160D02*
X9576144Y-16171112D01*
X9576144Y-16171112D02*
X9576144Y-16161588D01*
X9576144Y-16161588D02*
X9566620Y-16142541D01*
X9566620Y-16142541D02*
X9547573Y-16133017D01*
X9547573Y-16133017D02*
X9519001Y-16133017D01*
X9519001Y-16133017D02*
X9499954Y-16123493D01*
X9499954Y-16123493D02*
X9490430Y-16104446D01*
X9490430Y-16104446D02*
X9490430Y-16094922D01*
X9490430Y-16094922D02*
X9499954Y-16075874D01*
X9499954Y-16075874D02*
X9519001Y-16066350D01*
X9519001Y-16066350D02*
X9547573Y-16066350D01*
X9547573Y-16066350D02*
X9566620Y-16075874D01*
X9642811Y-16275874D02*
X9652335Y-16266350D01*
X9652335Y-16266350D02*
X9671382Y-16237779D01*
X9671382Y-16237779D02*
X9680906Y-16218731D01*
X9680906Y-16218731D02*
X9690430Y-16190160D01*
X9690430Y-16190160D02*
X9699954Y-16142541D01*
X9699954Y-16142541D02*
X9699954Y-16104446D01*
X9699954Y-16104446D02*
X9690430Y-16056827D01*
X9690430Y-16056827D02*
X9680906Y-16028255D01*
X9680906Y-16028255D02*
X9671382Y-16009208D01*
X9671382Y-16009208D02*
X9652335Y-15980636D01*
X9652335Y-15980636D02*
X9642811Y-15971112D01*
D12*
X4627272Y-16322200D02*
X4627272Y-16422200D01*
X4577272Y-16372200D02*
X4677272Y-16372200D01*
D11*
X5042810Y-16463684D02*
X4928525Y-16463684D01*
X4985667Y-16463684D02*
X4985667Y-16263684D01*
X4985667Y-16263684D02*
X4966620Y-16292255D01*
X4966620Y-16292255D02*
X4947572Y-16311303D01*
X4947572Y-16311303D02*
X4928525Y-16320827D01*
X5128525Y-16444636D02*
X5138048Y-16454160D01*
X5138048Y-16454160D02*
X5128525Y-16463684D01*
X5128525Y-16463684D02*
X5119001Y-16454160D01*
X5119001Y-16454160D02*
X5128525Y-16444636D01*
X5128525Y-16444636D02*
X5128525Y-16463684D01*
X5261858Y-16263684D02*
X5280906Y-16263684D01*
X5280906Y-16263684D02*
X5299953Y-16273208D01*
X5299953Y-16273208D02*
X5309477Y-16282731D01*
X5309477Y-16282731D02*
X5319001Y-16301779D01*
X5319001Y-16301779D02*
X5328525Y-16339874D01*
X5328525Y-16339874D02*
X5328525Y-16387493D01*
X5328525Y-16387493D02*
X5319001Y-16425588D01*
X5319001Y-16425588D02*
X5309477Y-16444636D01*
X5309477Y-16444636D02*
X5299953Y-16454160D01*
X5299953Y-16454160D02*
X5280906Y-16463684D01*
X5280906Y-16463684D02*
X5261858Y-16463684D01*
X5261858Y-16463684D02*
X5242810Y-16454160D01*
X5242810Y-16454160D02*
X5233287Y-16444636D01*
X5233287Y-16444636D02*
X5223763Y-16425588D01*
X5223763Y-16425588D02*
X5214239Y-16387493D01*
X5214239Y-16387493D02*
X5214239Y-16339874D01*
X5214239Y-16339874D02*
X5223763Y-16301779D01*
X5223763Y-16301779D02*
X5233287Y-16282731D01*
X5233287Y-16282731D02*
X5242810Y-16273208D01*
X5242810Y-16273208D02*
X5261858Y-16263684D01*
X5452334Y-16263684D02*
X5471382Y-16263684D01*
X5471382Y-16263684D02*
X5490429Y-16273208D01*
X5490429Y-16273208D02*
X5499953Y-16282731D01*
X5499953Y-16282731D02*
X5509477Y-16301779D01*
X5509477Y-16301779D02*
X5519001Y-16339874D01*
X5519001Y-16339874D02*
X5519001Y-16387493D01*
X5519001Y-16387493D02*
X5509477Y-16425588D01*
X5509477Y-16425588D02*
X5499953Y-16444636D01*
X5499953Y-16444636D02*
X5490429Y-16454160D01*
X5490429Y-16454160D02*
X5471382Y-16463684D01*
X5471382Y-16463684D02*
X5452334Y-16463684D01*
X5452334Y-16463684D02*
X5433287Y-16454160D01*
X5433287Y-16454160D02*
X5423763Y-16444636D01*
X5423763Y-16444636D02*
X5414239Y-16425588D01*
X5414239Y-16425588D02*
X5404715Y-16387493D01*
X5404715Y-16387493D02*
X5404715Y-16339874D01*
X5404715Y-16339874D02*
X5414239Y-16301779D01*
X5414239Y-16301779D02*
X5423763Y-16282731D01*
X5423763Y-16282731D02*
X5433287Y-16273208D01*
X5433287Y-16273208D02*
X5452334Y-16263684D01*
X5642810Y-16263684D02*
X5661858Y-16263684D01*
X5661858Y-16263684D02*
X5680906Y-16273208D01*
X5680906Y-16273208D02*
X5690429Y-16282731D01*
X5690429Y-16282731D02*
X5699953Y-16301779D01*
X5699953Y-16301779D02*
X5709477Y-16339874D01*
X5709477Y-16339874D02*
X5709477Y-16387493D01*
X5709477Y-16387493D02*
X5699953Y-16425588D01*
X5699953Y-16425588D02*
X5690429Y-16444636D01*
X5690429Y-16444636D02*
X5680906Y-16454160D01*
X5680906Y-16454160D02*
X5661858Y-16463684D01*
X5661858Y-16463684D02*
X5642810Y-16463684D01*
X5642810Y-16463684D02*
X5623763Y-16454160D01*
X5623763Y-16454160D02*
X5614239Y-16444636D01*
X5614239Y-16444636D02*
X5604715Y-16425588D01*
X5604715Y-16425588D02*
X5595191Y-16387493D01*
X5595191Y-16387493D02*
X5595191Y-16339874D01*
X5595191Y-16339874D02*
X5604715Y-16301779D01*
X5604715Y-16301779D02*
X5614239Y-16282731D01*
X5614239Y-16282731D02*
X5623763Y-16273208D01*
X5623763Y-16273208D02*
X5642810Y-16263684D01*
X5795191Y-16463684D02*
X5795191Y-16330350D01*
X5795191Y-16349398D02*
X5804715Y-16339874D01*
X5804715Y-16339874D02*
X5823763Y-16330350D01*
X5823763Y-16330350D02*
X5852334Y-16330350D01*
X5852334Y-16330350D02*
X5871382Y-16339874D01*
X5871382Y-16339874D02*
X5880906Y-16358922D01*
X5880906Y-16358922D02*
X5880906Y-16463684D01*
X5880906Y-16358922D02*
X5890429Y-16339874D01*
X5890429Y-16339874D02*
X5909477Y-16330350D01*
X5909477Y-16330350D02*
X5938048Y-16330350D01*
X5938048Y-16330350D02*
X5957096Y-16339874D01*
X5957096Y-16339874D02*
X5966620Y-16358922D01*
X5966620Y-16358922D02*
X5966620Y-16463684D01*
X6061858Y-16463684D02*
X6061858Y-16330350D01*
X6061858Y-16349398D02*
X6071382Y-16339874D01*
X6071382Y-16339874D02*
X6090429Y-16330350D01*
X6090429Y-16330350D02*
X6119001Y-16330350D01*
X6119001Y-16330350D02*
X6138048Y-16339874D01*
X6138048Y-16339874D02*
X6147572Y-16358922D01*
X6147572Y-16358922D02*
X6147572Y-16463684D01*
X6147572Y-16358922D02*
X6157096Y-16339874D01*
X6157096Y-16339874D02*
X6176144Y-16330350D01*
X6176144Y-16330350D02*
X6204715Y-16330350D01*
X6204715Y-16330350D02*
X6223763Y-16339874D01*
X6223763Y-16339874D02*
X6233287Y-16358922D01*
X6233287Y-16358922D02*
X6233287Y-16463684D01*
X6623763Y-16254160D02*
X6452334Y-16511303D01*
X6880906Y-16263684D02*
X6899953Y-16263684D01*
X6899953Y-16263684D02*
X6919001Y-16273208D01*
X6919001Y-16273208D02*
X6928525Y-16282731D01*
X6928525Y-16282731D02*
X6938049Y-16301779D01*
X6938049Y-16301779D02*
X6947572Y-16339874D01*
X6947572Y-16339874D02*
X6947572Y-16387493D01*
X6947572Y-16387493D02*
X6938049Y-16425588D01*
X6938049Y-16425588D02*
X6928525Y-16444636D01*
X6928525Y-16444636D02*
X6919001Y-16454160D01*
X6919001Y-16454160D02*
X6899953Y-16463684D01*
X6899953Y-16463684D02*
X6880906Y-16463684D01*
X6880906Y-16463684D02*
X6861858Y-16454160D01*
X6861858Y-16454160D02*
X6852334Y-16444636D01*
X6852334Y-16444636D02*
X6842810Y-16425588D01*
X6842810Y-16425588D02*
X6833287Y-16387493D01*
X6833287Y-16387493D02*
X6833287Y-16339874D01*
X6833287Y-16339874D02*
X6842810Y-16301779D01*
X6842810Y-16301779D02*
X6852334Y-16282731D01*
X6852334Y-16282731D02*
X6861858Y-16273208D01*
X6861858Y-16273208D02*
X6880906Y-16263684D01*
X7033287Y-16444636D02*
X7042810Y-16454160D01*
X7042810Y-16454160D02*
X7033287Y-16463684D01*
X7033287Y-16463684D02*
X7023763Y-16454160D01*
X7023763Y-16454160D02*
X7033287Y-16444636D01*
X7033287Y-16444636D02*
X7033287Y-16463684D01*
X7166620Y-16263684D02*
X7185668Y-16263684D01*
X7185668Y-16263684D02*
X7204715Y-16273208D01*
X7204715Y-16273208D02*
X7214239Y-16282731D01*
X7214239Y-16282731D02*
X7223763Y-16301779D01*
X7223763Y-16301779D02*
X7233287Y-16339874D01*
X7233287Y-16339874D02*
X7233287Y-16387493D01*
X7233287Y-16387493D02*
X7223763Y-16425588D01*
X7223763Y-16425588D02*
X7214239Y-16444636D01*
X7214239Y-16444636D02*
X7204715Y-16454160D01*
X7204715Y-16454160D02*
X7185668Y-16463684D01*
X7185668Y-16463684D02*
X7166620Y-16463684D01*
X7166620Y-16463684D02*
X7147572Y-16454160D01*
X7147572Y-16454160D02*
X7138049Y-16444636D01*
X7138049Y-16444636D02*
X7128525Y-16425588D01*
X7128525Y-16425588D02*
X7119001Y-16387493D01*
X7119001Y-16387493D02*
X7119001Y-16339874D01*
X7119001Y-16339874D02*
X7128525Y-16301779D01*
X7128525Y-16301779D02*
X7138049Y-16282731D01*
X7138049Y-16282731D02*
X7147572Y-16273208D01*
X7147572Y-16273208D02*
X7166620Y-16263684D01*
X7299953Y-16263684D02*
X7423763Y-16263684D01*
X7423763Y-16263684D02*
X7357096Y-16339874D01*
X7357096Y-16339874D02*
X7385668Y-16339874D01*
X7385668Y-16339874D02*
X7404715Y-16349398D01*
X7404715Y-16349398D02*
X7414239Y-16358922D01*
X7414239Y-16358922D02*
X7423763Y-16377969D01*
X7423763Y-16377969D02*
X7423763Y-16425588D01*
X7423763Y-16425588D02*
X7414239Y-16444636D01*
X7414239Y-16444636D02*
X7404715Y-16454160D01*
X7404715Y-16454160D02*
X7385668Y-16463684D01*
X7385668Y-16463684D02*
X7328525Y-16463684D01*
X7328525Y-16463684D02*
X7309477Y-16454160D01*
X7309477Y-16454160D02*
X7299953Y-16444636D01*
X7519001Y-16463684D02*
X7557096Y-16463684D01*
X7557096Y-16463684D02*
X7576144Y-16454160D01*
X7576144Y-16454160D02*
X7585668Y-16444636D01*
X7585668Y-16444636D02*
X7604715Y-16416065D01*
X7604715Y-16416065D02*
X7614239Y-16377969D01*
X7614239Y-16377969D02*
X7614239Y-16301779D01*
X7614239Y-16301779D02*
X7604715Y-16282731D01*
X7604715Y-16282731D02*
X7595191Y-16273208D01*
X7595191Y-16273208D02*
X7576144Y-16263684D01*
X7576144Y-16263684D02*
X7538049Y-16263684D01*
X7538049Y-16263684D02*
X7519001Y-16273208D01*
X7519001Y-16273208D02*
X7509477Y-16282731D01*
X7509477Y-16282731D02*
X7499953Y-16301779D01*
X7499953Y-16301779D02*
X7499953Y-16349398D01*
X7499953Y-16349398D02*
X7509477Y-16368446D01*
X7509477Y-16368446D02*
X7519001Y-16377969D01*
X7519001Y-16377969D02*
X7538049Y-16387493D01*
X7538049Y-16387493D02*
X7576144Y-16387493D01*
X7576144Y-16387493D02*
X7595191Y-16377969D01*
X7595191Y-16377969D02*
X7604715Y-16368446D01*
X7604715Y-16368446D02*
X7614239Y-16349398D01*
X7785668Y-16330350D02*
X7785668Y-16463684D01*
X7738049Y-16254160D02*
X7690430Y-16397017D01*
X7690430Y-16397017D02*
X7814239Y-16397017D01*
X7880906Y-16263684D02*
X7880906Y-16301779D01*
X7957096Y-16263684D02*
X7957096Y-16301779D01*
X8252334Y-16539874D02*
X8242811Y-16530350D01*
X8242811Y-16530350D02*
X8223763Y-16501779D01*
X8223763Y-16501779D02*
X8214239Y-16482731D01*
X8214239Y-16482731D02*
X8204715Y-16454160D01*
X8204715Y-16454160D02*
X8195192Y-16406541D01*
X8195192Y-16406541D02*
X8195192Y-16368446D01*
X8195192Y-16368446D02*
X8204715Y-16320827D01*
X8204715Y-16320827D02*
X8214239Y-16292255D01*
X8214239Y-16292255D02*
X8223763Y-16273208D01*
X8223763Y-16273208D02*
X8242811Y-16244636D01*
X8242811Y-16244636D02*
X8252334Y-16235112D01*
X8433287Y-16463684D02*
X8319001Y-16463684D01*
X8376144Y-16463684D02*
X8376144Y-16263684D01*
X8376144Y-16263684D02*
X8357096Y-16292255D01*
X8357096Y-16292255D02*
X8338049Y-16311303D01*
X8338049Y-16311303D02*
X8319001Y-16320827D01*
X8509477Y-16282731D02*
X8519001Y-16273208D01*
X8519001Y-16273208D02*
X8538049Y-16263684D01*
X8538049Y-16263684D02*
X8585668Y-16263684D01*
X8585668Y-16263684D02*
X8604715Y-16273208D01*
X8604715Y-16273208D02*
X8614239Y-16282731D01*
X8614239Y-16282731D02*
X8623763Y-16301779D01*
X8623763Y-16301779D02*
X8623763Y-16320827D01*
X8623763Y-16320827D02*
X8614239Y-16349398D01*
X8614239Y-16349398D02*
X8499954Y-16463684D01*
X8499954Y-16463684D02*
X8623763Y-16463684D01*
X8747573Y-16263684D02*
X8766620Y-16263684D01*
X8766620Y-16263684D02*
X8785668Y-16273208D01*
X8785668Y-16273208D02*
X8795192Y-16282731D01*
X8795192Y-16282731D02*
X8804715Y-16301779D01*
X8804715Y-16301779D02*
X8814239Y-16339874D01*
X8814239Y-16339874D02*
X8814239Y-16387493D01*
X8814239Y-16387493D02*
X8804715Y-16425588D01*
X8804715Y-16425588D02*
X8795192Y-16444636D01*
X8795192Y-16444636D02*
X8785668Y-16454160D01*
X8785668Y-16454160D02*
X8766620Y-16463684D01*
X8766620Y-16463684D02*
X8747573Y-16463684D01*
X8747573Y-16463684D02*
X8728525Y-16454160D01*
X8728525Y-16454160D02*
X8719001Y-16444636D01*
X8719001Y-16444636D02*
X8709477Y-16425588D01*
X8709477Y-16425588D02*
X8699954Y-16387493D01*
X8699954Y-16387493D02*
X8699954Y-16339874D01*
X8699954Y-16339874D02*
X8709477Y-16301779D01*
X8709477Y-16301779D02*
X8719001Y-16282731D01*
X8719001Y-16282731D02*
X8728525Y-16273208D01*
X8728525Y-16273208D02*
X8747573Y-16263684D01*
X9052335Y-16463684D02*
X9052335Y-16263684D01*
X9138049Y-16463684D02*
X9138049Y-16358922D01*
X9138049Y-16358922D02*
X9128525Y-16339874D01*
X9128525Y-16339874D02*
X9109477Y-16330350D01*
X9109477Y-16330350D02*
X9080906Y-16330350D01*
X9080906Y-16330350D02*
X9061858Y-16339874D01*
X9061858Y-16339874D02*
X9052335Y-16349398D01*
X9261858Y-16463684D02*
X9242811Y-16454160D01*
X9242811Y-16454160D02*
X9233287Y-16444636D01*
X9233287Y-16444636D02*
X9223763Y-16425588D01*
X9223763Y-16425588D02*
X9223763Y-16368446D01*
X9223763Y-16368446D02*
X9233287Y-16349398D01*
X9233287Y-16349398D02*
X9242811Y-16339874D01*
X9242811Y-16339874D02*
X9261858Y-16330350D01*
X9261858Y-16330350D02*
X9290430Y-16330350D01*
X9290430Y-16330350D02*
X9309477Y-16339874D01*
X9309477Y-16339874D02*
X9319001Y-16349398D01*
X9319001Y-16349398D02*
X9328525Y-16368446D01*
X9328525Y-16368446D02*
X9328525Y-16425588D01*
X9328525Y-16425588D02*
X9319001Y-16444636D01*
X9319001Y-16444636D02*
X9309477Y-16454160D01*
X9309477Y-16454160D02*
X9290430Y-16463684D01*
X9290430Y-16463684D02*
X9261858Y-16463684D01*
X9442811Y-16463684D02*
X9423763Y-16454160D01*
X9423763Y-16454160D02*
X9414239Y-16435112D01*
X9414239Y-16435112D02*
X9414239Y-16263684D01*
X9595192Y-16454160D02*
X9576144Y-16463684D01*
X9576144Y-16463684D02*
X9538049Y-16463684D01*
X9538049Y-16463684D02*
X9519001Y-16454160D01*
X9519001Y-16454160D02*
X9509477Y-16435112D01*
X9509477Y-16435112D02*
X9509477Y-16358922D01*
X9509477Y-16358922D02*
X9519001Y-16339874D01*
X9519001Y-16339874D02*
X9538049Y-16330350D01*
X9538049Y-16330350D02*
X9576144Y-16330350D01*
X9576144Y-16330350D02*
X9595192Y-16339874D01*
X9595192Y-16339874D02*
X9604716Y-16358922D01*
X9604716Y-16358922D02*
X9604716Y-16377969D01*
X9604716Y-16377969D02*
X9509477Y-16397017D01*
X9680906Y-16454160D02*
X9699954Y-16463684D01*
X9699954Y-16463684D02*
X9738049Y-16463684D01*
X9738049Y-16463684D02*
X9757097Y-16454160D01*
X9757097Y-16454160D02*
X9766620Y-16435112D01*
X9766620Y-16435112D02*
X9766620Y-16425588D01*
X9766620Y-16425588D02*
X9757097Y-16406541D01*
X9757097Y-16406541D02*
X9738049Y-16397017D01*
X9738049Y-16397017D02*
X9709477Y-16397017D01*
X9709477Y-16397017D02*
X9690430Y-16387493D01*
X9690430Y-16387493D02*
X9680906Y-16368446D01*
X9680906Y-16368446D02*
X9680906Y-16358922D01*
X9680906Y-16358922D02*
X9690430Y-16339874D01*
X9690430Y-16339874D02*
X9709477Y-16330350D01*
X9709477Y-16330350D02*
X9738049Y-16330350D01*
X9738049Y-16330350D02*
X9757097Y-16339874D01*
X9833287Y-16539874D02*
X9842811Y-16530350D01*
X9842811Y-16530350D02*
X9861858Y-16501779D01*
X9861858Y-16501779D02*
X9871382Y-16482731D01*
X9871382Y-16482731D02*
X9880906Y-16454160D01*
X9880906Y-16454160D02*
X9890430Y-16406541D01*
X9890430Y-16406541D02*
X9890430Y-16368446D01*
X9890430Y-16368446D02*
X9880906Y-16320827D01*
X9880906Y-16320827D02*
X9871382Y-16292255D01*
X9871382Y-16292255D02*
X9861858Y-16273208D01*
X9861858Y-16273208D02*
X9842811Y-16244636D01*
X9842811Y-16244636D02*
X9833287Y-16235112D01*
D13*
X4656770Y-16685698D02*
X4656770Y-16586702D01*
X4557774Y-16586702D01*
X4557774Y-16685698D01*
X4656770Y-16685698D01*
D11*
X5042810Y-16727684D02*
X4928525Y-16727684D01*
X4985667Y-16727684D02*
X4985667Y-16527684D01*
X4985667Y-16527684D02*
X4966620Y-16556255D01*
X4966620Y-16556255D02*
X4947572Y-16575303D01*
X4947572Y-16575303D02*
X4928525Y-16584827D01*
X5128525Y-16708636D02*
X5138048Y-16718160D01*
X5138048Y-16718160D02*
X5128525Y-16727684D01*
X5128525Y-16727684D02*
X5119001Y-16718160D01*
X5119001Y-16718160D02*
X5128525Y-16708636D01*
X5128525Y-16708636D02*
X5128525Y-16727684D01*
X5309477Y-16594350D02*
X5309477Y-16727684D01*
X5261858Y-16518160D02*
X5214239Y-16661017D01*
X5214239Y-16661017D02*
X5338048Y-16661017D01*
X5452334Y-16527684D02*
X5471382Y-16527684D01*
X5471382Y-16527684D02*
X5490429Y-16537208D01*
X5490429Y-16537208D02*
X5499953Y-16546731D01*
X5499953Y-16546731D02*
X5509477Y-16565779D01*
X5509477Y-16565779D02*
X5519001Y-16603874D01*
X5519001Y-16603874D02*
X5519001Y-16651493D01*
X5519001Y-16651493D02*
X5509477Y-16689588D01*
X5509477Y-16689588D02*
X5499953Y-16708636D01*
X5499953Y-16708636D02*
X5490429Y-16718160D01*
X5490429Y-16718160D02*
X5471382Y-16727684D01*
X5471382Y-16727684D02*
X5452334Y-16727684D01*
X5452334Y-16727684D02*
X5433287Y-16718160D01*
X5433287Y-16718160D02*
X5423763Y-16708636D01*
X5423763Y-16708636D02*
X5414239Y-16689588D01*
X5414239Y-16689588D02*
X5404715Y-16651493D01*
X5404715Y-16651493D02*
X5404715Y-16603874D01*
X5404715Y-16603874D02*
X5414239Y-16565779D01*
X5414239Y-16565779D02*
X5423763Y-16546731D01*
X5423763Y-16546731D02*
X5433287Y-16537208D01*
X5433287Y-16537208D02*
X5452334Y-16527684D01*
X5642810Y-16527684D02*
X5661858Y-16527684D01*
X5661858Y-16527684D02*
X5680906Y-16537208D01*
X5680906Y-16537208D02*
X5690429Y-16546731D01*
X5690429Y-16546731D02*
X5699953Y-16565779D01*
X5699953Y-16565779D02*
X5709477Y-16603874D01*
X5709477Y-16603874D02*
X5709477Y-16651493D01*
X5709477Y-16651493D02*
X5699953Y-16689588D01*
X5699953Y-16689588D02*
X5690429Y-16708636D01*
X5690429Y-16708636D02*
X5680906Y-16718160D01*
X5680906Y-16718160D02*
X5661858Y-16727684D01*
X5661858Y-16727684D02*
X5642810Y-16727684D01*
X5642810Y-16727684D02*
X5623763Y-16718160D01*
X5623763Y-16718160D02*
X5614239Y-16708636D01*
X5614239Y-16708636D02*
X5604715Y-16689588D01*
X5604715Y-16689588D02*
X5595191Y-16651493D01*
X5595191Y-16651493D02*
X5595191Y-16603874D01*
X5595191Y-16603874D02*
X5604715Y-16565779D01*
X5604715Y-16565779D02*
X5614239Y-16546731D01*
X5614239Y-16546731D02*
X5623763Y-16537208D01*
X5623763Y-16537208D02*
X5642810Y-16527684D01*
X5795191Y-16727684D02*
X5795191Y-16594350D01*
X5795191Y-16613398D02*
X5804715Y-16603874D01*
X5804715Y-16603874D02*
X5823763Y-16594350D01*
X5823763Y-16594350D02*
X5852334Y-16594350D01*
X5852334Y-16594350D02*
X5871382Y-16603874D01*
X5871382Y-16603874D02*
X5880906Y-16622922D01*
X5880906Y-16622922D02*
X5880906Y-16727684D01*
X5880906Y-16622922D02*
X5890429Y-16603874D01*
X5890429Y-16603874D02*
X5909477Y-16594350D01*
X5909477Y-16594350D02*
X5938048Y-16594350D01*
X5938048Y-16594350D02*
X5957096Y-16603874D01*
X5957096Y-16603874D02*
X5966620Y-16622922D01*
X5966620Y-16622922D02*
X5966620Y-16727684D01*
X6061858Y-16727684D02*
X6061858Y-16594350D01*
X6061858Y-16613398D02*
X6071382Y-16603874D01*
X6071382Y-16603874D02*
X6090429Y-16594350D01*
X6090429Y-16594350D02*
X6119001Y-16594350D01*
X6119001Y-16594350D02*
X6138048Y-16603874D01*
X6138048Y-16603874D02*
X6147572Y-16622922D01*
X6147572Y-16622922D02*
X6147572Y-16727684D01*
X6147572Y-16622922D02*
X6157096Y-16603874D01*
X6157096Y-16603874D02*
X6176144Y-16594350D01*
X6176144Y-16594350D02*
X6204715Y-16594350D01*
X6204715Y-16594350D02*
X6223763Y-16603874D01*
X6223763Y-16603874D02*
X6233287Y-16622922D01*
X6233287Y-16622922D02*
X6233287Y-16727684D01*
X6623763Y-16518160D02*
X6452334Y-16775303D01*
X6880906Y-16527684D02*
X6899953Y-16527684D01*
X6899953Y-16527684D02*
X6919001Y-16537208D01*
X6919001Y-16537208D02*
X6928525Y-16546731D01*
X6928525Y-16546731D02*
X6938049Y-16565779D01*
X6938049Y-16565779D02*
X6947572Y-16603874D01*
X6947572Y-16603874D02*
X6947572Y-16651493D01*
X6947572Y-16651493D02*
X6938049Y-16689588D01*
X6938049Y-16689588D02*
X6928525Y-16708636D01*
X6928525Y-16708636D02*
X6919001Y-16718160D01*
X6919001Y-16718160D02*
X6899953Y-16727684D01*
X6899953Y-16727684D02*
X6880906Y-16727684D01*
X6880906Y-16727684D02*
X6861858Y-16718160D01*
X6861858Y-16718160D02*
X6852334Y-16708636D01*
X6852334Y-16708636D02*
X6842810Y-16689588D01*
X6842810Y-16689588D02*
X6833287Y-16651493D01*
X6833287Y-16651493D02*
X6833287Y-16603874D01*
X6833287Y-16603874D02*
X6842810Y-16565779D01*
X6842810Y-16565779D02*
X6852334Y-16546731D01*
X6852334Y-16546731D02*
X6861858Y-16537208D01*
X6861858Y-16537208D02*
X6880906Y-16527684D01*
X7033287Y-16708636D02*
X7042810Y-16718160D01*
X7042810Y-16718160D02*
X7033287Y-16727684D01*
X7033287Y-16727684D02*
X7023763Y-16718160D01*
X7023763Y-16718160D02*
X7033287Y-16708636D01*
X7033287Y-16708636D02*
X7033287Y-16727684D01*
X7166620Y-16527684D02*
X7185668Y-16527684D01*
X7185668Y-16527684D02*
X7204715Y-16537208D01*
X7204715Y-16537208D02*
X7214239Y-16546731D01*
X7214239Y-16546731D02*
X7223763Y-16565779D01*
X7223763Y-16565779D02*
X7233287Y-16603874D01*
X7233287Y-16603874D02*
X7233287Y-16651493D01*
X7233287Y-16651493D02*
X7223763Y-16689588D01*
X7223763Y-16689588D02*
X7214239Y-16708636D01*
X7214239Y-16708636D02*
X7204715Y-16718160D01*
X7204715Y-16718160D02*
X7185668Y-16727684D01*
X7185668Y-16727684D02*
X7166620Y-16727684D01*
X7166620Y-16727684D02*
X7147572Y-16718160D01*
X7147572Y-16718160D02*
X7138049Y-16708636D01*
X7138049Y-16708636D02*
X7128525Y-16689588D01*
X7128525Y-16689588D02*
X7119001Y-16651493D01*
X7119001Y-16651493D02*
X7119001Y-16603874D01*
X7119001Y-16603874D02*
X7128525Y-16565779D01*
X7128525Y-16565779D02*
X7138049Y-16546731D01*
X7138049Y-16546731D02*
X7147572Y-16537208D01*
X7147572Y-16537208D02*
X7166620Y-16527684D01*
X7414239Y-16527684D02*
X7319001Y-16527684D01*
X7319001Y-16527684D02*
X7309477Y-16622922D01*
X7309477Y-16622922D02*
X7319001Y-16613398D01*
X7319001Y-16613398D02*
X7338049Y-16603874D01*
X7338049Y-16603874D02*
X7385668Y-16603874D01*
X7385668Y-16603874D02*
X7404715Y-16613398D01*
X7404715Y-16613398D02*
X7414239Y-16622922D01*
X7414239Y-16622922D02*
X7423763Y-16641969D01*
X7423763Y-16641969D02*
X7423763Y-16689588D01*
X7423763Y-16689588D02*
X7414239Y-16708636D01*
X7414239Y-16708636D02*
X7404715Y-16718160D01*
X7404715Y-16718160D02*
X7385668Y-16727684D01*
X7385668Y-16727684D02*
X7338049Y-16727684D01*
X7338049Y-16727684D02*
X7319001Y-16718160D01*
X7319001Y-16718160D02*
X7309477Y-16708636D01*
X7604715Y-16527684D02*
X7509477Y-16527684D01*
X7509477Y-16527684D02*
X7499953Y-16622922D01*
X7499953Y-16622922D02*
X7509477Y-16613398D01*
X7509477Y-16613398D02*
X7528525Y-16603874D01*
X7528525Y-16603874D02*
X7576144Y-16603874D01*
X7576144Y-16603874D02*
X7595191Y-16613398D01*
X7595191Y-16613398D02*
X7604715Y-16622922D01*
X7604715Y-16622922D02*
X7614239Y-16641969D01*
X7614239Y-16641969D02*
X7614239Y-16689588D01*
X7614239Y-16689588D02*
X7604715Y-16708636D01*
X7604715Y-16708636D02*
X7595191Y-16718160D01*
X7595191Y-16718160D02*
X7576144Y-16727684D01*
X7576144Y-16727684D02*
X7528525Y-16727684D01*
X7528525Y-16727684D02*
X7509477Y-16718160D01*
X7509477Y-16718160D02*
X7499953Y-16708636D01*
X7804715Y-16727684D02*
X7690430Y-16727684D01*
X7747572Y-16727684D02*
X7747572Y-16527684D01*
X7747572Y-16527684D02*
X7728525Y-16556255D01*
X7728525Y-16556255D02*
X7709477Y-16575303D01*
X7709477Y-16575303D02*
X7690430Y-16584827D01*
X7880906Y-16527684D02*
X7880906Y-16565779D01*
X7957096Y-16527684D02*
X7957096Y-16565779D01*
X8252334Y-16803874D02*
X8242811Y-16794350D01*
X8242811Y-16794350D02*
X8223763Y-16765779D01*
X8223763Y-16765779D02*
X8214239Y-16746731D01*
X8214239Y-16746731D02*
X8204715Y-16718160D01*
X8204715Y-16718160D02*
X8195192Y-16670541D01*
X8195192Y-16670541D02*
X8195192Y-16632446D01*
X8195192Y-16632446D02*
X8204715Y-16584827D01*
X8204715Y-16584827D02*
X8214239Y-16556255D01*
X8214239Y-16556255D02*
X8223763Y-16537208D01*
X8223763Y-16537208D02*
X8242811Y-16508636D01*
X8242811Y-16508636D02*
X8252334Y-16499112D01*
X8319001Y-16546731D02*
X8328525Y-16537208D01*
X8328525Y-16537208D02*
X8347572Y-16527684D01*
X8347572Y-16527684D02*
X8395192Y-16527684D01*
X8395192Y-16527684D02*
X8414239Y-16537208D01*
X8414239Y-16537208D02*
X8423763Y-16546731D01*
X8423763Y-16546731D02*
X8433287Y-16565779D01*
X8433287Y-16565779D02*
X8433287Y-16584827D01*
X8433287Y-16584827D02*
X8423763Y-16613398D01*
X8423763Y-16613398D02*
X8309477Y-16727684D01*
X8309477Y-16727684D02*
X8433287Y-16727684D01*
X8557096Y-16527684D02*
X8576144Y-16527684D01*
X8576144Y-16527684D02*
X8595192Y-16537208D01*
X8595192Y-16537208D02*
X8604715Y-16546731D01*
X8604715Y-16546731D02*
X8614239Y-16565779D01*
X8614239Y-16565779D02*
X8623763Y-16603874D01*
X8623763Y-16603874D02*
X8623763Y-16651493D01*
X8623763Y-16651493D02*
X8614239Y-16689588D01*
X8614239Y-16689588D02*
X8604715Y-16708636D01*
X8604715Y-16708636D02*
X8595192Y-16718160D01*
X8595192Y-16718160D02*
X8576144Y-16727684D01*
X8576144Y-16727684D02*
X8557096Y-16727684D01*
X8557096Y-16727684D02*
X8538049Y-16718160D01*
X8538049Y-16718160D02*
X8528525Y-16708636D01*
X8528525Y-16708636D02*
X8519001Y-16689588D01*
X8519001Y-16689588D02*
X8509477Y-16651493D01*
X8509477Y-16651493D02*
X8509477Y-16603874D01*
X8509477Y-16603874D02*
X8519001Y-16565779D01*
X8519001Y-16565779D02*
X8528525Y-16546731D01*
X8528525Y-16546731D02*
X8538049Y-16537208D01*
X8538049Y-16537208D02*
X8557096Y-16527684D01*
X8861858Y-16727684D02*
X8861858Y-16527684D01*
X8947573Y-16727684D02*
X8947573Y-16622922D01*
X8947573Y-16622922D02*
X8938049Y-16603874D01*
X8938049Y-16603874D02*
X8919001Y-16594350D01*
X8919001Y-16594350D02*
X8890430Y-16594350D01*
X8890430Y-16594350D02*
X8871382Y-16603874D01*
X8871382Y-16603874D02*
X8861858Y-16613398D01*
X9071382Y-16727684D02*
X9052335Y-16718160D01*
X9052335Y-16718160D02*
X9042811Y-16708636D01*
X9042811Y-16708636D02*
X9033287Y-16689588D01*
X9033287Y-16689588D02*
X9033287Y-16632446D01*
X9033287Y-16632446D02*
X9042811Y-16613398D01*
X9042811Y-16613398D02*
X9052335Y-16603874D01*
X9052335Y-16603874D02*
X9071382Y-16594350D01*
X9071382Y-16594350D02*
X9099954Y-16594350D01*
X9099954Y-16594350D02*
X9119001Y-16603874D01*
X9119001Y-16603874D02*
X9128525Y-16613398D01*
X9128525Y-16613398D02*
X9138049Y-16632446D01*
X9138049Y-16632446D02*
X9138049Y-16689588D01*
X9138049Y-16689588D02*
X9128525Y-16708636D01*
X9128525Y-16708636D02*
X9119001Y-16718160D01*
X9119001Y-16718160D02*
X9099954Y-16727684D01*
X9099954Y-16727684D02*
X9071382Y-16727684D01*
X9252335Y-16727684D02*
X9233287Y-16718160D01*
X9233287Y-16718160D02*
X9223763Y-16699112D01*
X9223763Y-16699112D02*
X9223763Y-16527684D01*
X9404716Y-16718160D02*
X9385668Y-16727684D01*
X9385668Y-16727684D02*
X9347573Y-16727684D01*
X9347573Y-16727684D02*
X9328525Y-16718160D01*
X9328525Y-16718160D02*
X9319001Y-16699112D01*
X9319001Y-16699112D02*
X9319001Y-16622922D01*
X9319001Y-16622922D02*
X9328525Y-16603874D01*
X9328525Y-16603874D02*
X9347573Y-16594350D01*
X9347573Y-16594350D02*
X9385668Y-16594350D01*
X9385668Y-16594350D02*
X9404716Y-16603874D01*
X9404716Y-16603874D02*
X9414239Y-16622922D01*
X9414239Y-16622922D02*
X9414239Y-16641969D01*
X9414239Y-16641969D02*
X9319001Y-16661017D01*
X9490430Y-16718160D02*
X9509477Y-16727684D01*
X9509477Y-16727684D02*
X9547573Y-16727684D01*
X9547573Y-16727684D02*
X9566620Y-16718160D01*
X9566620Y-16718160D02*
X9576144Y-16699112D01*
X9576144Y-16699112D02*
X9576144Y-16689588D01*
X9576144Y-16689588D02*
X9566620Y-16670541D01*
X9566620Y-16670541D02*
X9547573Y-16661017D01*
X9547573Y-16661017D02*
X9519001Y-16661017D01*
X9519001Y-16661017D02*
X9499954Y-16651493D01*
X9499954Y-16651493D02*
X9490430Y-16632446D01*
X9490430Y-16632446D02*
X9490430Y-16622922D01*
X9490430Y-16622922D02*
X9499954Y-16603874D01*
X9499954Y-16603874D02*
X9519001Y-16594350D01*
X9519001Y-16594350D02*
X9547573Y-16594350D01*
X9547573Y-16594350D02*
X9566620Y-16603874D01*
X9642811Y-16803874D02*
X9652335Y-16794350D01*
X9652335Y-16794350D02*
X9671382Y-16765779D01*
X9671382Y-16765779D02*
X9680906Y-16746731D01*
X9680906Y-16746731D02*
X9690430Y-16718160D01*
X9690430Y-16718160D02*
X9699954Y-16670541D01*
X9699954Y-16670541D02*
X9699954Y-16632446D01*
X9699954Y-16632446D02*
X9690430Y-16584827D01*
X9690430Y-16584827D02*
X9680906Y-16556255D01*
X9680906Y-16556255D02*
X9671382Y-16537208D01*
X9671382Y-16537208D02*
X9652335Y-16508636D01*
X9652335Y-16508636D02*
X9642811Y-16499112D01*
D14*
X4602272Y-16975200D02*
X4677272Y-16900200D01*
X4602272Y-16825200D01*
X4527272Y-16900200D01*
X4602272Y-16975200D01*
D11*
X5042810Y-16991684D02*
X4928525Y-16991684D01*
X4985667Y-16991684D02*
X4985667Y-16791684D01*
X4985667Y-16791684D02*
X4966620Y-16820255D01*
X4966620Y-16820255D02*
X4947572Y-16839303D01*
X4947572Y-16839303D02*
X4928525Y-16848827D01*
X5128525Y-16972636D02*
X5138048Y-16982160D01*
X5138048Y-16982160D02*
X5128525Y-16991684D01*
X5128525Y-16991684D02*
X5119001Y-16982160D01*
X5119001Y-16982160D02*
X5128525Y-16972636D01*
X5128525Y-16972636D02*
X5128525Y-16991684D01*
X5319001Y-16791684D02*
X5223763Y-16791684D01*
X5223763Y-16791684D02*
X5214239Y-16886922D01*
X5214239Y-16886922D02*
X5223763Y-16877398D01*
X5223763Y-16877398D02*
X5242810Y-16867874D01*
X5242810Y-16867874D02*
X5290429Y-16867874D01*
X5290429Y-16867874D02*
X5309477Y-16877398D01*
X5309477Y-16877398D02*
X5319001Y-16886922D01*
X5319001Y-16886922D02*
X5328525Y-16905970D01*
X5328525Y-16905970D02*
X5328525Y-16953589D01*
X5328525Y-16953589D02*
X5319001Y-16972636D01*
X5319001Y-16972636D02*
X5309477Y-16982160D01*
X5309477Y-16982160D02*
X5290429Y-16991684D01*
X5290429Y-16991684D02*
X5242810Y-16991684D01*
X5242810Y-16991684D02*
X5223763Y-16982160D01*
X5223763Y-16982160D02*
X5214239Y-16972636D01*
X5452334Y-16791684D02*
X5471382Y-16791684D01*
X5471382Y-16791684D02*
X5490429Y-16801208D01*
X5490429Y-16801208D02*
X5499953Y-16810731D01*
X5499953Y-16810731D02*
X5509477Y-16829779D01*
X5509477Y-16829779D02*
X5519001Y-16867874D01*
X5519001Y-16867874D02*
X5519001Y-16915493D01*
X5519001Y-16915493D02*
X5509477Y-16953589D01*
X5509477Y-16953589D02*
X5499953Y-16972636D01*
X5499953Y-16972636D02*
X5490429Y-16982160D01*
X5490429Y-16982160D02*
X5471382Y-16991684D01*
X5471382Y-16991684D02*
X5452334Y-16991684D01*
X5452334Y-16991684D02*
X5433287Y-16982160D01*
X5433287Y-16982160D02*
X5423763Y-16972636D01*
X5423763Y-16972636D02*
X5414239Y-16953589D01*
X5414239Y-16953589D02*
X5404715Y-16915493D01*
X5404715Y-16915493D02*
X5404715Y-16867874D01*
X5404715Y-16867874D02*
X5414239Y-16829779D01*
X5414239Y-16829779D02*
X5423763Y-16810731D01*
X5423763Y-16810731D02*
X5433287Y-16801208D01*
X5433287Y-16801208D02*
X5452334Y-16791684D01*
X5642810Y-16791684D02*
X5661858Y-16791684D01*
X5661858Y-16791684D02*
X5680906Y-16801208D01*
X5680906Y-16801208D02*
X5690429Y-16810731D01*
X5690429Y-16810731D02*
X5699953Y-16829779D01*
X5699953Y-16829779D02*
X5709477Y-16867874D01*
X5709477Y-16867874D02*
X5709477Y-16915493D01*
X5709477Y-16915493D02*
X5699953Y-16953589D01*
X5699953Y-16953589D02*
X5690429Y-16972636D01*
X5690429Y-16972636D02*
X5680906Y-16982160D01*
X5680906Y-16982160D02*
X5661858Y-16991684D01*
X5661858Y-16991684D02*
X5642810Y-16991684D01*
X5642810Y-16991684D02*
X5623763Y-16982160D01*
X5623763Y-16982160D02*
X5614239Y-16972636D01*
X5614239Y-16972636D02*
X5604715Y-16953589D01*
X5604715Y-16953589D02*
X5595191Y-16915493D01*
X5595191Y-16915493D02*
X5595191Y-16867874D01*
X5595191Y-16867874D02*
X5604715Y-16829779D01*
X5604715Y-16829779D02*
X5614239Y-16810731D01*
X5614239Y-16810731D02*
X5623763Y-16801208D01*
X5623763Y-16801208D02*
X5642810Y-16791684D01*
X5795191Y-16991684D02*
X5795191Y-16858350D01*
X5795191Y-16877398D02*
X5804715Y-16867874D01*
X5804715Y-16867874D02*
X5823763Y-16858350D01*
X5823763Y-16858350D02*
X5852334Y-16858350D01*
X5852334Y-16858350D02*
X5871382Y-16867874D01*
X5871382Y-16867874D02*
X5880906Y-16886922D01*
X5880906Y-16886922D02*
X5880906Y-16991684D01*
X5880906Y-16886922D02*
X5890429Y-16867874D01*
X5890429Y-16867874D02*
X5909477Y-16858350D01*
X5909477Y-16858350D02*
X5938048Y-16858350D01*
X5938048Y-16858350D02*
X5957096Y-16867874D01*
X5957096Y-16867874D02*
X5966620Y-16886922D01*
X5966620Y-16886922D02*
X5966620Y-16991684D01*
X6061858Y-16991684D02*
X6061858Y-16858350D01*
X6061858Y-16877398D02*
X6071382Y-16867874D01*
X6071382Y-16867874D02*
X6090429Y-16858350D01*
X6090429Y-16858350D02*
X6119001Y-16858350D01*
X6119001Y-16858350D02*
X6138048Y-16867874D01*
X6138048Y-16867874D02*
X6147572Y-16886922D01*
X6147572Y-16886922D02*
X6147572Y-16991684D01*
X6147572Y-16886922D02*
X6157096Y-16867874D01*
X6157096Y-16867874D02*
X6176144Y-16858350D01*
X6176144Y-16858350D02*
X6204715Y-16858350D01*
X6204715Y-16858350D02*
X6223763Y-16867874D01*
X6223763Y-16867874D02*
X6233287Y-16886922D01*
X6233287Y-16886922D02*
X6233287Y-16991684D01*
X6623763Y-16782160D02*
X6452334Y-17039303D01*
X6880906Y-16791684D02*
X6899953Y-16791684D01*
X6899953Y-16791684D02*
X6919001Y-16801208D01*
X6919001Y-16801208D02*
X6928525Y-16810731D01*
X6928525Y-16810731D02*
X6938049Y-16829779D01*
X6938049Y-16829779D02*
X6947572Y-16867874D01*
X6947572Y-16867874D02*
X6947572Y-16915493D01*
X6947572Y-16915493D02*
X6938049Y-16953589D01*
X6938049Y-16953589D02*
X6928525Y-16972636D01*
X6928525Y-16972636D02*
X6919001Y-16982160D01*
X6919001Y-16982160D02*
X6899953Y-16991684D01*
X6899953Y-16991684D02*
X6880906Y-16991684D01*
X6880906Y-16991684D02*
X6861858Y-16982160D01*
X6861858Y-16982160D02*
X6852334Y-16972636D01*
X6852334Y-16972636D02*
X6842810Y-16953589D01*
X6842810Y-16953589D02*
X6833287Y-16915493D01*
X6833287Y-16915493D02*
X6833287Y-16867874D01*
X6833287Y-16867874D02*
X6842810Y-16829779D01*
X6842810Y-16829779D02*
X6852334Y-16810731D01*
X6852334Y-16810731D02*
X6861858Y-16801208D01*
X6861858Y-16801208D02*
X6880906Y-16791684D01*
X7033287Y-16972636D02*
X7042810Y-16982160D01*
X7042810Y-16982160D02*
X7033287Y-16991684D01*
X7033287Y-16991684D02*
X7023763Y-16982160D01*
X7023763Y-16982160D02*
X7033287Y-16972636D01*
X7033287Y-16972636D02*
X7033287Y-16991684D01*
X7166620Y-16791684D02*
X7185668Y-16791684D01*
X7185668Y-16791684D02*
X7204715Y-16801208D01*
X7204715Y-16801208D02*
X7214239Y-16810731D01*
X7214239Y-16810731D02*
X7223763Y-16829779D01*
X7223763Y-16829779D02*
X7233287Y-16867874D01*
X7233287Y-16867874D02*
X7233287Y-16915493D01*
X7233287Y-16915493D02*
X7223763Y-16953589D01*
X7223763Y-16953589D02*
X7214239Y-16972636D01*
X7214239Y-16972636D02*
X7204715Y-16982160D01*
X7204715Y-16982160D02*
X7185668Y-16991684D01*
X7185668Y-16991684D02*
X7166620Y-16991684D01*
X7166620Y-16991684D02*
X7147572Y-16982160D01*
X7147572Y-16982160D02*
X7138049Y-16972636D01*
X7138049Y-16972636D02*
X7128525Y-16953589D01*
X7128525Y-16953589D02*
X7119001Y-16915493D01*
X7119001Y-16915493D02*
X7119001Y-16867874D01*
X7119001Y-16867874D02*
X7128525Y-16829779D01*
X7128525Y-16829779D02*
X7138049Y-16810731D01*
X7138049Y-16810731D02*
X7147572Y-16801208D01*
X7147572Y-16801208D02*
X7166620Y-16791684D01*
X7414239Y-16791684D02*
X7319001Y-16791684D01*
X7319001Y-16791684D02*
X7309477Y-16886922D01*
X7309477Y-16886922D02*
X7319001Y-16877398D01*
X7319001Y-16877398D02*
X7338049Y-16867874D01*
X7338049Y-16867874D02*
X7385668Y-16867874D01*
X7385668Y-16867874D02*
X7404715Y-16877398D01*
X7404715Y-16877398D02*
X7414239Y-16886922D01*
X7414239Y-16886922D02*
X7423763Y-16905970D01*
X7423763Y-16905970D02*
X7423763Y-16953589D01*
X7423763Y-16953589D02*
X7414239Y-16972636D01*
X7414239Y-16972636D02*
X7404715Y-16982160D01*
X7404715Y-16982160D02*
X7385668Y-16991684D01*
X7385668Y-16991684D02*
X7338049Y-16991684D01*
X7338049Y-16991684D02*
X7319001Y-16982160D01*
X7319001Y-16982160D02*
X7309477Y-16972636D01*
X7519001Y-16991684D02*
X7557096Y-16991684D01*
X7557096Y-16991684D02*
X7576144Y-16982160D01*
X7576144Y-16982160D02*
X7585668Y-16972636D01*
X7585668Y-16972636D02*
X7604715Y-16944065D01*
X7604715Y-16944065D02*
X7614239Y-16905970D01*
X7614239Y-16905970D02*
X7614239Y-16829779D01*
X7614239Y-16829779D02*
X7604715Y-16810731D01*
X7604715Y-16810731D02*
X7595191Y-16801208D01*
X7595191Y-16801208D02*
X7576144Y-16791684D01*
X7576144Y-16791684D02*
X7538049Y-16791684D01*
X7538049Y-16791684D02*
X7519001Y-16801208D01*
X7519001Y-16801208D02*
X7509477Y-16810731D01*
X7509477Y-16810731D02*
X7499953Y-16829779D01*
X7499953Y-16829779D02*
X7499953Y-16877398D01*
X7499953Y-16877398D02*
X7509477Y-16896446D01*
X7509477Y-16896446D02*
X7519001Y-16905970D01*
X7519001Y-16905970D02*
X7538049Y-16915493D01*
X7538049Y-16915493D02*
X7576144Y-16915493D01*
X7576144Y-16915493D02*
X7595191Y-16905970D01*
X7595191Y-16905970D02*
X7604715Y-16896446D01*
X7604715Y-16896446D02*
X7614239Y-16877398D01*
X7804715Y-16991684D02*
X7690430Y-16991684D01*
X7747572Y-16991684D02*
X7747572Y-16791684D01*
X7747572Y-16791684D02*
X7728525Y-16820255D01*
X7728525Y-16820255D02*
X7709477Y-16839303D01*
X7709477Y-16839303D02*
X7690430Y-16848827D01*
X7880906Y-16791684D02*
X7880906Y-16829779D01*
X7957096Y-16791684D02*
X7957096Y-16829779D01*
X8252334Y-17067874D02*
X8242811Y-17058350D01*
X8242811Y-17058350D02*
X8223763Y-17029779D01*
X8223763Y-17029779D02*
X8214239Y-17010731D01*
X8214239Y-17010731D02*
X8204715Y-16982160D01*
X8204715Y-16982160D02*
X8195192Y-16934541D01*
X8195192Y-16934541D02*
X8195192Y-16896446D01*
X8195192Y-16896446D02*
X8204715Y-16848827D01*
X8204715Y-16848827D02*
X8214239Y-16820255D01*
X8214239Y-16820255D02*
X8223763Y-16801208D01*
X8223763Y-16801208D02*
X8242811Y-16772636D01*
X8242811Y-16772636D02*
X8252334Y-16763112D01*
X8414239Y-16791684D02*
X8376144Y-16791684D01*
X8376144Y-16791684D02*
X8357096Y-16801208D01*
X8357096Y-16801208D02*
X8347572Y-16810731D01*
X8347572Y-16810731D02*
X8328525Y-16839303D01*
X8328525Y-16839303D02*
X8319001Y-16877398D01*
X8319001Y-16877398D02*
X8319001Y-16953589D01*
X8319001Y-16953589D02*
X8328525Y-16972636D01*
X8328525Y-16972636D02*
X8338049Y-16982160D01*
X8338049Y-16982160D02*
X8357096Y-16991684D01*
X8357096Y-16991684D02*
X8395192Y-16991684D01*
X8395192Y-16991684D02*
X8414239Y-16982160D01*
X8414239Y-16982160D02*
X8423763Y-16972636D01*
X8423763Y-16972636D02*
X8433287Y-16953589D01*
X8433287Y-16953589D02*
X8433287Y-16905970D01*
X8433287Y-16905970D02*
X8423763Y-16886922D01*
X8423763Y-16886922D02*
X8414239Y-16877398D01*
X8414239Y-16877398D02*
X8395192Y-16867874D01*
X8395192Y-16867874D02*
X8357096Y-16867874D01*
X8357096Y-16867874D02*
X8338049Y-16877398D01*
X8338049Y-16877398D02*
X8328525Y-16886922D01*
X8328525Y-16886922D02*
X8319001Y-16905970D01*
X8557096Y-16791684D02*
X8576144Y-16791684D01*
X8576144Y-16791684D02*
X8595192Y-16801208D01*
X8595192Y-16801208D02*
X8604715Y-16810731D01*
X8604715Y-16810731D02*
X8614239Y-16829779D01*
X8614239Y-16829779D02*
X8623763Y-16867874D01*
X8623763Y-16867874D02*
X8623763Y-16915493D01*
X8623763Y-16915493D02*
X8614239Y-16953589D01*
X8614239Y-16953589D02*
X8604715Y-16972636D01*
X8604715Y-16972636D02*
X8595192Y-16982160D01*
X8595192Y-16982160D02*
X8576144Y-16991684D01*
X8576144Y-16991684D02*
X8557096Y-16991684D01*
X8557096Y-16991684D02*
X8538049Y-16982160D01*
X8538049Y-16982160D02*
X8528525Y-16972636D01*
X8528525Y-16972636D02*
X8519001Y-16953589D01*
X8519001Y-16953589D02*
X8509477Y-16915493D01*
X8509477Y-16915493D02*
X8509477Y-16867874D01*
X8509477Y-16867874D02*
X8519001Y-16829779D01*
X8519001Y-16829779D02*
X8528525Y-16810731D01*
X8528525Y-16810731D02*
X8538049Y-16801208D01*
X8538049Y-16801208D02*
X8557096Y-16791684D01*
X8861858Y-16991684D02*
X8861858Y-16791684D01*
X8947573Y-16991684D02*
X8947573Y-16886922D01*
X8947573Y-16886922D02*
X8938049Y-16867874D01*
X8938049Y-16867874D02*
X8919001Y-16858350D01*
X8919001Y-16858350D02*
X8890430Y-16858350D01*
X8890430Y-16858350D02*
X8871382Y-16867874D01*
X8871382Y-16867874D02*
X8861858Y-16877398D01*
X9071382Y-16991684D02*
X9052335Y-16982160D01*
X9052335Y-16982160D02*
X9042811Y-16972636D01*
X9042811Y-16972636D02*
X9033287Y-16953589D01*
X9033287Y-16953589D02*
X9033287Y-16896446D01*
X9033287Y-16896446D02*
X9042811Y-16877398D01*
X9042811Y-16877398D02*
X9052335Y-16867874D01*
X9052335Y-16867874D02*
X9071382Y-16858350D01*
X9071382Y-16858350D02*
X9099954Y-16858350D01*
X9099954Y-16858350D02*
X9119001Y-16867874D01*
X9119001Y-16867874D02*
X9128525Y-16877398D01*
X9128525Y-16877398D02*
X9138049Y-16896446D01*
X9138049Y-16896446D02*
X9138049Y-16953589D01*
X9138049Y-16953589D02*
X9128525Y-16972636D01*
X9128525Y-16972636D02*
X9119001Y-16982160D01*
X9119001Y-16982160D02*
X9099954Y-16991684D01*
X9099954Y-16991684D02*
X9071382Y-16991684D01*
X9252335Y-16991684D02*
X9233287Y-16982160D01*
X9233287Y-16982160D02*
X9223763Y-16963112D01*
X9223763Y-16963112D02*
X9223763Y-16791684D01*
X9404716Y-16982160D02*
X9385668Y-16991684D01*
X9385668Y-16991684D02*
X9347573Y-16991684D01*
X9347573Y-16991684D02*
X9328525Y-16982160D01*
X9328525Y-16982160D02*
X9319001Y-16963112D01*
X9319001Y-16963112D02*
X9319001Y-16886922D01*
X9319001Y-16886922D02*
X9328525Y-16867874D01*
X9328525Y-16867874D02*
X9347573Y-16858350D01*
X9347573Y-16858350D02*
X9385668Y-16858350D01*
X9385668Y-16858350D02*
X9404716Y-16867874D01*
X9404716Y-16867874D02*
X9414239Y-16886922D01*
X9414239Y-16886922D02*
X9414239Y-16905970D01*
X9414239Y-16905970D02*
X9319001Y-16925017D01*
X9490430Y-16982160D02*
X9509477Y-16991684D01*
X9509477Y-16991684D02*
X9547573Y-16991684D01*
X9547573Y-16991684D02*
X9566620Y-16982160D01*
X9566620Y-16982160D02*
X9576144Y-16963112D01*
X9576144Y-16963112D02*
X9576144Y-16953589D01*
X9576144Y-16953589D02*
X9566620Y-16934541D01*
X9566620Y-16934541D02*
X9547573Y-16925017D01*
X9547573Y-16925017D02*
X9519001Y-16925017D01*
X9519001Y-16925017D02*
X9499954Y-16915493D01*
X9499954Y-16915493D02*
X9490430Y-16896446D01*
X9490430Y-16896446D02*
X9490430Y-16886922D01*
X9490430Y-16886922D02*
X9499954Y-16867874D01*
X9499954Y-16867874D02*
X9519001Y-16858350D01*
X9519001Y-16858350D02*
X9547573Y-16858350D01*
X9547573Y-16858350D02*
X9566620Y-16867874D01*
X9642811Y-17067874D02*
X9652335Y-17058350D01*
X9652335Y-17058350D02*
X9671382Y-17029779D01*
X9671382Y-17029779D02*
X9680906Y-17010731D01*
X9680906Y-17010731D02*
X9690430Y-16982160D01*
X9690430Y-16982160D02*
X9699954Y-16934541D01*
X9699954Y-16934541D02*
X9699954Y-16896446D01*
X9699954Y-16896446D02*
X9690430Y-16848827D01*
X9690430Y-16848827D02*
X9680906Y-16820255D01*
X9680906Y-16820255D02*
X9671382Y-16801208D01*
X9671382Y-16801208D02*
X9652335Y-16772636D01*
X9652335Y-16772636D02*
X9642811Y-16763112D01*
X4477272Y-17070200D02*
X4677272Y-17270200D01*
X4677272Y-17070200D02*
X4477272Y-17270200D01*
X4677272Y-17170200D02*
G75*
G02*
X4477272Y-17170200I-100000J0D01*
G01*
X4477272Y-17170200D02*
G75*
G02*
X4677272Y-17170200I100000J0D01*
G01*
X4919001Y-17061684D02*
X5042810Y-17061684D01*
X5042810Y-17061684D02*
X4976144Y-17137874D01*
X4976144Y-17137874D02*
X5004715Y-17137874D01*
X5004715Y-17137874D02*
X5023763Y-17147398D01*
X5023763Y-17147398D02*
X5033287Y-17156922D01*
X5033287Y-17156922D02*
X5042810Y-17175970D01*
X5042810Y-17175970D02*
X5042810Y-17223589D01*
X5042810Y-17223589D02*
X5033287Y-17242636D01*
X5033287Y-17242636D02*
X5023763Y-17252160D01*
X5023763Y-17252160D02*
X5004715Y-17261684D01*
X5004715Y-17261684D02*
X4947572Y-17261684D01*
X4947572Y-17261684D02*
X4928525Y-17252160D01*
X4928525Y-17252160D02*
X4919001Y-17242636D01*
X5128525Y-17242636D02*
X5138048Y-17252160D01*
X5138048Y-17252160D02*
X5128525Y-17261684D01*
X5128525Y-17261684D02*
X5119001Y-17252160D01*
X5119001Y-17252160D02*
X5128525Y-17242636D01*
X5128525Y-17242636D02*
X5128525Y-17261684D01*
X5214239Y-17080731D02*
X5223763Y-17071208D01*
X5223763Y-17071208D02*
X5242810Y-17061684D01*
X5242810Y-17061684D02*
X5290429Y-17061684D01*
X5290429Y-17061684D02*
X5309477Y-17071208D01*
X5309477Y-17071208D02*
X5319001Y-17080731D01*
X5319001Y-17080731D02*
X5328525Y-17099779D01*
X5328525Y-17099779D02*
X5328525Y-17118827D01*
X5328525Y-17118827D02*
X5319001Y-17147398D01*
X5319001Y-17147398D02*
X5204715Y-17261684D01*
X5204715Y-17261684D02*
X5328525Y-17261684D01*
X5452334Y-17061684D02*
X5471382Y-17061684D01*
X5471382Y-17061684D02*
X5490429Y-17071208D01*
X5490429Y-17071208D02*
X5499953Y-17080731D01*
X5499953Y-17080731D02*
X5509477Y-17099779D01*
X5509477Y-17099779D02*
X5519001Y-17137874D01*
X5519001Y-17137874D02*
X5519001Y-17185493D01*
X5519001Y-17185493D02*
X5509477Y-17223589D01*
X5509477Y-17223589D02*
X5499953Y-17242636D01*
X5499953Y-17242636D02*
X5490429Y-17252160D01*
X5490429Y-17252160D02*
X5471382Y-17261684D01*
X5471382Y-17261684D02*
X5452334Y-17261684D01*
X5452334Y-17261684D02*
X5433287Y-17252160D01*
X5433287Y-17252160D02*
X5423763Y-17242636D01*
X5423763Y-17242636D02*
X5414239Y-17223589D01*
X5414239Y-17223589D02*
X5404715Y-17185493D01*
X5404715Y-17185493D02*
X5404715Y-17137874D01*
X5404715Y-17137874D02*
X5414239Y-17099779D01*
X5414239Y-17099779D02*
X5423763Y-17080731D01*
X5423763Y-17080731D02*
X5433287Y-17071208D01*
X5433287Y-17071208D02*
X5452334Y-17061684D01*
X5642810Y-17061684D02*
X5661858Y-17061684D01*
X5661858Y-17061684D02*
X5680906Y-17071208D01*
X5680906Y-17071208D02*
X5690429Y-17080731D01*
X5690429Y-17080731D02*
X5699953Y-17099779D01*
X5699953Y-17099779D02*
X5709477Y-17137874D01*
X5709477Y-17137874D02*
X5709477Y-17185493D01*
X5709477Y-17185493D02*
X5699953Y-17223589D01*
X5699953Y-17223589D02*
X5690429Y-17242636D01*
X5690429Y-17242636D02*
X5680906Y-17252160D01*
X5680906Y-17252160D02*
X5661858Y-17261684D01*
X5661858Y-17261684D02*
X5642810Y-17261684D01*
X5642810Y-17261684D02*
X5623763Y-17252160D01*
X5623763Y-17252160D02*
X5614239Y-17242636D01*
X5614239Y-17242636D02*
X5604715Y-17223589D01*
X5604715Y-17223589D02*
X5595191Y-17185493D01*
X5595191Y-17185493D02*
X5595191Y-17137874D01*
X5595191Y-17137874D02*
X5604715Y-17099779D01*
X5604715Y-17099779D02*
X5614239Y-17080731D01*
X5614239Y-17080731D02*
X5623763Y-17071208D01*
X5623763Y-17071208D02*
X5642810Y-17061684D01*
X5795191Y-17261684D02*
X5795191Y-17128350D01*
X5795191Y-17147398D02*
X5804715Y-17137874D01*
X5804715Y-17137874D02*
X5823763Y-17128350D01*
X5823763Y-17128350D02*
X5852334Y-17128350D01*
X5852334Y-17128350D02*
X5871382Y-17137874D01*
X5871382Y-17137874D02*
X5880906Y-17156922D01*
X5880906Y-17156922D02*
X5880906Y-17261684D01*
X5880906Y-17156922D02*
X5890429Y-17137874D01*
X5890429Y-17137874D02*
X5909477Y-17128350D01*
X5909477Y-17128350D02*
X5938048Y-17128350D01*
X5938048Y-17128350D02*
X5957096Y-17137874D01*
X5957096Y-17137874D02*
X5966620Y-17156922D01*
X5966620Y-17156922D02*
X5966620Y-17261684D01*
X6061858Y-17261684D02*
X6061858Y-17128350D01*
X6061858Y-17147398D02*
X6071382Y-17137874D01*
X6071382Y-17137874D02*
X6090429Y-17128350D01*
X6090429Y-17128350D02*
X6119001Y-17128350D01*
X6119001Y-17128350D02*
X6138048Y-17137874D01*
X6138048Y-17137874D02*
X6147572Y-17156922D01*
X6147572Y-17156922D02*
X6147572Y-17261684D01*
X6147572Y-17156922D02*
X6157096Y-17137874D01*
X6157096Y-17137874D02*
X6176144Y-17128350D01*
X6176144Y-17128350D02*
X6204715Y-17128350D01*
X6204715Y-17128350D02*
X6223763Y-17137874D01*
X6223763Y-17137874D02*
X6233287Y-17156922D01*
X6233287Y-17156922D02*
X6233287Y-17261684D01*
X6623763Y-17052160D02*
X6452334Y-17309303D01*
X6880906Y-17061684D02*
X6899953Y-17061684D01*
X6899953Y-17061684D02*
X6919001Y-17071208D01*
X6919001Y-17071208D02*
X6928525Y-17080731D01*
X6928525Y-17080731D02*
X6938049Y-17099779D01*
X6938049Y-17099779D02*
X6947572Y-17137874D01*
X6947572Y-17137874D02*
X6947572Y-17185493D01*
X6947572Y-17185493D02*
X6938049Y-17223589D01*
X6938049Y-17223589D02*
X6928525Y-17242636D01*
X6928525Y-17242636D02*
X6919001Y-17252160D01*
X6919001Y-17252160D02*
X6899953Y-17261684D01*
X6899953Y-17261684D02*
X6880906Y-17261684D01*
X6880906Y-17261684D02*
X6861858Y-17252160D01*
X6861858Y-17252160D02*
X6852334Y-17242636D01*
X6852334Y-17242636D02*
X6842810Y-17223589D01*
X6842810Y-17223589D02*
X6833287Y-17185493D01*
X6833287Y-17185493D02*
X6833287Y-17137874D01*
X6833287Y-17137874D02*
X6842810Y-17099779D01*
X6842810Y-17099779D02*
X6852334Y-17080731D01*
X6852334Y-17080731D02*
X6861858Y-17071208D01*
X6861858Y-17071208D02*
X6880906Y-17061684D01*
X7033287Y-17242636D02*
X7042810Y-17252160D01*
X7042810Y-17252160D02*
X7033287Y-17261684D01*
X7033287Y-17261684D02*
X7023763Y-17252160D01*
X7023763Y-17252160D02*
X7033287Y-17242636D01*
X7033287Y-17242636D02*
X7033287Y-17261684D01*
X7233287Y-17261684D02*
X7119001Y-17261684D01*
X7176144Y-17261684D02*
X7176144Y-17061684D01*
X7176144Y-17061684D02*
X7157096Y-17090255D01*
X7157096Y-17090255D02*
X7138049Y-17109303D01*
X7138049Y-17109303D02*
X7119001Y-17118827D01*
X7309477Y-17080731D02*
X7319001Y-17071208D01*
X7319001Y-17071208D02*
X7338049Y-17061684D01*
X7338049Y-17061684D02*
X7385668Y-17061684D01*
X7385668Y-17061684D02*
X7404715Y-17071208D01*
X7404715Y-17071208D02*
X7414239Y-17080731D01*
X7414239Y-17080731D02*
X7423763Y-17099779D01*
X7423763Y-17099779D02*
X7423763Y-17118827D01*
X7423763Y-17118827D02*
X7414239Y-17147398D01*
X7414239Y-17147398D02*
X7299953Y-17261684D01*
X7299953Y-17261684D02*
X7423763Y-17261684D01*
X7595191Y-17061684D02*
X7557096Y-17061684D01*
X7557096Y-17061684D02*
X7538049Y-17071208D01*
X7538049Y-17071208D02*
X7528525Y-17080731D01*
X7528525Y-17080731D02*
X7509477Y-17109303D01*
X7509477Y-17109303D02*
X7499953Y-17147398D01*
X7499953Y-17147398D02*
X7499953Y-17223589D01*
X7499953Y-17223589D02*
X7509477Y-17242636D01*
X7509477Y-17242636D02*
X7519001Y-17252160D01*
X7519001Y-17252160D02*
X7538049Y-17261684D01*
X7538049Y-17261684D02*
X7576144Y-17261684D01*
X7576144Y-17261684D02*
X7595191Y-17252160D01*
X7595191Y-17252160D02*
X7604715Y-17242636D01*
X7604715Y-17242636D02*
X7614239Y-17223589D01*
X7614239Y-17223589D02*
X7614239Y-17175970D01*
X7614239Y-17175970D02*
X7604715Y-17156922D01*
X7604715Y-17156922D02*
X7595191Y-17147398D01*
X7595191Y-17147398D02*
X7576144Y-17137874D01*
X7576144Y-17137874D02*
X7538049Y-17137874D01*
X7538049Y-17137874D02*
X7519001Y-17147398D01*
X7519001Y-17147398D02*
X7509477Y-17156922D01*
X7509477Y-17156922D02*
X7499953Y-17175970D01*
X7738049Y-17061684D02*
X7757096Y-17061684D01*
X7757096Y-17061684D02*
X7776144Y-17071208D01*
X7776144Y-17071208D02*
X7785668Y-17080731D01*
X7785668Y-17080731D02*
X7795191Y-17099779D01*
X7795191Y-17099779D02*
X7804715Y-17137874D01*
X7804715Y-17137874D02*
X7804715Y-17185493D01*
X7804715Y-17185493D02*
X7795191Y-17223589D01*
X7795191Y-17223589D02*
X7785668Y-17242636D01*
X7785668Y-17242636D02*
X7776144Y-17252160D01*
X7776144Y-17252160D02*
X7757096Y-17261684D01*
X7757096Y-17261684D02*
X7738049Y-17261684D01*
X7738049Y-17261684D02*
X7719001Y-17252160D01*
X7719001Y-17252160D02*
X7709477Y-17242636D01*
X7709477Y-17242636D02*
X7699953Y-17223589D01*
X7699953Y-17223589D02*
X7690430Y-17185493D01*
X7690430Y-17185493D02*
X7690430Y-17137874D01*
X7690430Y-17137874D02*
X7699953Y-17099779D01*
X7699953Y-17099779D02*
X7709477Y-17080731D01*
X7709477Y-17080731D02*
X7719001Y-17071208D01*
X7719001Y-17071208D02*
X7738049Y-17061684D01*
X7880906Y-17061684D02*
X7880906Y-17099779D01*
X7957096Y-17061684D02*
X7957096Y-17099779D01*
X8252334Y-17337874D02*
X8242811Y-17328350D01*
X8242811Y-17328350D02*
X8223763Y-17299779D01*
X8223763Y-17299779D02*
X8214239Y-17280731D01*
X8214239Y-17280731D02*
X8204715Y-17252160D01*
X8204715Y-17252160D02*
X8195192Y-17204541D01*
X8195192Y-17204541D02*
X8195192Y-17166446D01*
X8195192Y-17166446D02*
X8204715Y-17118827D01*
X8204715Y-17118827D02*
X8214239Y-17090255D01*
X8214239Y-17090255D02*
X8223763Y-17071208D01*
X8223763Y-17071208D02*
X8242811Y-17042636D01*
X8242811Y-17042636D02*
X8252334Y-17033112D01*
X8414239Y-17128350D02*
X8414239Y-17261684D01*
X8366620Y-17052160D02*
X8319001Y-17195017D01*
X8319001Y-17195017D02*
X8442811Y-17195017D01*
X8671382Y-17261684D02*
X8671382Y-17061684D01*
X8757096Y-17261684D02*
X8757096Y-17156922D01*
X8757096Y-17156922D02*
X8747573Y-17137874D01*
X8747573Y-17137874D02*
X8728525Y-17128350D01*
X8728525Y-17128350D02*
X8699954Y-17128350D01*
X8699954Y-17128350D02*
X8680906Y-17137874D01*
X8680906Y-17137874D02*
X8671382Y-17147398D01*
X8880906Y-17261684D02*
X8861858Y-17252160D01*
X8861858Y-17252160D02*
X8852335Y-17242636D01*
X8852335Y-17242636D02*
X8842811Y-17223589D01*
X8842811Y-17223589D02*
X8842811Y-17166446D01*
X8842811Y-17166446D02*
X8852335Y-17147398D01*
X8852335Y-17147398D02*
X8861858Y-17137874D01*
X8861858Y-17137874D02*
X8880906Y-17128350D01*
X8880906Y-17128350D02*
X8909477Y-17128350D01*
X8909477Y-17128350D02*
X8928525Y-17137874D01*
X8928525Y-17137874D02*
X8938049Y-17147398D01*
X8938049Y-17147398D02*
X8947573Y-17166446D01*
X8947573Y-17166446D02*
X8947573Y-17223589D01*
X8947573Y-17223589D02*
X8938049Y-17242636D01*
X8938049Y-17242636D02*
X8928525Y-17252160D01*
X8928525Y-17252160D02*
X8909477Y-17261684D01*
X8909477Y-17261684D02*
X8880906Y-17261684D01*
X9061858Y-17261684D02*
X9042811Y-17252160D01*
X9042811Y-17252160D02*
X9033287Y-17233112D01*
X9033287Y-17233112D02*
X9033287Y-17061684D01*
X9214239Y-17252160D02*
X9195192Y-17261684D01*
X9195192Y-17261684D02*
X9157096Y-17261684D01*
X9157096Y-17261684D02*
X9138049Y-17252160D01*
X9138049Y-17252160D02*
X9128525Y-17233112D01*
X9128525Y-17233112D02*
X9128525Y-17156922D01*
X9128525Y-17156922D02*
X9138049Y-17137874D01*
X9138049Y-17137874D02*
X9157096Y-17128350D01*
X9157096Y-17128350D02*
X9195192Y-17128350D01*
X9195192Y-17128350D02*
X9214239Y-17137874D01*
X9214239Y-17137874D02*
X9223763Y-17156922D01*
X9223763Y-17156922D02*
X9223763Y-17175970D01*
X9223763Y-17175970D02*
X9128525Y-17195017D01*
X9299954Y-17252160D02*
X9319001Y-17261684D01*
X9319001Y-17261684D02*
X9357096Y-17261684D01*
X9357096Y-17261684D02*
X9376144Y-17252160D01*
X9376144Y-17252160D02*
X9385668Y-17233112D01*
X9385668Y-17233112D02*
X9385668Y-17223589D01*
X9385668Y-17223589D02*
X9376144Y-17204541D01*
X9376144Y-17204541D02*
X9357096Y-17195017D01*
X9357096Y-17195017D02*
X9328525Y-17195017D01*
X9328525Y-17195017D02*
X9309477Y-17185493D01*
X9309477Y-17185493D02*
X9299954Y-17166446D01*
X9299954Y-17166446D02*
X9299954Y-17156922D01*
X9299954Y-17156922D02*
X9309477Y-17137874D01*
X9309477Y-17137874D02*
X9328525Y-17128350D01*
X9328525Y-17128350D02*
X9357096Y-17128350D01*
X9357096Y-17128350D02*
X9376144Y-17137874D01*
X9452335Y-17337874D02*
X9461858Y-17328350D01*
X9461858Y-17328350D02*
X9480906Y-17299779D01*
X9480906Y-17299779D02*
X9490430Y-17280731D01*
X9490430Y-17280731D02*
X9499954Y-17252160D01*
X9499954Y-17252160D02*
X9509477Y-17204541D01*
X9509477Y-17204541D02*
X9509477Y-17166446D01*
X9509477Y-17166446D02*
X9499954Y-17118827D01*
X9499954Y-17118827D02*
X9490430Y-17090255D01*
X9490430Y-17090255D02*
X9480906Y-17071208D01*
X9480906Y-17071208D02*
X9461858Y-17042636D01*
X9461858Y-17042636D02*
X9452335Y-17033112D01*
M02*
