M48
; DRILL file {KiCad 9.0.1} date 2025-08-08T23:32:52+0300
; FORMAT={-:-/ absolute / metric / decimal}
; #@! TF.CreationDate,2025-08-08T23:32:52+03:00
; #@! TF.GenerationSoftware,Kicad,Pcbnew,9.0.1
; #@! TF.FileFunction,Plated,1,2,PTH
FMAT,2
METRIC
; #@! TA.AperFunction,Plated,PTH,ViaDrill
T1C0.500
; #@! TA.AperFunction,Plated,PTH,ComponentDrill
T2C0.500
; #@! TA.AperFunction,Plated,PTH,ComponentDrill
T3C1.000
; #@! TA.AperFunction,Plated,PTH,ComponentDrill
T4C1.400
; #@! TA.AperFunction,Plated,PTH,ComponentDrill
T5C1.500
; #@! TA.AperFunction,Plated,PTH,ComponentDrill
T6C3.200
%
G90
G05
T1
X49.298Y-82.017
X49.298Y-92.017
X49.298Y-102.017
X49.298Y-112.017
X49.298Y-122.017
X54.298Y-144.517
X59.298Y-67.017
X59.298Y-74.517
X59.298Y-79.517
X59.298Y-84.517
X59.298Y-99.517
X59.298Y-117.017
X59.298Y-127.017
X59.298Y-132.017
X61.798Y-142.017
X64.714Y-104.027
X64.798Y-57.017
X65.503Y-120.598
X65.507Y-137.076
X65.592Y-71.581
X65.798Y-88.017
X74.298Y-99.517
X74.298Y-117.017
X76.798Y-54.517
X76.798Y-69.517
X76.798Y-84.517
X76.798Y-134.517
X81.3Y-108.7
X81.313Y-92.714
X81.323Y-125.298
X81.327Y-141.776
X81.39Y-60.944
X81.412Y-76.281
X83.31Y-108.7
X83.323Y-92.714
X83.333Y-125.298
X83.337Y-141.776
X83.4Y-60.944
X83.422Y-76.281
X94.202Y-91.296
X94.234Y-107.269
X94.234Y-123.888
X94.234Y-140.41
X94.298Y-59.517
X94.345Y-74.875
X101.702Y-91.296
X101.734Y-107.269
X101.734Y-123.888
X101.734Y-140.41
X101.798Y-59.517
X101.845Y-74.875
X110.622Y-95.108
X110.654Y-111.081
X110.654Y-127.7
X110.654Y-144.222
X110.718Y-63.329
X110.765Y-78.688
X116.602Y-95.216
X116.635Y-111.189
X116.635Y-127.808
X116.635Y-144.33
X116.698Y-63.437
X116.745Y-78.795
X120.97Y-91.494
X121.002Y-107.467
X121.002Y-124.086
X121.002Y-140.608
X121.065Y-59.715
X121.112Y-75.074
X126.8Y-91.408
X126.832Y-107.381
X126.832Y-124.0
X126.832Y-140.522
X126.895Y-59.629
X126.942Y-74.987
X129.895Y-93.048
X129.927Y-109.022
X129.927Y-125.64
X129.927Y-142.162
X129.99Y-61.27
X130.037Y-76.628
X131.895Y-93.048
X131.927Y-109.022
X131.927Y-125.64
X131.927Y-142.162
X131.99Y-61.27
X132.037Y-76.628
X143.235Y-91.838
X143.268Y-107.812
X143.268Y-124.43
X143.268Y-140.952
X143.331Y-60.059
X143.378Y-75.418
X151.152Y-91.688
X151.184Y-107.661
X151.184Y-124.28
X151.184Y-140.801
X151.248Y-59.909
X151.295Y-75.267
X160.854Y-95.323
X160.887Y-111.297
X160.887Y-127.915
X160.887Y-144.437
X160.95Y-63.544
X160.997Y-78.903
X166.706Y-95.366
X166.738Y-111.34
X166.738Y-127.958
X166.738Y-144.48
X166.801Y-63.587
X166.848Y-78.946
X167.717Y-91.516
X167.749Y-107.489
X167.749Y-124.107
X167.749Y-140.629
X167.813Y-59.737
X167.86Y-75.095
X174.472Y-91.473
X174.504Y-107.446
X174.504Y-124.064
X174.504Y-140.586
X174.568Y-59.694
X174.615Y-75.052
X178.495Y-93.023
X178.527Y-108.997
X178.527Y-125.615
X178.527Y-142.137
X178.59Y-61.244
X178.637Y-76.603
X180.475Y-93.034
X180.507Y-109.007
X180.507Y-125.626
X180.507Y-142.148
X180.57Y-61.255
X180.617Y-76.613
X191.702Y-91.948
X191.734Y-107.922
X191.734Y-124.54
X191.734Y-141.062
X191.798Y-60.169
X191.845Y-75.528
X196.362Y-91.875
X196.395Y-107.848
X196.395Y-124.467
X196.395Y-140.989
X196.458Y-60.096
X196.505Y-75.455
X200.394Y-95.646
X200.426Y-111.619
X200.426Y-128.238
X200.426Y-144.76
X200.49Y-63.867
X200.537Y-79.226
X206.798Y-54.517
X216.798Y-54.517
X216.798Y-74.517
X216.841Y-69.966
X218.411Y-84.262
X218.523Y-93.624
X218.579Y-88.915
X219.298Y-59.517
X219.298Y-127.017
X219.298Y-137.017
X220.317Y-70.694
X221.438Y-77.03
X221.495Y-65.985
X223.548Y-87.017
X224.298Y-54.517
X226.298Y-117.767
X227.298Y-75.267
X227.298Y-129.517
X227.548Y-66.767
X227.798Y-137.517
X228.282Y-87.017
X229.548Y-102.017
X231.048Y-127.767
X231.548Y-136.017
X231.798Y-82.767
X232.048Y-143.967
X232.298Y-66.767
X232.298Y-74.517
X233.798Y-84.517
X235.298Y-93.267
X235.298Y-121.267
X235.548Y-98.017
X235.548Y-116.017
X235.548Y-129.017
X235.548Y-137.517
X236.298Y-149.517
X238.798Y-119.517
X238.798Y-125.017
X238.798Y-129.267
X238.798Y-135.767
X238.798Y-141.017
X240.548Y-113.767
X241.048Y-92.767
X242.798Y-87.267
X243.048Y-80.017
X245.048Y-113.017
X245.048Y-118.267
X245.048Y-123.517
T2
X48.398Y-56.017
X48.398Y-148.017
X49.101Y-54.32
X49.101Y-57.714
X49.101Y-146.32
X49.101Y-149.714
X50.798Y-53.617
X50.798Y-58.417
X50.798Y-145.617
X50.798Y-150.417
X52.495Y-54.32
X52.495Y-57.714
X52.495Y-146.32
X52.495Y-149.714
X53.198Y-56.017
X53.198Y-148.017
X240.398Y-56.017
X240.398Y-148.017
X241.101Y-54.32
X241.101Y-57.714
X241.101Y-146.32
X241.101Y-149.714
X242.798Y-53.617
X242.798Y-58.417
X242.798Y-145.617
X242.798Y-150.417
X244.495Y-54.32
X244.495Y-57.714
X244.495Y-146.32
X244.495Y-149.714
X245.198Y-56.017
X245.198Y-148.017
T3
X50.798Y-63.017
X50.798Y-65.557
X50.798Y-68.097
X50.798Y-70.637
X50.798Y-73.177
X50.798Y-75.717
X50.798Y-128.317
X50.798Y-130.857
X50.798Y-133.397
X50.798Y-135.937
X50.798Y-138.477
X50.798Y-141.017
X68.547Y-106.965
X68.547Y-112.045
X68.56Y-90.979
X68.56Y-96.059
X68.57Y-123.563
X68.57Y-128.643
X68.575Y-140.041
X68.575Y-145.121
X68.638Y-59.209
X68.638Y-64.29
X68.66Y-74.546
X68.66Y-79.626
X71.087Y-106.965
X71.087Y-112.045
X71.1Y-90.979
X71.1Y-96.059
X71.11Y-123.563
X71.11Y-128.643
X71.115Y-140.041
X71.115Y-145.121
X71.178Y-59.209
X71.178Y-64.29
X71.2Y-74.546
X71.2Y-79.626
X73.627Y-106.965
X73.627Y-112.045
X73.64Y-90.979
X73.64Y-96.059
X73.65Y-123.563
X73.65Y-128.643
X73.655Y-140.041
X73.655Y-145.121
X73.718Y-59.209
X73.718Y-64.29
X73.74Y-74.546
X73.74Y-79.626
X78.707Y-106.965
X78.707Y-112.045
X78.72Y-90.979
X78.72Y-96.059
X78.73Y-123.563
X78.73Y-128.643
X78.735Y-140.041
X78.735Y-145.121
X78.798Y-59.209
X78.798Y-64.29
X78.82Y-74.546
X78.82Y-79.626
X203.5Y-106.82
X203.5Y-111.9
X203.513Y-90.834
X203.513Y-95.914
X203.523Y-123.418
X203.523Y-128.498
X203.527Y-139.896
X203.527Y-144.976
X203.59Y-59.064
X203.59Y-64.144
X203.612Y-74.401
X203.612Y-79.481
X208.58Y-106.82
X208.58Y-111.9
X208.593Y-90.834
X208.593Y-95.914
X208.603Y-123.418
X208.603Y-128.498
X208.607Y-139.896
X208.607Y-144.976
X208.67Y-59.064
X208.67Y-64.144
X208.692Y-74.401
X208.692Y-79.481
X211.12Y-106.82
X211.12Y-111.9
X211.133Y-90.834
X211.133Y-95.914
X211.143Y-123.418
X211.143Y-128.498
X211.147Y-139.896
X211.147Y-144.976
X211.21Y-59.064
X211.21Y-64.144
X211.232Y-74.401
X211.232Y-79.481
X213.66Y-106.82
X213.66Y-111.9
X213.673Y-90.834
X213.673Y-95.914
X213.683Y-123.418
X213.683Y-128.498
X213.687Y-139.896
X213.687Y-144.976
X213.75Y-59.064
X213.75Y-64.144
X213.772Y-74.401
X213.772Y-79.481
X242.798Y-63.017
X242.798Y-65.557
X242.798Y-68.097
X242.798Y-70.637
X242.798Y-73.177
X242.798Y-75.717
X242.798Y-128.317
X242.798Y-130.857
X242.798Y-133.397
X242.798Y-135.937
X242.798Y-138.477
X242.798Y-141.017
T4
X56.693Y-91.445
X56.693Y-96.545
X56.698Y-106.917
X56.698Y-112.017
X59.243Y-93.995
X59.248Y-109.467
X61.793Y-91.445
X61.793Y-96.545
X61.798Y-106.917
X61.798Y-112.017
X223.498Y-92.017
X223.498Y-97.117
X223.516Y-108.042
X223.516Y-113.142
X226.048Y-94.567
X226.066Y-110.592
X228.598Y-92.017
X228.598Y-97.117
X228.616Y-108.042
X228.616Y-113.142
T5
X89.4Y-107.6
X89.413Y-91.614
X89.423Y-124.198
X89.427Y-140.676
X89.49Y-59.844
X89.512Y-75.181
X99.4Y-111.1
X99.413Y-95.114
X99.423Y-127.698
X99.427Y-144.176
X99.49Y-63.344
X99.512Y-78.681
X113.7Y-107.6
X113.713Y-91.614
X113.723Y-124.198
X113.727Y-140.676
X113.79Y-59.844
X113.812Y-75.181
X123.7Y-111.1
X123.713Y-95.114
X123.723Y-127.698
X123.727Y-144.176
X123.79Y-63.344
X123.812Y-78.681
X138.1Y-107.55
X138.113Y-91.564
X138.123Y-124.148
X138.127Y-140.626
X138.19Y-59.794
X138.212Y-75.131
X148.1Y-111.05
X148.113Y-95.064
X148.123Y-127.648
X148.127Y-144.126
X148.19Y-63.294
X148.212Y-78.631
X162.3Y-107.55
X162.313Y-91.564
X162.323Y-124.148
X162.327Y-140.626
X162.39Y-59.794
X162.412Y-75.131
X172.3Y-111.05
X172.313Y-95.064
X172.323Y-127.648
X172.327Y-144.126
X172.39Y-63.294
X172.412Y-78.631
X186.6Y-107.65
X186.613Y-91.664
X186.623Y-124.248
X186.627Y-140.726
X186.69Y-59.895
X186.712Y-75.231
X196.6Y-111.15
X196.613Y-95.164
X196.623Y-127.748
X196.627Y-144.226
X196.69Y-63.394
X196.712Y-78.731
T6
X50.798Y-56.017
X50.798Y-148.017
X242.798Y-56.017
X242.798Y-148.017
M30
