G04 #@! TF.GenerationSoftware,KiCad,Pcbnew,9.0.1*
G04 #@! TF.CreationDate,2025-08-08T23:32:25+03:00*
G04 #@! TF.ProjectId,vzFilter,767a4669-6c74-4657-922e-6b696361645f,v2*
G04 #@! TF.SameCoordinates,Original*
G04 #@! TF.FileFunction,Profile,NP*
%FSLAX46Y46*%
G04 Gerber Fmt 4.6, Leading zero omitted, Abs format (unit mm)*
G04 Created by KiCad (PCBNEW 9.0.1) date 2025-08-08 23:32:25*
%MOMM*%
%LPD*%
G01*
G04 APERTURE LIST*
G04 #@! TA.AperFunction,Profile*
%ADD10C,0.050000*%
G04 #@! TD*
G04 APERTURE END LIST*
D10*
X246797716Y-148017000D02*
X246797716Y-60517000D01*
X231797716Y-52017000D02*
X238297716Y-52017000D01*
X227797716Y-152017000D02*
X227797716Y-147017000D01*
X46797716Y-56017000D02*
G75*
G02*
X50797716Y-52017016I3999984J0D01*
G01*
X50797716Y-152017000D02*
X56297716Y-152017000D01*
X242797716Y-52017000D02*
X238297716Y-52017000D01*
X231797716Y-52017000D02*
X231797716Y-57017000D01*
X231797716Y-57017000D02*
X227797716Y-57017000D01*
X50797716Y-52017000D02*
X56797716Y-52017000D01*
X242797716Y-52017000D02*
G75*
G02*
X246797700Y-56017000I-16J-4000000D01*
G01*
X225797716Y-52017000D02*
X74297716Y-52017000D01*
X246797716Y-148017000D02*
G75*
G02*
X242797716Y-152017016I-4000016J0D01*
G01*
X46797716Y-56017000D02*
X46797716Y-148017000D01*
X56797716Y-58017000D02*
X60797716Y-58017000D01*
X56297716Y-146017000D02*
X60297716Y-146017000D01*
X60297716Y-146017000D02*
X60297716Y-152017000D01*
X231797716Y-152017000D02*
X237297716Y-152017000D01*
X227797716Y-57017000D02*
X227797716Y-52017000D01*
X60297716Y-152017000D02*
X227297716Y-152017000D01*
X60797716Y-58017000D02*
X60797716Y-52017000D01*
X227797716Y-52017000D02*
X225797716Y-52017000D01*
X246797716Y-56017000D02*
X246797716Y-60517000D01*
X56797716Y-52017000D02*
X56797716Y-58017000D01*
X227797716Y-147017000D02*
X231797716Y-147017000D01*
X60797716Y-52017000D02*
X74297716Y-52017000D01*
X242797716Y-152017000D02*
X237297716Y-152017000D01*
X227297716Y-152017000D02*
X227797716Y-152017000D01*
X56297716Y-152017000D02*
X56297716Y-146017000D01*
X50797716Y-152017000D02*
G75*
G02*
X46797700Y-148017000I-16J4000000D01*
G01*
X231797716Y-147017000D02*
X231797716Y-152017000D01*
M02*
