G04 #@! TF.GenerationSoftware,KiCad,Pcbnew,9.0.1*
G04 #@! TF.CreationDate,2025-08-08T23:32:25+03:00*
G04 #@! TF.ProjectId,vzFilter,767a4669-6c74-4657-922e-6b696361645f,v2*
G04 #@! TF.SameCoordinates,Original*
G04 #@! TF.FileFunction,Paste,Top*
G04 #@! TF.FilePolarity,Positive*
%FSLAX46Y46*%
G04 Gerber Fmt 4.6, Leading zero omitted, Abs format (unit mm)*
G04 Created by KiCad (PCBNEW 9.0.1) date 2025-08-08 23:32:25*
%MOMM*%
%LPD*%
G01*
G04 APERTURE LIST*
G04 Aperture macros list*
%AMRoundRect*
0 Rectangle with rounded corners*
0 $1 Rounding radius*
0 $2 $3 $4 $5 $6 $7 $8 $9 X,Y pos of 4 corners*
0 Add a 4 corners polygon primitive as box body*
4,1,4,$2,$3,$4,$5,$6,$7,$8,$9,$2,$3,0*
0 Add four circle primitives for the rounded corners*
1,1,$1+$1,$2,$3*
1,1,$1+$1,$4,$5*
1,1,$1+$1,$6,$7*
1,1,$1+$1,$8,$9*
0 Add four rect primitives between the rounded corners*
20,1,$1+$1,$2,$3,$4,$5,0*
20,1,$1+$1,$4,$5,$6,$7,0*
20,1,$1+$1,$6,$7,$8,$9,0*
20,1,$1+$1,$8,$9,$2,$3,0*%
G04 Aperture macros list end*
%ADD10RoundRect,0.250000X0.475000X-0.337500X0.475000X0.337500X-0.475000X0.337500X-0.475000X-0.337500X0*%
%ADD11RoundRect,0.250000X0.350000X0.450000X-0.350000X0.450000X-0.350000X-0.450000X0.350000X-0.450000X0*%
%ADD12RoundRect,0.250000X0.450000X-0.325000X0.450000X0.325000X-0.450000X0.325000X-0.450000X-0.325000X0*%
%ADD13RoundRect,0.150000X0.587500X0.150000X-0.587500X0.150000X-0.587500X-0.150000X0.587500X-0.150000X0*%
%ADD14RoundRect,0.250000X-0.312500X-0.625000X0.312500X-0.625000X0.312500X0.625000X-0.312500X0.625000X0*%
%ADD15RoundRect,0.250000X-0.350000X-0.450000X0.350000X-0.450000X0.350000X0.450000X-0.350000X0.450000X0*%
%ADD16RoundRect,0.190500X-59.809500X-0.444500X59.809500X-0.444500X59.809500X0.444500X-59.809500X0.444500X0*%
G04 APERTURE END LIST*
D10*
X83422370Y-78355683D03*
X83422370Y-76280683D03*
X129922716Y-127697925D03*
X129922716Y-125622925D03*
D11*
X231860216Y-140517000D03*
X229860216Y-140517000D03*
D10*
X81312778Y-94788970D03*
X81312778Y-92713970D03*
X156222716Y-127697925D03*
X156222716Y-125622925D03*
X131990216Y-63344500D03*
X131990216Y-61269500D03*
X81412370Y-78355683D03*
X81412370Y-76280683D03*
X132012370Y-78680682D03*
X132012370Y-76605682D03*
D12*
X233860216Y-134292001D03*
X233860216Y-132242001D03*
D11*
X231085216Y-69967000D03*
X229085216Y-69967000D03*
D13*
X226960216Y-71917000D03*
X226960216Y-70017000D03*
X225085216Y-70967000D03*
D10*
X154312370Y-78680682D03*
X154312370Y-76605682D03*
X131922716Y-127697925D03*
X131922716Y-125622925D03*
D14*
X67097716Y-120597927D03*
X70022716Y-120597927D03*
D10*
X156290216Y-63344500D03*
X156290216Y-61269500D03*
X180570460Y-63329827D03*
X180570460Y-61254827D03*
D13*
X227735216Y-142467000D03*
X227735216Y-140567000D03*
X225860216Y-141517000D03*
D10*
X178527218Y-144150844D03*
X178527218Y-142075844D03*
D12*
X233110216Y-80292000D03*
X233110216Y-78242000D03*
D10*
X129927218Y-144175844D03*
X129927218Y-142100844D03*
X107500000Y-110000000D03*
X107500000Y-107925000D03*
D14*
X67187370Y-71580684D03*
X70112370Y-71580684D03*
D10*
X180493022Y-95099296D03*
X180493022Y-93024296D03*
D15*
X236297716Y-133017000D03*
X238297716Y-133017000D03*
D11*
X231860216Y-142516999D03*
X229860216Y-142516999D03*
D10*
X105500000Y-110000000D03*
X105500000Y-107925000D03*
D11*
X231860216Y-134267000D03*
X229860216Y-134267000D03*
D10*
X81327218Y-143850845D03*
X81327218Y-141775845D03*
X154222716Y-127697925D03*
X154222716Y-125622925D03*
D16*
X140867502Y-150588441D03*
D14*
X212267716Y-131197925D03*
X215192716Y-131197925D03*
D10*
X178522716Y-127672925D03*
X178522716Y-125597925D03*
D14*
X212357370Y-82180682D03*
X215282370Y-82180682D03*
X67102218Y-137075846D03*
X70027218Y-137075846D03*
D12*
X232922716Y-63742000D03*
X232922716Y-61692000D03*
D10*
X129990216Y-63344500D03*
X129990216Y-61269500D03*
X83322778Y-94788970D03*
X83322778Y-92713970D03*
D15*
X235047716Y-71267000D03*
X237047716Y-71267000D03*
D10*
X154200000Y-111099999D03*
X154200000Y-109024999D03*
X83332716Y-127372926D03*
X83332716Y-125297926D03*
X154227218Y-144175844D03*
X154227218Y-142100844D03*
D13*
X227735216Y-134217001D03*
X227735216Y-132317001D03*
X225860216Y-133267001D03*
D10*
X83337218Y-143850845D03*
X83337218Y-141775845D03*
X130012370Y-78680682D03*
X130012370Y-76605682D03*
X105527218Y-143075845D03*
X105527218Y-141000845D03*
X105522716Y-126597926D03*
X105522716Y-124522926D03*
D14*
X67075000Y-104000001D03*
X70000000Y-104000001D03*
D10*
X81390216Y-63019500D03*
X81390216Y-60944500D03*
D13*
X227735216Y-125967000D03*
X227735216Y-124067000D03*
X225860216Y-125017000D03*
D10*
X178512778Y-95088969D03*
X178512778Y-93013969D03*
D11*
X231860216Y-126016999D03*
X229860216Y-126016999D03*
D10*
X131912778Y-95113969D03*
X131912778Y-93038969D03*
X107527218Y-143075845D03*
X107527218Y-141000845D03*
X180592614Y-78666009D03*
X180592614Y-76591009D03*
X107590216Y-62244500D03*
X107590216Y-60169500D03*
X180502960Y-127683252D03*
X180502960Y-125608252D03*
D11*
X231085216Y-71966999D03*
X229085216Y-71966999D03*
D10*
X131927218Y-144175844D03*
X131927218Y-142100844D03*
X156200000Y-111099999D03*
X156200000Y-109024999D03*
D11*
X231860216Y-124017000D03*
X229860216Y-124017000D03*
D10*
X131900000Y-111099999D03*
X131900000Y-109024999D03*
X178612370Y-78655682D03*
X178612370Y-76580682D03*
D11*
X230922716Y-61717000D03*
X228922716Y-61717000D03*
D13*
X226797716Y-63667000D03*
X226797716Y-61767000D03*
X224922716Y-62717000D03*
D10*
X107512778Y-94013970D03*
X107512778Y-91938970D03*
D16*
X142329612Y-53753277D03*
D14*
X212245000Y-114599999D03*
X215170000Y-114599999D03*
D10*
X107612370Y-77580683D03*
X107612370Y-75505683D03*
X180480244Y-111085326D03*
X180480244Y-109010326D03*
D11*
X231110216Y-78267000D03*
X229110216Y-78267000D03*
D10*
X107522716Y-126597926D03*
X107522716Y-124522926D03*
D11*
X230922716Y-63717000D03*
X228922716Y-63717000D03*
D12*
X233085216Y-71992000D03*
X233085216Y-69942000D03*
X233860216Y-126042000D03*
X233860216Y-123992000D03*
D10*
X178500000Y-111074999D03*
X178500000Y-108999999D03*
X154290216Y-63344500D03*
X154290216Y-61269500D03*
X129912778Y-95113969D03*
X129912778Y-93038969D03*
X180507462Y-144161171D03*
X180507462Y-142086171D03*
X156212778Y-95113969D03*
X156212778Y-93038969D03*
X105612370Y-77580683D03*
X105612370Y-75505683D03*
X83310000Y-110775000D03*
X83310000Y-108700000D03*
X129900000Y-111099999D03*
X129900000Y-109024999D03*
X156227218Y-144175844D03*
X156227218Y-142100844D03*
D11*
X231110216Y-80266999D03*
X229110216Y-80266999D03*
D14*
X212272218Y-147675844D03*
X215197218Y-147675844D03*
X67165216Y-56244500D03*
X70090216Y-56244500D03*
D10*
X83400216Y-63019500D03*
X83400216Y-60944500D03*
X81300000Y-110775000D03*
X81300000Y-108700000D03*
X105590216Y-62244500D03*
X105590216Y-60169500D03*
D14*
X212335216Y-66844500D03*
X215260216Y-66844500D03*
D12*
X233860216Y-142542000D03*
X233860216Y-140492000D03*
D13*
X226985216Y-80217000D03*
X226985216Y-78317000D03*
X225110216Y-79267000D03*
D14*
X67087778Y-88013971D03*
X70012778Y-88013971D03*
D10*
X156312370Y-78680682D03*
X156312370Y-76605682D03*
X105512778Y-94013970D03*
X105512778Y-91938970D03*
X81322716Y-127372926D03*
X81322716Y-125297926D03*
D11*
X231860216Y-132267001D03*
X229860216Y-132267001D03*
D10*
X178590216Y-63319500D03*
X178590216Y-61244500D03*
X154212778Y-95113969D03*
X154212778Y-93038969D03*
D14*
X212257778Y-98613969D03*
X215182778Y-98613969D03*
M02*
